<svg width="1440" height="512" viewBox="0 0 1440 512" fill="none" xmlns="http://www.w3.org/2000/svg">
<g clip-path="url(#clip0_734_23945)">
<path d="M732.5 342C797.393 342 850 289.393 850 224.5C850 159.607 797.393 107 732.5 107C667.607 107 615 159.607 615 224.5C615 289.393 667.607 342 732.5 342Z" fill="url(#paint0_linear_734_23945)"/>
<path d="M796.072 113H668.849C664.115 113 659.575 115.011 656.228 118.589C652.881 122.168 651 127.022 651 132.084V287.085H651.218V341.515C651.218 343.617 651.722 345.684 652.681 347.518C653.64 349.352 655.023 350.893 656.698 351.994C658.372 353.094 660.283 353.718 662.247 353.804C664.211 353.891 666.163 353.438 667.917 352.488L726.6 320.682C728.199 319.825 729.963 319.379 731.751 319.379C733.54 319.379 735.304 319.825 736.903 320.682L797.391 352.722C799.146 353.651 801.093 354.086 803.05 353.986C805.006 353.885 806.906 353.252 808.569 352.147C810.233 351.042 811.604 349.501 812.555 347.67C813.505 345.839 814.003 343.779 814 341.685L813.841 287.085V132.031C813.828 126.993 811.953 122.166 808.624 118.601C805.295 115.036 800.783 113.022 796.072 113Z" fill="#E1DCEB"/>
<circle cx="732.5" cy="194.5" r="57.5" fill="#E1561B"/>
<path fill-rule="evenodd" clip-rule="evenodd" d="M732 148C714.37 148 699.214 158.61 692.577 173.801C692.135 174.813 690.956 175.275 689.944 174.833C688.931 174.39 688.469 173.211 688.912 172.199C696.163 155.604 712.724 144 732 144C733.105 144 734 144.895 734 146C734 147.105 733.105 148 732 148Z" fill="white"/>
<path d="M735.482 161.922L743.569 179.061C743.809 179.57 744.163 180.009 744.601 180.342C745.039 180.676 745.548 180.892 746.085 180.974L764.161 183.701C764.774 183.799 765.348 184.073 765.82 184.492C766.292 184.912 766.643 185.46 766.835 186.076C767.027 186.691 767.052 187.351 766.907 187.981C766.762 188.61 766.452 189.186 766.013 189.642L752.951 202.979C752.562 203.375 752.272 203.863 752.105 204.403C751.937 204.942 751.898 205.516 751.991 206.075L755.08 224.907C755.186 225.551 755.118 226.213 754.883 226.819C754.647 227.424 754.255 227.948 753.75 228.332C753.244 228.716 752.646 228.944 752.023 228.991C751.4 229.038 750.777 228.901 750.225 228.597L734.056 219.685C733.576 219.422 733.042 219.284 732.5 219.284C731.958 219.284 731.424 219.422 730.944 219.685L714.775 228.597C714.223 228.9 713.601 229.035 712.979 228.987C712.356 228.94 711.76 228.711 711.255 228.327C710.751 227.944 710.359 227.42 710.124 226.816C709.889 226.211 709.82 225.55 709.925 224.907L713.009 206.075C713.102 205.516 713.063 204.942 712.895 204.403C712.728 203.863 712.438 203.375 712.049 202.979L698.987 189.642C698.548 189.186 698.238 188.61 698.093 187.981C697.948 187.351 697.973 186.691 698.165 186.076C698.357 185.46 698.708 184.912 699.18 184.492C699.652 184.073 700.226 183.799 700.839 183.701L718.915 180.957C719.452 180.875 719.961 180.658 720.399 180.325C720.837 179.991 721.191 179.552 721.431 179.044L729.518 161.904C729.8 161.329 730.228 160.847 730.755 160.511C731.282 160.175 731.888 159.998 732.505 160C733.123 160.002 733.727 160.182 734.253 160.522C734.778 160.861 735.203 161.345 735.482 161.922Z" fill="#FDEDE6"/>
<path fill-rule="evenodd" clip-rule="evenodd" d="M629.563 318.934C626.461 322.929 624.613 327.282 622.456 331.774C622.035 332.651 622.407 333.701 623.284 334.123C624.161 334.546 625.215 334.174 625.637 333.297C627.681 329.038 629.406 324.886 632.352 321.091C632.948 320.324 632.807 319.216 632.036 318.623C631.268 318.025 630.159 318.166 629.563 318.934Z" fill="#E1561B"/>
<path fill-rule="evenodd" clip-rule="evenodd" d="M624.027 306.058C613.476 309.561 602.487 315.218 593.59 321.907C592.814 322.491 592.659 323.596 593.246 324.37C593.833 325.144 594.939 325.302 595.715 324.718C604.318 318.251 614.946 312.78 625.146 309.396C626.069 309.088 626.567 308.091 626.258 307.171C625.948 306.251 624.95 305.75 624.027 306.058Z" fill="#E1561B"/>
<path fill-rule="evenodd" clip-rule="evenodd" d="M625.449 297.738C619.084 293.555 611.149 292.335 603.693 292.283C602.719 292.28 601.926 293.062 601.922 294.029C601.917 295.001 602.703 295.794 603.675 295.803C610.467 295.847 617.717 296.865 623.515 300.675C624.328 301.209 625.422 300.984 625.954 300.176C626.488 299.367 626.262 298.273 625.449 297.738Z" fill="#E1561B"/>
<circle cx="837" cy="131.002" r="6" fill="#417BA4"/>
</g>
<path d="M505.908 410.781L509.6 417.92L513.301 410.781H515.439L510.537 419.688V425H508.652V419.688L503.75 410.781H505.908ZM515.869 419.834V419.609C515.869 418.848 515.98 418.141 516.201 417.49C516.423 416.833 516.742 416.263 517.158 415.781C517.575 415.293 518.079 414.915 518.672 414.648C519.264 414.375 519.928 414.238 520.664 414.238C521.406 414.238 522.074 414.375 522.666 414.648C523.265 414.915 523.773 415.293 524.189 415.781C524.613 416.263 524.935 416.833 525.156 417.49C525.378 418.141 525.488 418.848 525.488 419.609V419.834C525.488 420.596 525.378 421.302 525.156 421.953C524.935 422.604 524.613 423.174 524.189 423.662C523.773 424.144 523.268 424.521 522.676 424.795C522.09 425.062 521.426 425.195 520.684 425.195C519.941 425.195 519.274 425.062 518.682 424.795C518.089 424.521 517.581 424.144 517.158 423.662C516.742 423.174 516.423 422.604 516.201 421.953C515.98 421.302 515.869 420.596 515.869 419.834ZM517.676 419.609V419.834C517.676 420.361 517.738 420.859 517.861 421.328C517.985 421.79 518.171 422.201 518.418 422.559C518.672 422.917 518.988 423.2 519.365 423.408C519.743 423.61 520.182 423.711 520.684 423.711C521.178 423.711 521.611 423.61 521.982 423.408C522.36 423.2 522.673 422.917 522.92 422.559C523.167 422.201 523.353 421.79 523.477 421.328C523.607 420.859 523.672 420.361 523.672 419.834V419.609C523.672 419.089 523.607 418.597 523.477 418.135C523.353 417.666 523.164 417.253 522.91 416.895C522.663 416.53 522.35 416.243 521.973 416.035C521.602 415.827 521.165 415.723 520.664 415.723C520.169 415.723 519.733 415.827 519.355 416.035C518.984 416.243 518.672 416.53 518.418 416.895C518.171 417.253 517.985 417.666 517.861 418.135C517.738 418.597 517.676 419.089 517.676 419.609ZM534.219 422.559V414.434H536.035V425H534.307L534.219 422.559ZM534.561 420.332L535.312 420.312C535.312 421.016 535.238 421.667 535.088 422.266C534.945 422.858 534.71 423.372 534.385 423.809C534.059 424.245 533.633 424.587 533.105 424.834C532.578 425.075 531.937 425.195 531.182 425.195C530.667 425.195 530.195 425.12 529.766 424.971C529.342 424.821 528.978 424.59 528.672 424.277C528.366 423.965 528.128 423.558 527.959 423.057C527.796 422.555 527.715 421.953 527.715 421.25V414.434H529.521V421.27C529.521 421.745 529.574 422.139 529.678 422.451C529.788 422.757 529.935 423.001 530.117 423.184C530.306 423.359 530.514 423.483 530.742 423.555C530.977 423.626 531.217 423.662 531.465 423.662C532.233 423.662 532.842 423.516 533.291 423.223C533.74 422.923 534.062 422.523 534.258 422.021C534.46 421.514 534.561 420.951 534.561 420.332ZM545.557 410V425H543.75V410H545.557ZM545.127 419.316L544.375 419.287C544.382 418.564 544.489 417.897 544.697 417.285C544.906 416.667 545.199 416.13 545.576 415.674C545.954 415.218 546.403 414.867 546.924 414.619C547.451 414.365 548.034 414.238 548.672 414.238C549.193 414.238 549.661 414.31 550.078 414.453C550.495 414.59 550.85 414.811 551.143 415.117C551.442 415.423 551.67 415.82 551.826 416.309C551.982 416.79 552.061 417.38 552.061 418.076V425H550.244V418.057C550.244 417.503 550.163 417.061 550 416.729C549.837 416.39 549.6 416.146 549.287 415.996C548.975 415.84 548.59 415.762 548.135 415.762C547.686 415.762 547.275 415.856 546.904 416.045C546.54 416.234 546.224 416.494 545.957 416.826C545.697 417.158 545.492 417.539 545.342 417.969C545.199 418.392 545.127 418.841 545.127 419.316ZM560.996 423.193V417.754C560.996 417.337 560.911 416.976 560.742 416.67C560.579 416.357 560.332 416.117 560 415.947C559.668 415.778 559.258 415.693 558.77 415.693C558.314 415.693 557.913 415.771 557.568 415.928C557.23 416.084 556.963 416.289 556.768 416.543C556.579 416.797 556.484 417.07 556.484 417.363H554.678C554.678 416.986 554.775 416.611 554.971 416.24C555.166 415.869 555.446 415.534 555.811 415.234C556.182 414.928 556.624 414.688 557.139 414.512C557.66 414.329 558.239 414.238 558.877 414.238C559.645 414.238 560.322 414.368 560.908 414.629C561.501 414.889 561.963 415.283 562.295 415.811C562.633 416.331 562.803 416.986 562.803 417.773V422.695C562.803 423.047 562.832 423.421 562.891 423.818C562.956 424.215 563.05 424.557 563.174 424.844V425H561.289C561.198 424.792 561.126 424.515 561.074 424.17C561.022 423.818 560.996 423.493 560.996 423.193ZM561.309 418.594L561.328 419.863H559.502C558.988 419.863 558.529 419.906 558.125 419.99C557.721 420.068 557.383 420.189 557.109 420.352C556.836 420.514 556.628 420.719 556.484 420.967C556.341 421.208 556.27 421.491 556.27 421.816C556.27 422.148 556.344 422.451 556.494 422.725C556.644 422.998 556.868 423.216 557.168 423.379C557.474 423.535 557.848 423.613 558.291 423.613C558.844 423.613 559.333 423.496 559.756 423.262C560.179 423.027 560.514 422.741 560.762 422.402C561.016 422.064 561.152 421.735 561.172 421.416L561.943 422.285C561.898 422.559 561.774 422.861 561.572 423.193C561.37 423.525 561.1 423.844 560.762 424.15C560.43 424.45 560.033 424.701 559.57 424.902C559.115 425.098 558.6 425.195 558.027 425.195C557.311 425.195 556.683 425.055 556.143 424.775C555.609 424.495 555.192 424.121 554.893 423.652C554.6 423.177 554.453 422.646 554.453 422.061C554.453 421.494 554.564 420.996 554.785 420.566C555.007 420.13 555.326 419.769 555.742 419.482C556.159 419.189 556.66 418.968 557.246 418.818C557.832 418.669 558.486 418.594 559.209 418.594H561.309ZM568.701 423.369L571.592 414.434H573.438L569.639 425H568.428L568.701 423.369ZM566.289 414.434L569.268 423.418L569.473 425H568.262L564.434 414.434H566.289ZM579.424 425.195C578.688 425.195 578.021 425.072 577.422 424.824C576.829 424.57 576.318 424.215 575.889 423.76C575.465 423.304 575.14 422.764 574.912 422.139C574.684 421.514 574.57 420.83 574.57 420.088V419.678C574.57 418.818 574.697 418.053 574.951 417.383C575.205 416.706 575.55 416.133 575.986 415.664C576.423 415.195 576.917 414.84 577.471 414.6C578.024 414.359 578.597 414.238 579.189 414.238C579.945 414.238 580.596 414.368 581.143 414.629C581.696 414.889 582.148 415.254 582.5 415.723C582.852 416.185 583.112 416.732 583.281 417.363C583.451 417.988 583.535 418.672 583.535 419.414V420.225H575.645V418.75H581.729V418.613C581.702 418.145 581.605 417.689 581.436 417.246C581.273 416.803 581.012 416.439 580.654 416.152C580.296 415.866 579.808 415.723 579.189 415.723C578.779 415.723 578.402 415.811 578.057 415.986C577.712 416.156 577.415 416.41 577.168 416.748C576.921 417.087 576.729 417.5 576.592 417.988C576.455 418.477 576.387 419.04 576.387 419.678V420.088C576.387 420.589 576.455 421.061 576.592 421.504C576.735 421.94 576.94 422.324 577.207 422.656C577.48 422.988 577.809 423.249 578.193 423.438C578.584 423.626 579.027 423.721 579.521 423.721C580.16 423.721 580.7 423.59 581.143 423.33C581.585 423.07 581.973 422.721 582.305 422.285L583.398 423.154C583.171 423.499 582.881 423.828 582.529 424.141C582.178 424.453 581.745 424.707 581.23 424.902C580.723 425.098 580.12 425.195 579.424 425.195ZM587.451 416.689V425H585.645V414.434H587.354L587.451 416.689ZM587.021 419.316L586.27 419.287C586.276 418.564 586.383 417.897 586.592 417.285C586.8 416.667 587.093 416.13 587.471 415.674C587.848 415.218 588.298 414.867 588.818 414.619C589.346 414.365 589.928 414.238 590.566 414.238C591.087 414.238 591.556 414.31 591.973 414.453C592.389 414.59 592.744 414.811 593.037 415.117C593.337 415.423 593.564 415.82 593.721 416.309C593.877 416.79 593.955 417.38 593.955 418.076V425H592.139V418.057C592.139 417.503 592.057 417.061 591.895 416.729C591.732 416.39 591.494 416.146 591.182 415.996C590.869 415.84 590.485 415.762 590.029 415.762C589.58 415.762 589.17 415.856 588.799 416.045C588.434 416.234 588.118 416.494 587.852 416.826C587.591 417.158 587.386 417.539 587.236 417.969C587.093 418.392 587.021 418.841 587.021 419.316ZM596.787 410V411.074L596.582 414.668H595.322L595.332 411.24V410H596.787ZM603.604 414.434V415.82H597.891V414.434H603.604ZM599.824 411.865H601.631V422.383C601.631 422.741 601.686 423.011 601.797 423.193C601.908 423.376 602.051 423.496 602.227 423.555C602.402 423.613 602.591 423.643 602.793 423.643C602.943 423.643 603.099 423.63 603.262 423.604C603.431 423.571 603.558 423.545 603.643 423.525L603.652 425C603.509 425.046 603.32 425.088 603.086 425.127C602.858 425.173 602.581 425.195 602.256 425.195C601.813 425.195 601.406 425.107 601.035 424.932C600.664 424.756 600.368 424.463 600.146 424.053C599.932 423.636 599.824 423.076 599.824 422.373V411.865ZM616.914 423.193V417.754C616.914 417.337 616.829 416.976 616.66 416.67C616.497 416.357 616.25 416.117 615.918 415.947C615.586 415.778 615.176 415.693 614.688 415.693C614.232 415.693 613.831 415.771 613.486 415.928C613.148 416.084 612.881 416.289 612.686 416.543C612.497 416.797 612.402 417.07 612.402 417.363H610.596C610.596 416.986 610.693 416.611 610.889 416.24C611.084 415.869 611.364 415.534 611.729 415.234C612.1 414.928 612.542 414.688 613.057 414.512C613.577 414.329 614.157 414.238 614.795 414.238C615.563 414.238 616.24 414.368 616.826 414.629C617.419 414.889 617.881 415.283 618.213 415.811C618.551 416.331 618.721 416.986 618.721 417.773V422.695C618.721 423.047 618.75 423.421 618.809 423.818C618.874 424.215 618.968 424.557 619.092 424.844V425H617.207C617.116 424.792 617.044 424.515 616.992 424.17C616.94 423.818 616.914 423.493 616.914 423.193ZM617.227 418.594L617.246 419.863H615.42C614.906 419.863 614.447 419.906 614.043 419.99C613.639 420.068 613.301 420.189 613.027 420.352C612.754 420.514 612.546 420.719 612.402 420.967C612.259 421.208 612.188 421.491 612.188 421.816C612.188 422.148 612.262 422.451 612.412 422.725C612.562 422.998 612.786 423.216 613.086 423.379C613.392 423.535 613.766 423.613 614.209 423.613C614.762 423.613 615.251 423.496 615.674 423.262C616.097 423.027 616.432 422.741 616.68 422.402C616.934 422.064 617.07 421.735 617.09 421.416L617.861 422.285C617.816 422.559 617.692 422.861 617.49 423.193C617.288 423.525 617.018 423.844 616.68 424.15C616.348 424.45 615.951 424.701 615.488 424.902C615.033 425.098 614.518 425.195 613.945 425.195C613.229 425.195 612.601 425.055 612.061 424.775C611.527 424.495 611.11 424.121 610.811 423.652C610.518 423.177 610.371 422.646 610.371 422.061C610.371 421.494 610.482 420.996 610.703 420.566C610.924 420.13 611.243 419.769 611.66 419.482C612.077 419.189 612.578 418.968 613.164 418.818C613.75 418.669 614.404 418.594 615.127 418.594H617.227ZM628.223 422.949V410H630.039V425H628.379L628.223 422.949ZM621.113 419.834V419.629C621.113 418.822 621.211 418.089 621.406 417.432C621.608 416.768 621.891 416.198 622.256 415.723C622.627 415.247 623.066 414.883 623.574 414.629C624.089 414.368 624.661 414.238 625.293 414.238C625.957 414.238 626.536 414.355 627.031 414.59C627.533 414.818 627.956 415.153 628.301 415.596C628.652 416.032 628.929 416.559 629.131 417.178C629.333 417.796 629.473 418.496 629.551 419.277V420.176C629.479 420.951 629.339 421.647 629.131 422.266C628.929 422.884 628.652 423.411 628.301 423.848C627.956 424.284 627.533 424.619 627.031 424.854C626.53 425.081 625.944 425.195 625.273 425.195C624.655 425.195 624.089 425.062 623.574 424.795C623.066 424.528 622.627 424.154 622.256 423.672C621.891 423.19 621.608 422.624 621.406 421.973C621.211 421.315 621.113 420.602 621.113 419.834ZM622.93 419.629V419.834C622.93 420.361 622.982 420.856 623.086 421.318C623.197 421.781 623.366 422.188 623.594 422.539C623.822 422.891 624.111 423.167 624.463 423.369C624.814 423.564 625.234 423.662 625.723 423.662C626.322 423.662 626.813 423.535 627.197 423.281C627.588 423.027 627.9 422.692 628.135 422.275C628.369 421.859 628.551 421.406 628.682 420.918V418.564C628.604 418.206 628.49 417.861 628.34 417.529C628.197 417.191 628.008 416.891 627.773 416.631C627.546 416.364 627.262 416.152 626.924 415.996C626.592 415.84 626.198 415.762 625.742 415.762C625.247 415.762 624.821 415.866 624.463 416.074C624.111 416.276 623.822 416.556 623.594 416.914C623.366 417.266 623.197 417.676 623.086 418.145C622.982 418.607 622.93 419.102 622.93 419.629ZM639.512 422.949V410H641.328V425H639.668L639.512 422.949ZM632.402 419.834V419.629C632.402 418.822 632.5 418.089 632.695 417.432C632.897 416.768 633.18 416.198 633.545 415.723C633.916 415.247 634.355 414.883 634.863 414.629C635.378 414.368 635.951 414.238 636.582 414.238C637.246 414.238 637.826 414.355 638.32 414.59C638.822 414.818 639.245 415.153 639.59 415.596C639.941 416.032 640.218 416.559 640.42 417.178C640.622 417.796 640.762 418.496 640.84 419.277V420.176C640.768 420.951 640.628 421.647 640.42 422.266C640.218 422.884 639.941 423.411 639.59 423.848C639.245 424.284 638.822 424.619 638.32 424.854C637.819 425.081 637.233 425.195 636.562 425.195C635.944 425.195 635.378 425.062 634.863 424.795C634.355 424.528 633.916 424.154 633.545 423.672C633.18 423.19 632.897 422.624 632.695 421.973C632.5 421.315 632.402 420.602 632.402 419.834ZM634.219 419.629V419.834C634.219 420.361 634.271 420.856 634.375 421.318C634.486 421.781 634.655 422.188 634.883 422.539C635.111 422.891 635.4 423.167 635.752 423.369C636.104 423.564 636.523 423.662 637.012 423.662C637.611 423.662 638.102 423.535 638.486 423.281C638.877 423.027 639.189 422.692 639.424 422.275C639.658 421.859 639.84 421.406 639.971 420.918V418.564C639.893 418.206 639.779 417.861 639.629 417.529C639.486 417.191 639.297 416.891 639.062 416.631C638.835 416.364 638.551 416.152 638.213 415.996C637.881 415.84 637.487 415.762 637.031 415.762C636.536 415.762 636.11 415.866 635.752 416.074C635.4 416.276 635.111 416.556 634.883 416.914C634.655 417.266 634.486 417.676 634.375 418.145C634.271 418.607 634.219 419.102 634.219 419.629ZM648.525 425.195C647.79 425.195 647.122 425.072 646.523 424.824C645.931 424.57 645.42 424.215 644.99 423.76C644.567 423.304 644.242 422.764 644.014 422.139C643.786 421.514 643.672 420.83 643.672 420.088V419.678C643.672 418.818 643.799 418.053 644.053 417.383C644.307 416.706 644.652 416.133 645.088 415.664C645.524 415.195 646.019 414.84 646.572 414.6C647.126 414.359 647.699 414.238 648.291 414.238C649.046 414.238 649.697 414.368 650.244 414.629C650.798 414.889 651.25 415.254 651.602 415.723C651.953 416.185 652.214 416.732 652.383 417.363C652.552 417.988 652.637 418.672 652.637 419.414V420.225H644.746V418.75H650.83V418.613C650.804 418.145 650.706 417.689 650.537 417.246C650.374 416.803 650.114 416.439 649.756 416.152C649.398 415.866 648.91 415.723 648.291 415.723C647.881 415.723 647.503 415.811 647.158 415.986C646.813 416.156 646.517 416.41 646.27 416.748C646.022 417.087 645.83 417.5 645.693 417.988C645.557 418.477 645.488 419.04 645.488 419.678V420.088C645.488 420.589 645.557 421.061 645.693 421.504C645.837 421.94 646.042 422.324 646.309 422.656C646.582 422.988 646.911 423.249 647.295 423.438C647.686 423.626 648.128 423.721 648.623 423.721C649.261 423.721 649.801 423.59 650.244 423.33C650.687 423.07 651.074 422.721 651.406 422.285L652.5 423.154C652.272 423.499 651.982 423.828 651.631 424.141C651.279 424.453 650.846 424.707 650.332 424.902C649.824 425.098 649.222 425.195 648.525 425.195ZM661.406 422.949V410H663.223V425H661.562L661.406 422.949ZM654.297 419.834V419.629C654.297 418.822 654.395 418.089 654.59 417.432C654.792 416.768 655.075 416.198 655.439 415.723C655.811 415.247 656.25 414.883 656.758 414.629C657.272 414.368 657.845 414.238 658.477 414.238C659.141 414.238 659.72 414.355 660.215 414.59C660.716 414.818 661.139 415.153 661.484 415.596C661.836 416.032 662.113 416.559 662.314 417.178C662.516 417.796 662.656 418.496 662.734 419.277V420.176C662.663 420.951 662.523 421.647 662.314 422.266C662.113 422.884 661.836 423.411 661.484 423.848C661.139 424.284 660.716 424.619 660.215 424.854C659.714 425.081 659.128 425.195 658.457 425.195C657.839 425.195 657.272 425.062 656.758 424.795C656.25 424.528 655.811 424.154 655.439 423.672C655.075 423.19 654.792 422.624 654.59 421.973C654.395 421.315 654.297 420.602 654.297 419.834ZM656.113 419.629V419.834C656.113 420.361 656.165 420.856 656.27 421.318C656.38 421.781 656.549 422.188 656.777 422.539C657.005 422.891 657.295 423.167 657.646 423.369C657.998 423.564 658.418 423.662 658.906 423.662C659.505 423.662 659.997 423.535 660.381 423.281C660.771 423.027 661.084 422.692 661.318 422.275C661.553 421.859 661.735 421.406 661.865 420.918V418.564C661.787 418.206 661.673 417.861 661.523 417.529C661.38 417.191 661.191 416.891 660.957 416.631C660.729 416.364 660.446 416.152 660.107 415.996C659.775 415.84 659.382 415.762 658.926 415.762C658.431 415.762 658.005 415.866 657.646 416.074C657.295 416.276 657.005 416.556 656.777 416.914C656.549 417.266 656.38 417.676 656.27 418.145C656.165 418.607 656.113 419.102 656.113 419.629ZM677.227 423.193V417.754C677.227 417.337 677.142 416.976 676.973 416.67C676.81 416.357 676.562 416.117 676.23 415.947C675.898 415.778 675.488 415.693 675 415.693C674.544 415.693 674.144 415.771 673.799 415.928C673.46 416.084 673.193 416.289 672.998 416.543C672.809 416.797 672.715 417.07 672.715 417.363H670.908C670.908 416.986 671.006 416.611 671.201 416.24C671.396 415.869 671.676 415.534 672.041 415.234C672.412 414.928 672.855 414.688 673.369 414.512C673.89 414.329 674.469 414.238 675.107 414.238C675.876 414.238 676.553 414.368 677.139 414.629C677.731 414.889 678.193 415.283 678.525 415.811C678.864 416.331 679.033 416.986 679.033 417.773V422.695C679.033 423.047 679.062 423.421 679.121 423.818C679.186 424.215 679.281 424.557 679.404 424.844V425H677.52C677.428 424.792 677.357 424.515 677.305 424.17C677.253 423.818 677.227 423.493 677.227 423.193ZM677.539 418.594L677.559 419.863H675.732C675.218 419.863 674.759 419.906 674.355 419.99C673.952 420.068 673.613 420.189 673.34 420.352C673.066 420.514 672.858 420.719 672.715 420.967C672.572 421.208 672.5 421.491 672.5 421.816C672.5 422.148 672.575 422.451 672.725 422.725C672.874 422.998 673.099 423.216 673.398 423.379C673.704 423.535 674.079 423.613 674.521 423.613C675.075 423.613 675.563 423.496 675.986 423.262C676.41 423.027 676.745 422.741 676.992 422.402C677.246 422.064 677.383 421.735 677.402 421.416L678.174 422.285C678.128 422.559 678.005 422.861 677.803 423.193C677.601 423.525 677.331 423.844 676.992 424.15C676.66 424.45 676.263 424.701 675.801 424.902C675.345 425.098 674.831 425.195 674.258 425.195C673.542 425.195 672.913 425.055 672.373 424.775C671.839 424.495 671.423 424.121 671.123 423.652C670.83 423.177 670.684 422.646 670.684 422.061C670.684 421.494 670.794 420.996 671.016 420.566C671.237 420.13 671.556 419.769 671.973 419.482C672.389 419.189 672.891 418.968 673.477 418.818C674.062 418.669 674.717 418.594 675.439 418.594H677.539ZM683.682 416.689V425H681.875V414.434H683.584L683.682 416.689ZM683.252 419.316L682.5 419.287C682.507 418.564 682.614 417.897 682.822 417.285C683.031 416.667 683.324 416.13 683.701 415.674C684.079 415.218 684.528 414.867 685.049 414.619C685.576 414.365 686.159 414.238 686.797 414.238C687.318 414.238 687.786 414.31 688.203 414.453C688.62 414.59 688.975 414.811 689.268 415.117C689.567 415.423 689.795 415.82 689.951 416.309C690.107 416.79 690.186 417.38 690.186 418.076V425H688.369V418.057C688.369 417.503 688.288 417.061 688.125 416.729C687.962 416.39 687.725 416.146 687.412 415.996C687.1 415.84 686.715 415.762 686.26 415.762C685.811 415.762 685.4 415.856 685.029 416.045C684.665 416.234 684.349 416.494 684.082 416.826C683.822 417.158 683.617 417.539 683.467 417.969C683.324 418.392 683.252 418.841 683.252 419.316ZM695.898 423.906L698.838 414.434H700.771L696.533 426.631C696.436 426.891 696.305 427.171 696.143 427.471C695.986 427.777 695.785 428.066 695.537 428.34C695.29 428.613 694.99 428.835 694.639 429.004C694.294 429.18 693.88 429.268 693.398 429.268C693.255 429.268 693.073 429.248 692.852 429.209C692.63 429.17 692.474 429.137 692.383 429.111L692.373 427.646C692.425 427.653 692.507 427.66 692.617 427.666C692.734 427.679 692.816 427.686 692.861 427.686C693.271 427.686 693.62 427.63 693.906 427.52C694.193 427.415 694.434 427.236 694.629 426.982C694.831 426.735 695.003 426.393 695.146 425.957L695.898 423.906ZM693.74 414.434L696.484 422.637L696.953 424.541L695.654 425.205L691.768 414.434H693.74ZM711.592 423.711C712.021 423.711 712.419 423.623 712.783 423.447C713.148 423.271 713.447 423.031 713.682 422.725C713.916 422.412 714.049 422.057 714.082 421.66H715.801C715.768 422.285 715.557 422.868 715.166 423.408C714.782 423.942 714.277 424.375 713.652 424.707C713.027 425.033 712.34 425.195 711.592 425.195C710.798 425.195 710.104 425.055 709.512 424.775C708.926 424.495 708.438 424.111 708.047 423.623C707.663 423.135 707.373 422.575 707.178 421.943C706.989 421.305 706.895 420.632 706.895 419.922V419.512C706.895 418.802 706.989 418.132 707.178 417.5C707.373 416.862 707.663 416.299 708.047 415.811C708.438 415.322 708.926 414.938 709.512 414.658C710.104 414.378 710.798 414.238 711.592 414.238C712.419 414.238 713.141 414.408 713.76 414.746C714.378 415.078 714.863 415.534 715.215 416.113C715.573 416.686 715.768 417.337 715.801 418.066H714.082C714.049 417.63 713.926 417.236 713.711 416.885C713.503 416.533 713.216 416.253 712.852 416.045C712.493 415.83 712.074 415.723 711.592 415.723C711.038 415.723 710.573 415.833 710.195 416.055C709.824 416.27 709.528 416.562 709.307 416.934C709.092 417.298 708.936 417.705 708.838 418.154C708.747 418.597 708.701 419.049 708.701 419.512V419.922C708.701 420.384 708.747 420.84 708.838 421.289C708.929 421.738 709.082 422.145 709.297 422.51C709.518 422.874 709.814 423.167 710.186 423.389C710.563 423.604 711.032 423.711 711.592 423.711ZM724.062 423.193V417.754C724.062 417.337 723.978 416.976 723.809 416.67C723.646 416.357 723.398 416.117 723.066 415.947C722.734 415.778 722.324 415.693 721.836 415.693C721.38 415.693 720.98 415.771 720.635 415.928C720.296 416.084 720.029 416.289 719.834 416.543C719.645 416.797 719.551 417.07 719.551 417.363H717.744C717.744 416.986 717.842 416.611 718.037 416.24C718.232 415.869 718.512 415.534 718.877 415.234C719.248 414.928 719.691 414.688 720.205 414.512C720.726 414.329 721.305 414.238 721.943 414.238C722.712 414.238 723.389 414.368 723.975 414.629C724.567 414.889 725.029 415.283 725.361 415.811C725.7 416.331 725.869 416.986 725.869 417.773V422.695C725.869 423.047 725.898 423.421 725.957 423.818C726.022 424.215 726.117 424.557 726.24 424.844V425H724.355C724.264 424.792 724.193 424.515 724.141 424.17C724.089 423.818 724.062 423.493 724.062 423.193ZM724.375 418.594L724.395 419.863H722.568C722.054 419.863 721.595 419.906 721.191 419.99C720.788 420.068 720.449 420.189 720.176 420.352C719.902 420.514 719.694 420.719 719.551 420.967C719.408 421.208 719.336 421.491 719.336 421.816C719.336 422.148 719.411 422.451 719.561 422.725C719.71 422.998 719.935 423.216 720.234 423.379C720.54 423.535 720.915 423.613 721.357 423.613C721.911 423.613 722.399 423.496 722.822 423.262C723.245 423.027 723.581 422.741 723.828 422.402C724.082 422.064 724.219 421.735 724.238 421.416L725.01 422.285C724.964 422.559 724.84 422.861 724.639 423.193C724.437 423.525 724.167 423.844 723.828 424.15C723.496 424.45 723.099 424.701 722.637 424.902C722.181 425.098 721.667 425.195 721.094 425.195C720.378 425.195 719.749 425.055 719.209 424.775C718.675 424.495 718.258 424.121 717.959 423.652C717.666 423.177 717.52 422.646 717.52 422.061C717.52 421.494 717.63 420.996 717.852 420.566C718.073 420.13 718.392 419.769 718.809 419.482C719.225 419.189 719.727 418.968 720.312 418.818C720.898 418.669 721.553 418.594 722.275 418.594H724.375ZM730.518 416.094V425H728.711V414.434H730.469L730.518 416.094ZM733.818 414.375L733.809 416.055C733.659 416.022 733.516 416.003 733.379 415.996C733.249 415.983 733.099 415.977 732.93 415.977C732.513 415.977 732.145 416.042 731.826 416.172C731.507 416.302 731.237 416.484 731.016 416.719C730.794 416.953 730.618 417.233 730.488 417.559C730.365 417.878 730.283 418.229 730.244 418.613L729.736 418.906C729.736 418.268 729.798 417.669 729.922 417.109C730.052 416.549 730.251 416.055 730.518 415.625C730.785 415.189 731.123 414.85 731.533 414.609C731.95 414.362 732.445 414.238 733.018 414.238C733.148 414.238 733.298 414.255 733.467 414.287C733.636 414.313 733.753 414.342 733.818 414.375ZM741.641 422.197C741.641 421.937 741.582 421.696 741.465 421.475C741.354 421.247 741.123 421.042 740.771 420.859C740.426 420.671 739.906 420.508 739.209 420.371C738.623 420.247 738.092 420.101 737.617 419.932C737.148 419.762 736.748 419.557 736.416 419.316C736.09 419.076 735.84 418.792 735.664 418.467C735.488 418.141 735.4 417.76 735.4 417.324C735.4 416.908 735.492 416.514 735.674 416.143C735.863 415.771 736.126 415.443 736.465 415.156C736.81 414.87 737.223 414.645 737.705 414.482C738.187 414.32 738.724 414.238 739.316 414.238C740.163 414.238 740.885 414.388 741.484 414.688C742.083 414.987 742.542 415.387 742.861 415.889C743.18 416.383 743.34 416.934 743.34 417.539H741.533C741.533 417.246 741.445 416.963 741.27 416.689C741.1 416.41 740.85 416.178 740.518 415.996C740.192 415.814 739.792 415.723 739.316 415.723C738.815 415.723 738.408 415.801 738.096 415.957C737.79 416.107 737.565 416.299 737.422 416.533C737.285 416.768 737.217 417.015 737.217 417.275C737.217 417.471 737.249 417.646 737.314 417.803C737.386 417.952 737.51 418.092 737.686 418.223C737.861 418.346 738.109 418.464 738.428 418.574C738.747 418.685 739.154 418.796 739.648 418.906C740.514 419.102 741.227 419.336 741.787 419.609C742.347 419.883 742.764 420.218 743.037 420.615C743.311 421.012 743.447 421.494 743.447 422.061C743.447 422.523 743.35 422.946 743.154 423.33C742.965 423.714 742.689 424.046 742.324 424.326C741.966 424.6 741.536 424.814 741.035 424.971C740.54 425.12 739.984 425.195 739.365 425.195C738.434 425.195 737.646 425.029 737.002 424.697C736.357 424.365 735.869 423.936 735.537 423.408C735.205 422.881 735.039 422.324 735.039 421.738H736.855C736.882 422.233 737.025 422.627 737.285 422.92C737.546 423.206 737.865 423.411 738.242 423.535C738.62 423.652 738.994 423.711 739.365 423.711C739.86 423.711 740.273 423.646 740.605 423.516C740.944 423.385 741.201 423.206 741.377 422.979C741.553 422.751 741.641 422.49 741.641 422.197ZM755.205 414.434V415.82H749.492V414.434H755.205ZM751.426 411.865H753.232V422.383C753.232 422.741 753.288 423.011 753.398 423.193C753.509 423.376 753.652 423.496 753.828 423.555C754.004 423.613 754.193 423.643 754.395 423.643C754.544 423.643 754.701 423.63 754.863 423.604C755.033 423.571 755.16 423.545 755.244 423.525L755.254 425C755.111 425.046 754.922 425.088 754.688 425.127C754.46 425.173 754.183 425.195 753.857 425.195C753.415 425.195 753.008 425.107 752.637 424.932C752.266 424.756 751.969 424.463 751.748 424.053C751.533 423.636 751.426 423.076 751.426 422.373V411.865ZM756.65 419.834V419.609C756.65 418.848 756.761 418.141 756.982 417.49C757.204 416.833 757.523 416.263 757.939 415.781C758.356 415.293 758.861 414.915 759.453 414.648C760.046 414.375 760.71 414.238 761.445 414.238C762.188 414.238 762.855 414.375 763.447 414.648C764.046 414.915 764.554 415.293 764.971 415.781C765.394 416.263 765.716 416.833 765.938 417.49C766.159 418.141 766.27 418.848 766.27 419.609V419.834C766.27 420.596 766.159 421.302 765.938 421.953C765.716 422.604 765.394 423.174 764.971 423.662C764.554 424.144 764.049 424.521 763.457 424.795C762.871 425.062 762.207 425.195 761.465 425.195C760.723 425.195 760.055 425.062 759.463 424.795C758.87 424.521 758.363 424.144 757.939 423.662C757.523 423.174 757.204 422.604 756.982 421.953C756.761 421.302 756.65 420.596 756.65 419.834ZM758.457 419.609V419.834C758.457 420.361 758.519 420.859 758.643 421.328C758.766 421.79 758.952 422.201 759.199 422.559C759.453 422.917 759.769 423.2 760.146 423.408C760.524 423.61 760.964 423.711 761.465 423.711C761.96 423.711 762.393 423.61 762.764 423.408C763.141 423.2 763.454 422.917 763.701 422.559C763.949 422.201 764.134 421.79 764.258 421.328C764.388 420.859 764.453 420.361 764.453 419.834V419.609C764.453 419.089 764.388 418.597 764.258 418.135C764.134 417.666 763.945 417.253 763.691 416.895C763.444 416.53 763.132 416.243 762.754 416.035C762.383 415.827 761.947 415.723 761.445 415.723C760.951 415.723 760.514 415.827 760.137 416.035C759.766 416.243 759.453 416.53 759.199 416.895C758.952 417.253 758.766 417.666 758.643 418.135C758.519 418.597 758.457 419.089 758.457 419.609ZM776.465 423.906L779.404 414.434H781.338L777.1 426.631C777.002 426.891 776.872 427.171 776.709 427.471C776.553 427.777 776.351 428.066 776.104 428.34C775.856 428.613 775.557 428.835 775.205 429.004C774.86 429.18 774.447 429.268 773.965 429.268C773.822 429.268 773.639 429.248 773.418 429.209C773.197 429.17 773.04 429.137 772.949 429.111L772.939 427.646C772.992 427.653 773.073 427.66 773.184 427.666C773.301 427.679 773.382 427.686 773.428 427.686C773.838 427.686 774.186 427.63 774.473 427.52C774.759 427.415 775 427.236 775.195 426.982C775.397 426.735 775.57 426.393 775.713 425.957L776.465 423.906ZM774.307 414.434L777.051 422.637L777.52 424.541L776.221 425.205L772.334 414.434H774.307ZM782.334 419.834V419.609C782.334 418.848 782.445 418.141 782.666 417.49C782.887 416.833 783.206 416.263 783.623 415.781C784.04 415.293 784.544 414.915 785.137 414.648C785.729 414.375 786.393 414.238 787.129 414.238C787.871 414.238 788.538 414.375 789.131 414.648C789.73 414.915 790.238 415.293 790.654 415.781C791.077 416.263 791.4 416.833 791.621 417.49C791.842 418.141 791.953 418.848 791.953 419.609V419.834C791.953 420.596 791.842 421.302 791.621 421.953C791.4 422.604 791.077 423.174 790.654 423.662C790.238 424.144 789.733 424.521 789.141 424.795C788.555 425.062 787.891 425.195 787.148 425.195C786.406 425.195 785.739 425.062 785.146 424.795C784.554 424.521 784.046 424.144 783.623 423.662C783.206 423.174 782.887 422.604 782.666 421.953C782.445 421.302 782.334 420.596 782.334 419.834ZM784.141 419.609V419.834C784.141 420.361 784.202 420.859 784.326 421.328C784.45 421.79 784.635 422.201 784.883 422.559C785.137 422.917 785.452 423.2 785.83 423.408C786.208 423.61 786.647 423.711 787.148 423.711C787.643 423.711 788.076 423.61 788.447 423.408C788.825 423.2 789.137 422.917 789.385 422.559C789.632 422.201 789.818 421.79 789.941 421.328C790.072 420.859 790.137 420.361 790.137 419.834V419.609C790.137 419.089 790.072 418.597 789.941 418.135C789.818 417.666 789.629 417.253 789.375 416.895C789.128 416.53 788.815 416.243 788.438 416.035C788.066 415.827 787.63 415.723 787.129 415.723C786.634 415.723 786.198 415.827 785.82 416.035C785.449 416.243 785.137 416.53 784.883 416.895C784.635 417.253 784.45 417.666 784.326 418.135C784.202 418.597 784.141 419.089 784.141 419.609ZM800.684 422.559V414.434H802.5V425H800.771L800.684 422.559ZM801.025 420.332L801.777 420.312C801.777 421.016 801.702 421.667 801.553 422.266C801.41 422.858 801.175 423.372 800.85 423.809C800.524 424.245 800.098 424.587 799.57 424.834C799.043 425.075 798.402 425.195 797.646 425.195C797.132 425.195 796.66 425.12 796.23 424.971C795.807 424.821 795.443 424.59 795.137 424.277C794.831 423.965 794.593 423.558 794.424 423.057C794.261 422.555 794.18 421.953 794.18 421.25V414.434H795.986V421.27C795.986 421.745 796.038 422.139 796.143 422.451C796.253 422.757 796.4 423.001 796.582 423.184C796.771 423.359 796.979 423.483 797.207 423.555C797.441 423.626 797.682 423.662 797.93 423.662C798.698 423.662 799.307 423.516 799.756 423.223C800.205 422.923 800.527 422.523 800.723 422.021C800.924 421.514 801.025 420.951 801.025 420.332ZM807.061 416.094V425H805.254V414.434H807.012L807.061 416.094ZM810.361 414.375L810.352 416.055C810.202 416.022 810.059 416.003 809.922 415.996C809.792 415.983 809.642 415.977 809.473 415.977C809.056 415.977 808.688 416.042 808.369 416.172C808.05 416.302 807.78 416.484 807.559 416.719C807.337 416.953 807.161 417.233 807.031 417.559C806.908 417.878 806.826 418.229 806.787 418.613L806.279 418.906C806.279 418.268 806.341 417.669 806.465 417.109C806.595 416.549 806.794 416.055 807.061 415.625C807.327 415.189 807.666 414.85 808.076 414.609C808.493 414.362 808.988 414.238 809.561 414.238C809.691 414.238 809.84 414.255 810.01 414.287C810.179 414.313 810.296 414.342 810.361 414.375ZM823.145 422.197C823.145 421.937 823.086 421.696 822.969 421.475C822.858 421.247 822.627 421.042 822.275 420.859C821.93 420.671 821.41 420.508 820.713 420.371C820.127 420.247 819.596 420.101 819.121 419.932C818.652 419.762 818.252 419.557 817.92 419.316C817.594 419.076 817.344 418.792 817.168 418.467C816.992 418.141 816.904 417.76 816.904 417.324C816.904 416.908 816.995 416.514 817.178 416.143C817.367 415.771 817.63 415.443 817.969 415.156C818.314 414.87 818.727 414.645 819.209 414.482C819.691 414.32 820.228 414.238 820.82 414.238C821.667 414.238 822.389 414.388 822.988 414.688C823.587 414.987 824.046 415.387 824.365 415.889C824.684 416.383 824.844 416.934 824.844 417.539H823.037C823.037 417.246 822.949 416.963 822.773 416.689C822.604 416.41 822.354 416.178 822.021 415.996C821.696 415.814 821.296 415.723 820.82 415.723C820.319 415.723 819.912 415.801 819.6 415.957C819.294 416.107 819.069 416.299 818.926 416.533C818.789 416.768 818.721 417.015 818.721 417.275C818.721 417.471 818.753 417.646 818.818 417.803C818.89 417.952 819.014 418.092 819.189 418.223C819.365 418.346 819.613 418.464 819.932 418.574C820.251 418.685 820.658 418.796 821.152 418.906C822.018 419.102 822.731 419.336 823.291 419.609C823.851 419.883 824.268 420.218 824.541 420.615C824.814 421.012 824.951 421.494 824.951 422.061C824.951 422.523 824.854 422.946 824.658 423.33C824.469 423.714 824.193 424.046 823.828 424.326C823.47 424.6 823.04 424.814 822.539 424.971C822.044 425.12 821.488 425.195 820.869 425.195C819.938 425.195 819.15 425.029 818.506 424.697C817.861 424.365 817.373 423.936 817.041 423.408C816.709 422.881 816.543 422.324 816.543 421.738H818.359C818.385 422.233 818.529 422.627 818.789 422.92C819.049 423.206 819.368 423.411 819.746 423.535C820.124 423.652 820.498 423.711 820.869 423.711C821.364 423.711 821.777 423.646 822.109 423.516C822.448 423.385 822.705 423.206 822.881 422.979C823.057 422.751 823.145 422.49 823.145 422.197ZM833.555 423.193V417.754C833.555 417.337 833.47 416.976 833.301 416.67C833.138 416.357 832.891 416.117 832.559 415.947C832.227 415.778 831.816 415.693 831.328 415.693C830.872 415.693 830.472 415.771 830.127 415.928C829.788 416.084 829.521 416.289 829.326 416.543C829.137 416.797 829.043 417.07 829.043 417.363H827.236C827.236 416.986 827.334 416.611 827.529 416.24C827.725 415.869 828.005 415.534 828.369 415.234C828.74 414.928 829.183 414.688 829.697 414.512C830.218 414.329 830.798 414.238 831.436 414.238C832.204 414.238 832.881 414.368 833.467 414.629C834.059 414.889 834.521 415.283 834.854 415.811C835.192 416.331 835.361 416.986 835.361 417.773V422.695C835.361 423.047 835.391 423.421 835.449 423.818C835.514 424.215 835.609 424.557 835.732 424.844V425H833.848C833.757 424.792 833.685 424.515 833.633 424.17C833.581 423.818 833.555 423.493 833.555 423.193ZM833.867 418.594L833.887 419.863H832.061C831.546 419.863 831.087 419.906 830.684 419.99C830.28 420.068 829.941 420.189 829.668 420.352C829.395 420.514 829.186 420.719 829.043 420.967C828.9 421.208 828.828 421.491 828.828 421.816C828.828 422.148 828.903 422.451 829.053 422.725C829.202 422.998 829.427 423.216 829.727 423.379C830.033 423.535 830.407 423.613 830.85 423.613C831.403 423.613 831.891 423.496 832.314 423.262C832.738 423.027 833.073 422.741 833.32 422.402C833.574 422.064 833.711 421.735 833.73 421.416L834.502 422.285C834.456 422.559 834.333 422.861 834.131 423.193C833.929 423.525 833.659 423.844 833.32 424.15C832.988 424.45 832.591 424.701 832.129 424.902C831.673 425.098 831.159 425.195 830.586 425.195C829.87 425.195 829.242 425.055 828.701 424.775C828.167 424.495 827.751 424.121 827.451 423.652C827.158 423.177 827.012 422.646 827.012 422.061C827.012 421.494 827.122 420.996 827.344 420.566C827.565 420.13 827.884 419.769 828.301 419.482C828.717 419.189 829.219 418.968 829.805 418.818C830.391 418.669 831.045 418.594 831.768 418.594H833.867ZM841.26 423.369L844.15 414.434H845.996L842.197 425H840.986L841.26 423.369ZM838.848 414.434L841.826 423.418L842.031 425H840.82L836.992 414.434H838.848ZM851.982 425.195C851.247 425.195 850.579 425.072 849.98 424.824C849.388 424.57 848.877 424.215 848.447 423.76C848.024 423.304 847.699 422.764 847.471 422.139C847.243 421.514 847.129 420.83 847.129 420.088V419.678C847.129 418.818 847.256 418.053 847.51 417.383C847.764 416.706 848.109 416.133 848.545 415.664C848.981 415.195 849.476 414.84 850.029 414.6C850.583 414.359 851.156 414.238 851.748 414.238C852.503 414.238 853.154 414.368 853.701 414.629C854.255 414.889 854.707 415.254 855.059 415.723C855.41 416.185 855.671 416.732 855.84 417.363C856.009 417.988 856.094 418.672 856.094 419.414V420.225H848.203V418.75H854.287V418.613C854.261 418.145 854.163 417.689 853.994 417.246C853.831 416.803 853.571 416.439 853.213 416.152C852.855 415.866 852.367 415.723 851.748 415.723C851.338 415.723 850.96 415.811 850.615 415.986C850.27 416.156 849.974 416.41 849.727 416.748C849.479 417.087 849.287 417.5 849.15 417.988C849.014 418.477 848.945 419.04 848.945 419.678V420.088C848.945 420.589 849.014 421.061 849.15 421.504C849.294 421.94 849.499 422.324 849.766 422.656C850.039 422.988 850.368 423.249 850.752 423.438C851.143 423.626 851.585 423.721 852.08 423.721C852.718 423.721 853.258 423.59 853.701 423.33C854.144 423.07 854.531 422.721 854.863 422.285L855.957 423.154C855.729 423.499 855.439 423.828 855.088 424.141C854.736 424.453 854.303 424.707 853.789 424.902C853.281 425.098 852.679 425.195 851.982 425.195ZM864.863 422.949V410H866.68V425H865.02L864.863 422.949ZM857.754 419.834V419.629C857.754 418.822 857.852 418.089 858.047 417.432C858.249 416.768 858.532 416.198 858.896 415.723C859.268 415.247 859.707 414.883 860.215 414.629C860.729 414.368 861.302 414.238 861.934 414.238C862.598 414.238 863.177 414.355 863.672 414.59C864.173 414.818 864.596 415.153 864.941 415.596C865.293 416.032 865.57 416.559 865.771 417.178C865.973 417.796 866.113 418.496 866.191 419.277V420.176C866.12 420.951 865.98 421.647 865.771 422.266C865.57 422.884 865.293 423.411 864.941 423.848C864.596 424.284 864.173 424.619 863.672 424.854C863.171 425.081 862.585 425.195 861.914 425.195C861.296 425.195 860.729 425.062 860.215 424.795C859.707 424.528 859.268 424.154 858.896 423.672C858.532 423.19 858.249 422.624 858.047 421.973C857.852 421.315 857.754 420.602 857.754 419.834ZM859.57 419.629V419.834C859.57 420.361 859.622 420.856 859.727 421.318C859.837 421.781 860.007 422.188 860.234 422.539C860.462 422.891 860.752 423.167 861.104 423.369C861.455 423.564 861.875 423.662 862.363 423.662C862.962 423.662 863.454 423.535 863.838 423.281C864.229 423.027 864.541 422.692 864.775 422.275C865.01 421.859 865.192 421.406 865.322 420.918V418.564C865.244 418.206 865.13 417.861 864.98 417.529C864.837 417.191 864.648 416.891 864.414 416.631C864.186 416.364 863.903 416.152 863.564 415.996C863.232 415.84 862.839 415.762 862.383 415.762C861.888 415.762 861.462 415.866 861.104 416.074C860.752 416.276 860.462 416.556 860.234 416.914C860.007 417.266 859.837 417.676 859.727 418.145C859.622 418.607 859.57 419.102 859.57 419.629ZM876.416 410V425H874.6V410H876.416ZM881.279 414.434V425H879.463V414.434H881.279ZM879.326 411.631C879.326 411.338 879.414 411.09 879.59 410.889C879.772 410.687 880.039 410.586 880.391 410.586C880.736 410.586 880.999 410.687 881.182 410.889C881.37 411.09 881.465 411.338 881.465 411.631C881.465 411.911 881.37 412.152 881.182 412.354C880.999 412.549 880.736 412.646 880.391 412.646C880.039 412.646 879.772 412.549 879.59 412.354C879.414 412.152 879.326 411.911 879.326 411.631ZM890.332 422.197C890.332 421.937 890.273 421.696 890.156 421.475C890.046 421.247 889.814 421.042 889.463 420.859C889.118 420.671 888.597 420.508 887.9 420.371C887.314 420.247 886.784 420.101 886.309 419.932C885.84 419.762 885.439 419.557 885.107 419.316C884.782 419.076 884.531 418.792 884.355 418.467C884.18 418.141 884.092 417.76 884.092 417.324C884.092 416.908 884.183 416.514 884.365 416.143C884.554 415.771 884.818 415.443 885.156 415.156C885.501 414.87 885.915 414.645 886.396 414.482C886.878 414.32 887.415 414.238 888.008 414.238C888.854 414.238 889.577 414.388 890.176 414.688C890.775 414.987 891.234 415.387 891.553 415.889C891.872 416.383 892.031 416.934 892.031 417.539H890.225C890.225 417.246 890.137 416.963 889.961 416.689C889.792 416.41 889.541 416.178 889.209 415.996C888.883 415.814 888.483 415.723 888.008 415.723C887.507 415.723 887.1 415.801 886.787 415.957C886.481 416.107 886.257 416.299 886.113 416.533C885.977 416.768 885.908 417.015 885.908 417.275C885.908 417.471 885.941 417.646 886.006 417.803C886.077 417.952 886.201 418.092 886.377 418.223C886.553 418.346 886.8 418.464 887.119 418.574C887.438 418.685 887.845 418.796 888.34 418.906C889.206 419.102 889.919 419.336 890.479 419.609C891.038 419.883 891.455 420.218 891.729 420.615C892.002 421.012 892.139 421.494 892.139 422.061C892.139 422.523 892.041 422.946 891.846 423.33C891.657 423.714 891.38 424.046 891.016 424.326C890.658 424.6 890.228 424.814 889.727 424.971C889.232 425.12 888.675 425.195 888.057 425.195C887.126 425.195 886.338 425.029 885.693 424.697C885.049 424.365 884.561 423.936 884.229 423.408C883.896 422.881 883.73 422.324 883.73 421.738H885.547C885.573 422.233 885.716 422.627 885.977 422.92C886.237 423.206 886.556 423.411 886.934 423.535C887.311 423.652 887.686 423.711 888.057 423.711C888.551 423.711 888.965 423.646 889.297 423.516C889.635 423.385 889.893 423.206 890.068 422.979C890.244 422.751 890.332 422.49 890.332 422.197ZM898.936 414.434V415.82H893.223V414.434H898.936ZM895.156 411.865H896.963V422.383C896.963 422.741 897.018 423.011 897.129 423.193C897.24 423.376 897.383 423.496 897.559 423.555C897.734 423.613 897.923 423.643 898.125 423.643C898.275 423.643 898.431 423.63 898.594 423.604C898.763 423.571 898.89 423.545 898.975 423.525L898.984 425C898.841 425.046 898.652 425.088 898.418 425.127C898.19 425.173 897.913 425.195 897.588 425.195C897.145 425.195 896.738 425.107 896.367 424.932C895.996 424.756 895.7 424.463 895.479 424.053C895.264 423.636 895.156 423.076 895.156 422.373V411.865ZM908.984 423.906L911.924 414.434H913.857L909.619 426.631C909.521 426.891 909.391 427.171 909.229 427.471C909.072 427.777 908.87 428.066 908.623 428.34C908.376 428.613 908.076 428.835 907.725 429.004C907.38 429.18 906.966 429.268 906.484 429.268C906.341 429.268 906.159 429.248 905.938 429.209C905.716 429.17 905.56 429.137 905.469 429.111L905.459 427.646C905.511 427.653 905.592 427.66 905.703 427.666C905.82 427.679 905.902 427.686 905.947 427.686C906.357 427.686 906.706 427.63 906.992 427.52C907.279 427.415 907.52 427.236 907.715 426.982C907.917 426.735 908.089 426.393 908.232 425.957L908.984 423.906ZM906.826 414.434L909.57 422.637L910.039 424.541L908.74 425.205L904.854 414.434H906.826ZM919.736 425.195C919.001 425.195 918.333 425.072 917.734 424.824C917.142 424.57 916.631 424.215 916.201 423.76C915.778 423.304 915.452 422.764 915.225 422.139C914.997 421.514 914.883 420.83 914.883 420.088V419.678C914.883 418.818 915.01 418.053 915.264 417.383C915.518 416.706 915.863 416.133 916.299 415.664C916.735 415.195 917.23 414.84 917.783 414.6C918.337 414.359 918.91 414.238 919.502 414.238C920.257 414.238 920.908 414.368 921.455 414.629C922.008 414.889 922.461 415.254 922.812 415.723C923.164 416.185 923.424 416.732 923.594 417.363C923.763 417.988 923.848 418.672 923.848 419.414V420.225H915.957V418.75H922.041V418.613C922.015 418.145 921.917 417.689 921.748 417.246C921.585 416.803 921.325 416.439 920.967 416.152C920.609 415.866 920.12 415.723 919.502 415.723C919.092 415.723 918.714 415.811 918.369 415.986C918.024 416.156 917.728 416.41 917.48 416.748C917.233 417.087 917.041 417.5 916.904 417.988C916.768 418.477 916.699 419.04 916.699 419.678V420.088C916.699 420.589 916.768 421.061 916.904 421.504C917.048 421.94 917.253 422.324 917.52 422.656C917.793 422.988 918.122 423.249 918.506 423.438C918.896 423.626 919.339 423.721 919.834 423.721C920.472 423.721 921.012 423.59 921.455 423.33C921.898 423.07 922.285 422.721 922.617 422.285L923.711 423.154C923.483 423.499 923.193 423.828 922.842 424.141C922.49 424.453 922.057 424.707 921.543 424.902C921.035 425.098 920.433 425.195 919.736 425.195ZM930.381 414.434V415.82H924.668V414.434H930.381ZM926.602 411.865H928.408V422.383C928.408 422.741 928.464 423.011 928.574 423.193C928.685 423.376 928.828 423.496 929.004 423.555C929.18 423.613 929.368 423.643 929.57 423.643C929.72 423.643 929.876 423.63 930.039 423.604C930.208 423.571 930.335 423.545 930.42 423.525L930.43 425C930.286 425.046 930.098 425.088 929.863 425.127C929.635 425.173 929.359 425.195 929.033 425.195C928.59 425.195 928.184 425.107 927.812 424.932C927.441 424.756 927.145 424.463 926.924 424.053C926.709 423.636 926.602 423.076 926.602 422.373V411.865ZM932.529 424.043C932.529 423.737 932.624 423.48 932.812 423.271C933.008 423.057 933.288 422.949 933.652 422.949C934.017 422.949 934.294 423.057 934.482 423.271C934.678 423.48 934.775 423.737 934.775 424.043C934.775 424.342 934.678 424.596 934.482 424.805C934.294 425.013 934.017 425.117 933.652 425.117C933.288 425.117 933.008 425.013 932.812 424.805C932.624 424.596 932.529 424.342 932.529 424.043Z" fill="#2B2A29"/>
<defs>
<linearGradient id="paint0_linear_734_23945" x1="731.594" y1="68.7391" x2="734.001" y2="481.381" gradientUnits="userSpaceOnUse">
<stop stop-color="#F2F2F2"/>
<stop offset="1" stop-color="#EFEFEF"/>
</linearGradient>
<clipPath id="clip0_734_23945">
<rect width="300" height="300" fill="white" transform="translate(570 80)"/>
</clipPath>
</defs>
</svg>
