<svg width="195" height="66" viewBox="0 0 195 66" fill="none" xmlns="http://www.w3.org/2000/svg">
<g id="Group">
<g id="Group_2">
<g id="Group_3">
<path id="Vector" d="M179.051 0.597866H15.9577C15.3632 0.597866 14.7758 0.597866 14.1829 0.6011C13.6866 0.604333 13.1942 0.613726 12.6931 0.621631C11.6045 0.634406 10.5184 0.72991 9.44435 0.907313C8.3718 1.08858 7.33285 1.43031 6.36263 1.92096C5.39361 2.41576 4.50818 3.0587 3.73847 3.82646C2.96472 4.59206 2.31974 5.47699 1.82833 6.44722C1.33557 7.41552 0.993885 8.45315 0.815081 9.52426C0.634578 10.594 0.537447 11.6761 0.524561 12.7608C0.509516 13.2565 0.507928 13.7538 0.5 14.2495V51.6176C0.507928 52.1196 0.509516 52.6059 0.524561 53.108C0.537451 54.1927 0.634582 55.2747 0.815081 56.3444C0.993391 57.4161 1.3351 58.4544 1.82833 59.423C2.31952 60.3901 2.96459 61.2715 3.73847 62.0328C4.50526 62.804 5.39126 63.4474 6.36263 63.9384C7.33284 64.4303 8.37168 64.7741 9.44435 64.9582C10.5186 65.1341 11.6045 65.2297 12.6931 65.244C13.1942 65.255 13.6866 65.2613 14.1829 65.2613C14.7758 65.2645 15.3632 65.2645 15.9577 65.2645H179.051C179.634 65.2645 180.226 65.2645 180.808 65.2613C181.302 65.2613 181.809 65.255 182.303 65.244C183.39 65.2304 184.473 65.1349 185.545 64.9582C186.622 64.7728 187.664 64.4291 188.639 63.9384C189.61 63.4471 190.495 62.8037 191.261 62.0328C192.033 61.2685 192.679 60.3878 193.176 59.423C193.666 58.4537 194.004 57.4155 194.18 56.3444C194.361 55.2746 194.462 54.1928 194.481 53.108C194.487 52.6059 194.487 52.1196 194.487 51.6176C194.5 51.0303 194.5 50.4462 194.5 49.8493V16.0146C194.5 15.4226 194.5 14.8353 194.487 14.2495C194.487 13.7538 194.487 13.2565 194.481 12.7608C194.462 11.6759 194.361 10.5941 194.18 9.52419C194.004 8.4537 193.666 7.41616 193.176 6.44716C192.176 4.50243 190.589 2.91944 188.639 1.92082C187.664 1.43137 186.621 1.08972 185.545 0.907167C184.474 0.728983 183.39 0.633446 182.303 0.621405C181.809 0.613516 181.302 0.604042 180.808 0.60089C180.226 0.597656 179.634 0.597656 179.051 0.597656V0.597866Z" fill="black"/>
<path id="Vector_2" d="M14.1908 63.8492C13.6968 63.8492 13.2148 63.8429 12.7248 63.8319C11.7095 63.8187 10.6967 63.7306 9.6945 63.5682C8.76002 63.4077 7.85476 63.1092 7.00858 62.6825C6.17016 62.2592 5.40546 61.7043 4.74376 61.0389C4.07249 60.3814 3.51362 59.6188 3.0893 58.7813C2.66032 57.9383 2.36343 57.0348 2.20899 56.1021C2.04221 55.1 1.95197 54.0867 1.93906 53.0709C1.92878 52.7299 1.91533 51.5947 1.91533 51.5947V14.2488C1.91533 14.2488 1.92966 13.131 1.93914 12.8026C1.9515 11.7885 2.04122 10.7767 2.2075 9.77613C2.36222 8.84092 2.65934 7.93478 3.08856 7.08907C3.51131 6.25214 4.06708 5.48894 4.73431 4.82905C5.40079 4.16289 6.16794 3.60511 7.00779 3.17606C7.85202 2.75069 8.75557 2.45425 9.68816 2.29669C10.6936 2.1327 11.71 2.04405 12.7287 2.03146L14.1916 2.01172H180.801L182.281 2.03225C183.29 2.04421 184.297 2.13208 185.294 2.2951C186.236 2.45464 187.149 2.75315 188.003 3.18079C189.685 4.04546 191.054 5.41345 191.918 7.09301C192.34 7.93288 192.633 8.83164 192.785 9.75877C192.954 10.7676 193.048 11.7873 193.067 12.8098C193.072 13.2676 193.072 13.7594 193.072 14.2488C193.085 14.8551 193.085 15.4321 193.085 16.0139V49.8485C193.085 50.4359 193.085 51.009 193.072 51.5868C193.072 52.1125 193.072 52.5941 193.066 53.0898C193.047 54.094 192.954 55.0955 192.789 56.0863C192.637 57.0257 192.342 57.9363 191.913 58.7861C191.486 59.6145 190.93 60.3706 190.267 61.0263C189.604 61.6953 188.838 62.2535 187.998 62.6794C187.146 63.1094 186.235 63.409 185.294 63.5682C184.292 63.7314 183.279 63.8196 182.263 63.8319C181.788 63.8429 181.291 63.8492 180.808 63.8492L179.051 63.8524L14.1908 63.8492Z" fill="white"/>
</g>
<g id="&#60;Group&#62;">
<g id="&#60;Group&#62;_2">
<g id="&#60;Group&#62;_3">
<path id="&#60;Path&#62;" d="M41.0248 32.7531C41.0429 31.3499 41.4167 29.9741 42.1113 28.7536C42.8059 27.5332 43.7989 26.5078 44.9977 25.7728C44.2361 24.6882 43.2314 23.7956 42.0634 23.1659C40.8954 22.5362 39.5962 22.1868 38.269 22.1454C35.438 21.8491 32.6935 23.8347 31.2508 23.8347C29.7803 23.8347 27.5592 22.1748 25.1673 22.2239C23.6202 22.2737 22.1125 22.7223 20.7909 23.526C19.4694 24.3297 18.3792 25.4611 17.6265 26.8099C14.3661 32.4391 16.7981 40.7122 19.9213 45.2625C21.484 47.4906 23.3103 49.9795 25.6999 49.8913C28.0384 49.7945 28.9117 48.4043 31.7344 48.4043C34.5309 48.4043 35.3502 49.8913 37.7884 49.8351C40.2976 49.7945 41.8786 47.5971 43.3864 45.3479C44.5092 43.7603 45.3731 42.0056 45.9463 40.1489C44.4885 39.534 43.2444 38.5048 42.3693 37.1897C41.4941 35.8745 41.0265 34.3315 41.0248 32.7531Z" fill="black"/>
<path id="&#60;Path&#62;_2" d="M36.4196 19.1525C37.7878 17.5147 38.4618 15.4096 38.2986 13.2842C36.2084 13.5031 34.2776 14.4993 32.891 16.0743C32.213 16.8437 31.6938 17.7388 31.3629 18.7084C31.0321 19.6781 30.8961 20.7032 30.9628 21.7253C32.0083 21.736 33.0426 21.5101 33.9878 21.0644C34.933 20.6188 35.7645 19.965 36.4196 19.1525Z" fill="black"/>
</g>
</g>
<g id="Group_4">
<path id="Vector_3" d="M69.0799 44.4747H61.406L59.5632 49.901H56.3129L63.5814 29.8252H66.9583L74.2269 49.901H70.9211L69.0799 44.4747ZM62.2008 41.9708H68.2836L65.285 33.1643H65.201L62.2008 41.9708Z" fill="black"/>
<path id="Vector_4" d="M89.9244 42.5815C89.9244 47.13 87.4831 50.0523 83.7989 50.0523C82.8657 50.1009 81.9375 49.8866 81.1208 49.4337C80.304 48.9808 79.6317 48.3077 79.1807 47.4915H79.111V54.7412H76.0982V35.2623H79.0144V37.6968H79.0698C79.5415 36.8844 80.2252 36.2148 81.0482 35.7592C81.8712 35.3035 82.8026 35.0789 83.7435 35.1091C87.4688 35.1092 89.9244 38.0457 89.9244 42.5815ZM86.8276 42.5815C86.8276 39.6182 85.2919 37.6699 82.9487 37.6699C80.6468 37.6699 79.0984 39.6592 79.0984 42.5815C79.0984 45.5307 80.6468 47.5057 82.9487 47.5057C85.2919 47.5057 86.8275 45.5717 86.8275 42.5815H86.8276Z" fill="black"/>
<path id="Vector_5" d="M106.08 42.5815C106.08 47.13 103.638 50.0523 99.954 50.0523C99.0207 50.1009 98.0926 49.8866 97.2759 49.4337C96.4591 48.9808 95.7868 48.3077 95.3358 47.4915H95.2661V54.7412H92.2532V35.2623H95.1695V37.6968H95.2249C95.6966 36.8844 96.3803 36.2148 97.2033 35.7592C98.0263 35.3035 98.9577 35.0789 99.8985 35.1091C103.624 35.1092 106.08 38.0457 106.08 42.5815ZM102.983 42.5815C102.983 39.6182 101.447 37.6699 99.1038 37.6699C96.8018 37.6699 95.2535 39.6592 95.2535 42.5815C95.2535 45.5307 96.8018 47.5057 99.1038 47.5057C101.447 47.5057 102.983 45.5717 102.983 42.5815Z" fill="black"/>
<path id="Vector_6" d="M116.756 44.3062C116.979 46.297 118.918 47.6041 121.569 47.6041C124.108 47.6041 125.935 46.2969 125.935 44.5018C125.935 42.9436 124.833 42.0106 122.224 41.3711L119.615 40.7444C115.918 39.8539 114.202 38.1299 114.202 35.3323C114.202 31.8685 117.229 29.4893 121.526 29.4893C125.782 29.4893 128.698 31.8685 128.796 35.3323H125.755C125.573 33.3288 123.912 32.1195 121.485 32.1195C119.058 32.1195 117.397 33.3431 117.397 35.1239C117.397 36.5432 118.458 37.3784 121.053 38.0178L123.271 38.5609C127.401 39.535 129.116 41.1896 129.116 44.126C129.116 47.8819 126.117 50.2343 121.345 50.2343C116.881 50.2343 113.866 47.9372 113.672 44.306L116.756 44.3062Z" fill="black"/>
<path id="Vector_7" d="M135.621 31.7988V35.2627H138.413V37.6419H135.621V45.711C135.621 46.9645 136.18 47.5487 137.407 47.5487C137.739 47.5429 138.069 47.5197 138.398 47.4792V49.8442C137.847 49.947 137.286 49.9935 136.725 49.9831C133.753 49.9831 132.594 48.8701 132.594 46.0314V37.6419H130.46V35.2627H132.594V31.7988H135.621Z" fill="black"/>
<path id="Vector_8" d="M140.027 42.5822C140.027 37.9769 142.747 35.083 146.989 35.083C151.244 35.083 153.952 37.9768 153.952 42.5822C153.952 47.2001 151.259 50.0814 146.989 50.0814C142.72 50.0814 140.027 47.2001 140.027 42.5822ZM150.882 42.5822C150.882 39.4231 149.43 37.5585 146.989 37.5585C144.547 37.5585 143.096 39.4373 143.096 42.5822C143.096 45.7539 144.547 47.6043 146.989 47.6043C149.43 47.6043 150.882 45.7539 150.882 42.5822H150.882Z" fill="black"/>
<path id="Vector_9" d="M156.436 35.2622H159.309V37.7534H159.379C159.573 36.9754 160.03 36.2877 160.673 35.8062C161.316 35.3246 162.106 35.0784 162.91 35.109C163.257 35.1078 163.603 35.1454 163.942 35.2211V38.0313C163.503 37.8977 163.046 37.8364 162.588 37.8498C162.15 37.832 161.714 37.909 161.309 38.0753C160.904 38.2417 160.54 38.4934 160.242 38.8134C159.943 39.1333 159.718 39.5138 159.581 39.9287C159.444 40.3437 159.399 40.7833 159.449 41.2173V49.899H156.436L156.436 35.2622Z" fill="black"/>
<path id="Vector_10" d="M177.833 45.6008C177.428 48.2579 174.833 50.0814 171.513 50.0814C167.243 50.0814 164.592 47.2285 164.592 42.6517C164.592 38.0606 167.257 35.083 171.386 35.083C175.447 35.083 178.001 37.8648 178.001 42.3027V43.3321H167.634V43.5137C167.586 44.0523 167.654 44.595 167.832 45.1056C168.011 45.6162 168.296 46.0831 168.67 46.4752C169.043 46.8673 169.496 47.1757 169.998 47.3799C170.5 47.5841 171.04 47.6794 171.582 47.6595C172.294 47.726 173.009 47.5616 173.619 47.1907C174.23 46.8198 174.705 46.2621 174.972 45.6008L177.833 45.6008ZM167.648 41.2323H174.986C175.013 40.748 174.94 40.2633 174.77 39.8087C174.6 39.3541 174.338 38.9393 174 38.5905C173.662 38.2417 173.255 37.9663 172.805 37.7816C172.356 37.597 171.872 37.5071 171.386 37.5175C170.895 37.5146 170.409 37.6086 169.955 37.7941C169.501 37.9796 169.088 38.2529 168.741 38.5983C168.393 38.9436 168.118 39.3542 167.93 39.8063C167.743 40.2584 167.647 40.7431 167.648 41.2324V41.2323Z" fill="black"/>
</g>
</g>
</g>
<g id="&#60;Group&#62;_4">
<g id="Group_5">
<path id="Vector_11" d="M61.824 14.7131C62.4557 14.6679 63.0895 14.7631 63.6798 14.9917C64.2701 15.2204 64.8022 15.5768 65.2376 16.0353C65.673 16.4938 66.001 17.043 66.1978 17.6432C66.3946 18.2435 66.4554 18.8798 66.3757 19.5063C66.3757 22.588 64.7055 24.3595 61.824 24.3595H58.3299V14.7131H61.824ZM59.8323 22.9953H61.6562C62.1075 23.0222 62.5592 22.9484 62.9784 22.7793C63.3975 22.6101 63.7736 22.3499 64.0792 22.0176C64.3847 21.6853 64.6122 21.2892 64.7449 20.8581C64.8776 20.4271 64.9123 19.972 64.8464 19.5259C64.9075 19.0816 64.8693 18.6293 64.7346 18.2014C64.5998 17.7736 64.3718 17.3807 64.0669 17.051C63.762 16.7213 63.3878 16.463 62.971 16.2945C62.5542 16.1259 62.1052 16.0514 61.6562 16.0763H59.8323V22.9953Z" fill="black"/>
<path id="Vector_12" d="M68.0729 20.7166C68.027 20.2382 68.0819 19.7555 68.2341 19.2995C68.3862 18.8435 68.6322 18.4242 68.9564 18.0686C69.2805 17.7129 69.6756 17.4288 70.1164 17.2343C70.5571 17.0399 71.0337 16.9395 71.5156 16.9395C71.9976 16.9395 72.4742 17.0399 72.9149 17.2343C73.3556 17.4288 73.7507 17.7129 74.0749 18.0686C74.399 18.4242 74.6451 18.8435 74.7972 19.2995C74.9493 19.7555 75.0042 20.2382 74.9583 20.7166C75.0051 21.1955 74.9509 21.6788 74.7991 22.1356C74.6474 22.5923 74.4015 23.0124 74.0773 23.3687C73.7531 23.7251 73.3576 24.0098 72.9165 24.2047C72.4753 24.3995 71.9981 24.5002 71.5156 24.5002C71.0331 24.5002 70.5559 24.3995 70.1148 24.2047C69.6736 24.0098 69.2782 23.7251 68.954 23.3687C68.6297 23.0124 68.3839 22.5923 68.2321 22.1356C68.0804 21.6788 68.0262 21.1955 68.0729 20.7166ZM73.4764 20.7166C73.4764 19.1386 72.7656 18.2158 71.518 18.2158C70.2657 18.2158 69.5612 19.1386 69.5612 20.7166C69.5612 22.3072 70.2657 23.2229 71.518 23.2229C72.7656 23.2229 73.4764 22.3009 73.4764 20.7166H73.4764Z" fill="black"/>
<path id="Vector_13" d="M84.1108 24.3598H82.6163L81.1075 18.9983H80.9935L79.4911 24.3598H78.0107L75.9985 17.0801H77.4598L78.7675 22.6349H78.8752L80.3761 17.0801H81.7582L83.2591 22.6349H83.3731L84.6745 17.0801H86.1152L84.1108 24.3598Z" fill="black"/>
<path id="Vector_14" d="M87.8076 17.0793H89.1945V18.2358H89.3022C89.4848 17.8204 89.7929 17.4722 90.1834 17.2398C90.5739 17.0073 91.0274 16.9021 91.4807 16.9388C91.8359 16.9122 92.1925 16.9656 92.5242 17.0951C92.8559 17.2246 93.1542 17.4268 93.3968 17.6868C93.6395 17.9469 93.8204 18.258 93.9261 18.5972C94.0318 18.9364 94.0596 19.295 94.0075 19.6464V24.359H92.5668V20.0072C92.5668 18.8373 92.057 18.2555 90.9915 18.2555C90.7503 18.2443 90.5095 18.2852 90.2857 18.3755C90.0619 18.4658 89.8603 18.6032 89.6947 18.7784C89.5292 18.9537 89.4036 19.1625 89.3265 19.3907C89.2495 19.6188 89.2228 19.8609 89.2483 20.1003V24.3591H87.8076L87.8076 17.0793Z" fill="black"/>
<path id="Vector_15" d="M96.3031 14.2383H97.7438V24.3598H96.3031V14.2383Z" fill="black"/>
<path id="Vector_16" d="M99.7466 20.7167C99.7007 20.2383 99.7557 19.7556 99.9078 19.2996C100.06 18.8435 100.306 18.4242 100.63 18.0686C100.954 17.713 101.35 17.4288 101.79 17.2343C102.231 17.0399 102.708 16.9395 103.19 16.9395C103.672 16.9395 104.148 17.0399 104.589 17.2343C105.03 17.4288 105.425 17.713 105.749 18.0686C106.073 18.4242 106.319 18.8435 106.472 19.2996C106.624 19.7556 106.679 20.2383 106.633 20.7167C106.679 21.1956 106.625 21.679 106.473 22.1357C106.322 22.5925 106.076 23.0125 105.751 23.3689C105.427 23.7252 105.032 24.0099 104.591 24.2048C104.149 24.3996 103.672 24.5003 103.19 24.5003C102.707 24.5003 102.23 24.3996 101.789 24.2048C101.348 24.0099 100.952 23.7252 100.628 23.3689C100.304 23.0125 100.058 22.5925 99.906 22.1357C99.7542 21.679 99.6999 21.1956 99.7466 20.7167ZM105.15 20.7167C105.15 19.1388 104.439 18.216 103.192 18.216C101.939 18.216 101.235 19.1388 101.235 20.7167C101.235 22.3074 101.939 23.2231 103.192 23.2231C104.439 23.223 105.15 22.301 105.15 20.7167H105.15Z" fill="black"/>
<path id="Vector_17" d="M108.149 22.301C108.149 20.9906 109.128 20.2351 110.865 20.1278L112.842 20.0141V19.3858C112.842 18.6169 112.332 18.1827 111.348 18.1827C110.543 18.1827 109.986 18.4772 109.826 18.9919H108.431C108.579 17.7415 109.758 16.9395 111.414 16.9395C113.244 16.9395 114.276 17.848 114.276 19.3858V24.3597H112.89V23.3366H112.776C112.544 23.7036 112.219 24.0028 111.834 24.2036C111.449 24.4044 111.017 24.4997 110.583 24.4796C110.276 24.5114 109.967 24.4788 109.674 24.3839C109.381 24.289 109.111 24.1339 108.881 23.9287C108.652 23.7234 108.469 23.4725 108.343 23.1922C108.216 22.9118 108.151 22.6082 108.149 22.301ZM112.842 21.6789V21.0703L111.059 21.184C110.054 21.2511 109.598 21.5921 109.598 22.2339C109.598 22.889 110.168 23.2703 110.952 23.2703C111.181 23.2935 111.413 23.2704 111.634 23.2023C111.854 23.1343 112.059 23.0227 112.235 22.8742C112.412 22.7258 112.556 22.5434 112.66 22.3381C112.765 22.1327 112.827 21.9086 112.842 21.6789Z" fill="black"/>
<path id="Vector_18" d="M116.17 20.7168C116.17 18.4165 117.356 16.9593 119.2 16.9593C119.657 16.9384 120.109 17.0473 120.506 17.2735C120.902 17.4997 121.226 17.8337 121.439 18.2365H121.547V14.2383H122.987V24.3598H121.607V23.2097H121.493C121.263 23.6098 120.928 23.9396 120.524 24.1635C120.12 24.3874 119.662 24.4968 119.2 24.4798C117.343 24.4799 116.17 23.0226 116.17 20.7168ZM117.658 20.7168C117.658 22.2609 118.388 23.19 119.609 23.19C120.823 23.19 121.574 22.2475 121.574 20.7231C121.574 19.2059 120.815 18.25 119.609 18.25C118.396 18.25 117.658 19.1854 117.658 20.7168H117.658Z" fill="black"/>
<path id="Vector_19" d="M128.948 20.7166C128.902 20.2382 128.957 19.7555 129.109 19.2995C129.261 18.8435 129.507 18.4242 129.832 18.0686C130.156 17.7129 130.551 17.4288 130.991 17.2343C131.432 17.0399 131.909 16.9395 132.391 16.9395C132.873 16.9395 133.349 17.0399 133.79 17.2343C134.231 17.4288 134.626 17.7129 134.95 18.0686C135.274 18.4242 135.52 18.8435 135.672 19.2995C135.824 19.7555 135.879 20.2382 135.833 20.7166C135.88 21.1955 135.826 21.6788 135.674 22.1356C135.523 22.5923 135.277 23.0124 134.952 23.3687C134.628 23.7251 134.233 24.0098 133.792 24.2047C133.35 24.3995 132.873 24.5002 132.391 24.5002C131.908 24.5002 131.431 24.3995 130.99 24.2047C130.549 24.0098 130.153 23.7251 129.829 23.3687C129.505 23.0124 129.259 22.5923 129.107 22.1356C128.956 21.6788 128.901 21.1955 128.948 20.7166ZM134.352 20.7166C134.352 19.1386 133.641 18.2158 132.393 18.2158C131.141 18.2158 130.436 19.1386 130.436 20.7166C130.436 22.3072 131.141 23.2229 132.393 23.2229C133.641 23.2229 134.352 22.3009 134.352 20.7166Z" fill="black"/>
<path id="Vector_20" d="M137.767 17.0793H139.153V18.2358H139.261C139.444 17.8204 139.752 17.4722 140.142 17.2398C140.533 17.0073 140.986 16.9021 141.44 16.9388C141.795 16.9122 142.151 16.9656 142.483 17.0951C142.815 17.2246 143.113 17.4268 143.356 17.6868C143.598 17.9469 143.779 18.258 143.885 18.5972C143.991 18.9364 144.019 19.295 143.966 19.6464V24.359H142.526V20.0072C142.526 18.8373 142.016 18.2555 140.95 18.2555C140.709 18.2443 140.468 18.2852 140.245 18.3755C140.021 18.4658 139.819 18.6032 139.654 18.7784C139.488 18.9537 139.363 19.1625 139.285 19.3907C139.208 19.6188 139.182 19.8609 139.207 20.1003V24.3591H137.767V17.0793Z" fill="black"/>
<path id="Vector_21" d="M152.107 15.2686V17.1141H153.689V18.3243H152.107V22.0676C152.107 22.8301 152.422 23.164 153.14 23.164C153.323 23.1634 153.507 23.1524 153.689 23.1309V24.3276C153.43 24.3737 153.168 24.3983 152.905 24.401C151.303 24.401 150.665 23.8389 150.665 22.4354V18.3242H149.506V17.1141H150.665V15.2686H152.107Z" fill="black"/>
<path id="Vector_22" d="M155.657 14.2383H157.085V18.25H157.199C157.39 17.8307 157.707 17.4806 158.105 17.2472C158.504 17.0138 158.964 16.9086 159.425 16.9459C159.778 16.9267 160.131 16.9855 160.459 17.1182C160.787 17.2508 161.082 17.454 161.322 17.7132C161.562 17.9724 161.742 18.2813 161.849 18.6178C161.955 18.9542 161.986 19.3101 161.939 19.6598V24.3598H160.497V20.0142C160.497 18.8515 159.954 18.2626 158.936 18.2626C158.688 18.2423 158.439 18.2763 158.206 18.362C157.973 18.4478 157.761 18.5833 157.586 18.7591C157.411 18.9349 157.277 19.1467 157.192 19.3797C157.108 19.6128 157.076 19.8614 157.098 20.1082V24.3598H155.657L155.657 14.2383Z" fill="black"/>
<path id="Vector_23" d="M170.339 22.3942C170.144 23.0596 169.72 23.6351 169.141 24.0201C168.563 24.4051 167.867 24.5751 167.176 24.5003C166.695 24.513 166.217 24.4211 165.776 24.2311C165.334 24.0411 164.939 23.7575 164.618 23.4C164.297 23.0425 164.058 22.6197 163.918 22.1608C163.777 21.702 163.738 21.2181 163.804 20.7428C163.74 20.2661 163.779 19.7812 163.92 19.321C164.06 18.8608 164.298 18.436 164.617 18.0753C164.936 17.7147 165.329 17.4267 165.769 17.2307C166.21 17.0348 166.688 16.9355 167.17 16.9396C169.201 16.9396 170.427 18.3234 170.427 20.6094V21.1107H165.272V21.1912C165.249 21.4584 165.283 21.7273 165.37 21.9807C165.458 22.2341 165.598 22.4664 165.781 22.6628C165.964 22.8591 166.186 23.0152 166.433 23.1209C166.68 23.2266 166.947 23.2797 167.216 23.2767C167.56 23.318 167.91 23.2561 168.219 23.099C168.528 22.9418 168.784 22.6965 168.953 22.3942L170.339 22.3942ZM165.272 20.0482H168.959C168.977 19.8039 168.944 19.5584 168.861 19.3277C168.779 19.097 168.648 18.8861 168.479 18.7084C168.31 18.5308 168.105 18.3905 167.878 18.2965C167.652 18.2024 167.408 18.1567 167.162 18.1623C166.913 18.1592 166.665 18.2059 166.435 18.2995C166.204 18.3932 165.994 18.532 165.818 18.7078C165.642 18.8835 165.503 19.0927 165.409 19.3229C165.315 19.5531 165.268 19.7997 165.272 20.0482H165.272Z" fill="black"/>
</g>
</g>
</g>
</svg>
