<svg width="214" height="64" viewBox="0 0 214 64" fill="none" xmlns="http://www.w3.org/2000/svg">
<g id="Badge" clip-path="url(#clip0_380_10793)">
<path id="Vector" d="M205.611 0.597656H8.38889C4.03198 0.597656 0.5 4.12963 0.5 8.48655V55.8199C0.5 60.1768 4.03198 63.7088 8.38889 63.7088H205.611C209.968 63.7088 213.5 60.1768 213.5 55.8199V8.48655C213.5 4.12963 209.968 0.597656 205.611 0.597656Z" fill="white"/>
<path id="Vector_2" d="M205.611 1.85988C207.369 1.85988 209.054 2.55804 210.297 3.80079C211.54 5.04353 212.238 6.72905 212.238 8.48655V55.8199C212.238 57.5774 211.54 59.2629 210.297 60.5057C209.054 61.7484 207.369 62.4466 205.611 62.4466H8.38889C6.63139 62.4466 4.94587 61.7484 3.70313 60.5057C2.46039 59.2629 1.76222 57.5774 1.76222 55.8199V8.48655C1.76222 6.72905 2.46039 5.04353 3.70313 3.80079C4.94587 2.55804 6.63139 1.85988 8.38889 1.85988H205.611ZM205.611 0.597656H8.38889C6.29663 0.597656 4.29006 1.42881 2.8106 2.90826C1.33115 4.38771 0.5 6.39429 0.5 8.48655V55.8199C0.5 57.9122 1.33115 59.9188 2.8106 61.3982C4.29006 62.8777 6.29663 63.7088 8.38889 63.7088H205.611C207.703 63.7088 209.71 62.8777 211.189 61.3982C212.669 59.9188 213.5 57.9122 213.5 55.8199V8.48655C213.5 6.39429 212.669 4.38771 211.189 2.90826C209.71 1.42881 207.703 0.597656 205.611 0.597656Z" fill="black"/>
<path id="Vector_3" d="M75.3182 16.7536C75.3441 17.3322 75.2526 17.91 75.0493 18.4524C74.8459 18.9947 74.5348 19.4902 74.1349 19.9091C73.6866 20.3719 73.1458 20.7348 72.5476 20.974C71.9494 21.2133 71.3075 21.3235 70.6638 21.2976C70.0163 21.312 69.3728 21.1934 68.7731 20.9492C68.1733 20.7049 67.63 20.3402 67.1769 19.8776C66.2575 18.9372 65.7428 17.6743 65.7428 16.3591C65.7428 15.044 66.2575 13.7811 67.1769 12.8407C67.8798 12.1538 68.77 11.6901 69.7356 11.5076C70.7013 11.3251 71.6994 11.4321 72.6044 11.8151C73.1734 12.049 73.6809 12.4107 74.0875 12.8722L73.2513 13.7085C72.938 13.331 72.541 13.0318 72.0918 12.8346C71.6426 12.6374 71.1537 12.5476 70.6638 12.5725C70.0453 12.5767 69.4373 12.7324 68.8929 13.0259C68.3485 13.3194 67.8843 13.7418 67.5409 14.2561C67.1974 14.7705 66.9852 15.3611 66.9227 15.9764C66.8602 16.5917 66.9493 17.213 67.1824 17.7858C67.4154 18.3587 67.7852 18.8658 68.2595 19.2628C68.7338 19.6597 69.298 19.9345 69.903 20.063C70.508 20.1916 71.1352 20.17 71.7299 20.0001C72.3246 19.8303 72.8686 19.5173 73.3144 19.0887C73.7964 18.5603 74.0758 17.8784 74.1033 17.1638H70.6638V16.0278H75.2551C75.291 16.2682 75.3121 16.5106 75.3182 16.7536Z" fill="black" stroke="black" stroke-width="0.411304" stroke-miterlimit="10"/>
<path id="Vector_4" d="M82.5444 12.8092H78.2844V15.8069H82.1658V16.9429H78.2844V19.9407H82.5444V21.1083H77.0538V11.6416H82.5444V12.8092Z" fill="black" stroke="black" stroke-width="0.411304" stroke-miterlimit="10"/>
<path id="Vector_5" d="M87.7196 21.1083H86.5047V12.8092H83.854V11.6416H90.4334V12.8092H87.7196V21.1083Z" fill="black" stroke="black" stroke-width="0.411304" stroke-miterlimit="10"/>
<path id="Vector_6" d="M95.072 21.1083V11.6416H96.2869V21.1083H95.072Z" fill="black" stroke="black" stroke-width="0.411304" stroke-miterlimit="10"/>
<path id="Vector_7" d="M101.683 21.1083H100.468V12.8092H97.8173V11.6416H104.318V12.8092H101.683V21.1083Z" fill="black" stroke="black" stroke-width="0.411304" stroke-miterlimit="10"/>
<path id="Vector_8" d="M116.64 19.8773C116.185 20.3333 115.643 20.6951 115.048 20.942C114.452 21.1888 113.814 21.3159 113.169 21.3159C112.524 21.3159 111.886 21.1888 111.29 20.942C110.695 20.6951 110.154 20.3333 109.698 19.8773C108.806 18.9291 108.309 17.6764 108.309 16.3746C108.309 15.0728 108.806 13.8201 109.698 12.8719C110.144 12.403 110.683 12.0329 111.281 11.7856C111.879 11.5383 112.522 11.4192 113.169 11.4362C113.815 11.4259 114.456 11.548 115.053 11.795C115.65 12.0419 116.19 12.4084 116.64 12.8719C117.094 13.3334 117.451 13.8811 117.689 14.4827C117.927 15.0843 118.043 15.7276 118.029 16.3746C118.049 17.0224 117.937 17.6675 117.698 18.27C117.459 18.8726 117.099 19.4196 116.64 19.8773ZM110.597 19.0884C110.933 19.429 111.334 19.6994 111.775 19.884C112.217 20.0686 112.691 20.1637 113.169 20.1637C113.648 20.1637 114.121 20.0686 114.563 19.884C115.004 19.6994 115.405 19.429 115.741 19.0884C116.422 18.3486 116.8 17.38 116.8 16.3746C116.8 15.3692 116.422 14.4006 115.741 13.6608C115.405 13.3202 115.004 13.0498 114.563 12.8652C114.121 12.6806 113.648 12.5855 113.169 12.5855C112.691 12.5855 112.217 12.6806 111.775 12.8652C111.334 13.0498 110.933 13.3202 110.597 13.6608C109.917 14.4006 109.539 15.3692 109.539 16.3746C109.539 17.38 109.917 18.3486 110.597 19.0884Z" fill="black" stroke="black" stroke-width="0.411304" stroke-miterlimit="10"/>
<path id="Vector_9" d="M119.748 21.1083V11.6416H121.216L125.823 19.0098V17.1796V11.6416H127.038V21.1083H125.776L120.963 13.3929V15.2074V21.1083H119.748Z" fill="black" stroke="black" stroke-width="0.411304" stroke-miterlimit="10"/>
<path id="Vector_10" d="M108.01 34.9147C106.68 34.9178 105.382 35.315 104.278 36.0562C103.175 36.7973 102.316 37.8491 101.81 39.0784C101.304 40.3078 101.174 41.6595 101.436 42.9627C101.699 44.2659 102.342 45.462 103.284 46.3998C104.226 47.3376 105.425 47.9749 106.73 48.2312C108.034 48.4875 109.385 48.3512 110.612 47.8396C111.839 47.328 112.887 46.4641 113.623 45.357C114.359 44.25 114.75 42.9496 114.747 41.6202C114.76 40.7334 114.594 39.8531 114.26 39.0316C113.925 38.2102 113.429 37.4644 112.8 36.8388C112.172 36.2131 111.424 35.7203 110.601 35.3898C109.778 35.0592 108.897 34.8976 108.01 34.9147ZM108.01 45.6909C107.195 45.7479 106.382 45.5584 105.676 45.1472C104.971 44.7359 104.405 44.1219 104.053 43.3849C103.701 42.6479 103.578 41.822 103.702 41.0146C103.825 40.2072 104.189 39.4556 104.745 38.8576C105.302 38.2596 106.025 37.8427 106.821 37.6612C107.618 37.4797 108.45 37.542 109.211 37.84C109.971 38.138 110.625 38.6578 111.086 39.332C111.547 40.0061 111.794 40.8034 111.796 41.6202C111.822 42.1378 111.743 42.6551 111.566 43.1419C111.388 43.6286 111.115 44.0748 110.762 44.4542C110.409 44.8336 109.983 45.1385 109.511 45.3509C109.038 45.5633 108.528 45.6789 108.01 45.6909ZM93.3049 34.9147C91.9755 34.9178 90.677 35.315 89.5734 36.0562C88.4698 36.7973 87.6108 37.8491 87.105 39.0784C86.5991 40.3078 86.4692 41.6595 86.7316 42.9627C86.994 44.2659 87.637 45.462 88.5792 46.3998C89.5214 47.3376 90.7205 47.9749 92.0249 48.2312C93.3293 48.4875 94.6804 48.3512 95.9074 47.8396C97.1344 47.328 98.1821 46.4641 98.918 45.357C99.654 44.25 100.045 42.9496 100.042 41.6202C100.055 40.7334 99.8892 39.8531 99.5547 39.0316C99.2203 38.2102 98.724 37.4644 98.0954 36.8388C97.4668 36.2131 96.7188 35.7203 95.8957 35.3898C95.0727 35.0592 94.1916 34.8976 93.3049 34.9147ZM93.3049 45.6909C92.4901 45.7479 91.677 45.5584 90.9713 45.1472C90.2656 44.7359 89.6999 44.1219 89.3479 43.3849C88.9958 42.6479 88.8735 41.822 88.9971 41.0146C89.1206 40.2072 89.4841 39.4556 90.0404 38.8576C90.5967 38.2596 91.3201 37.8427 92.1165 37.6612C92.9128 37.4797 93.7454 37.542 94.5059 37.84C95.2664 38.138 95.9197 38.6578 96.3808 39.332C96.8419 40.0061 97.0896 40.8034 97.0916 41.6202C97.117 42.1378 97.0385 42.6551 96.8608 43.1419C96.6831 43.6286 96.4097 44.0748 96.0568 44.4542C95.7038 44.8336 95.2785 45.1385 94.8059 45.3509C94.3333 45.5633 93.8229 45.6789 93.3049 45.6909ZM75.8231 36.9816V39.8216H82.6391C82.5322 41.1592 81.9762 42.4214 81.0613 43.4031C80.3776 44.0997 79.5553 44.645 78.6475 45.0038C77.7397 45.3626 76.7668 45.5268 75.7916 45.4858C73.783 45.4858 71.8567 44.6879 70.4364 43.2676C69.0161 41.8473 68.2182 39.921 68.2182 37.9124C68.2182 35.9039 69.0161 33.9776 70.4364 32.5573C71.8567 31.137 73.783 30.3391 75.7916 30.3391C77.7172 30.3105 79.5765 31.0417 80.9667 32.3744L82.9705 30.3707C82.0301 29.4406 80.9135 28.7075 79.6862 28.2144C78.4589 27.7213 77.1456 27.4781 75.8231 27.4991C74.4205 27.4445 73.0212 27.6736 71.7093 28.1728C70.3973 28.6719 69.1996 29.4307 68.1879 30.4038C67.1762 31.3769 66.3713 32.5442 65.8216 33.8358C65.2718 35.1273 64.9884 36.5166 64.9884 37.9203C64.9884 39.324 65.2718 40.7133 65.8216 42.0049C66.3713 43.2965 67.1762 44.4638 68.1879 45.4369C69.1996 46.4099 70.3973 47.1688 71.7093 47.6679C73.0212 48.167 74.4205 48.3961 75.8231 48.3416C77.1728 48.3955 78.5186 48.1633 79.7721 47.6602C81.0257 47.1572 82.1587 46.3946 83.0967 45.4227C84.7535 43.6026 85.6364 41.2087 85.558 38.7487C85.5637 38.1566 85.5161 37.5652 85.416 36.9816H75.8231ZM147.312 39.1904C146.901 37.9799 146.131 36.9228 145.106 36.1593C144.08 35.3957 142.847 34.9617 141.569 34.9147C140.706 34.913 139.852 35.0883 139.059 35.4299C138.267 35.7714 137.553 36.2719 136.961 36.9003C136.37 37.5288 135.913 38.2719 135.62 39.0838C135.327 39.8956 135.204 40.7589 135.258 41.6202C135.245 43.0605 135.697 44.4665 136.549 45.6282C137.4 46.7899 138.605 47.645 139.982 48.0657C141.36 48.4864 142.836 48.4502 144.192 47.9624C145.547 47.4747 146.708 46.5616 147.502 45.3596L145.214 43.7818C144.873 44.3502 144.389 44.8196 143.811 45.1434C143.232 45.4673 142.579 45.6342 141.916 45.6278C141.232 45.656 140.556 45.4767 139.976 45.1135C139.396 44.7502 138.939 44.22 138.666 43.5924L147.644 39.8847L147.312 39.1904ZM138.161 41.4309C138.129 40.9408 138.195 40.4493 138.356 39.985C138.516 39.5208 138.767 39.0933 139.095 38.7274C139.423 38.3615 139.82 38.0647 140.264 37.8544C140.708 37.644 141.189 37.5243 141.68 37.5022C142.188 37.4712 142.694 37.5909 143.135 37.8463C143.575 38.1017 143.931 38.4815 144.157 38.938L138.161 41.4309ZM130.872 47.9313H133.822V28.2091H130.872V47.9313ZM126.044 36.4136H125.933C125.493 35.9116 124.949 35.5108 124.339 35.2384C123.729 34.9661 123.067 34.8288 122.399 34.8358C120.675 34.9194 119.049 35.6632 117.858 36.913C116.668 38.1629 116.003 39.823 116.003 41.5492C116.003 43.2755 116.668 44.9355 117.858 46.1854C119.049 47.4352 120.675 48.1791 122.399 48.2627C123.068 48.2761 123.732 48.1416 124.343 47.8689C124.954 47.5961 125.497 47.1919 125.933 46.6849H126.044V47.6473C126.044 50.2191 124.671 51.5918 122.462 51.5918C121.724 51.5756 121.008 51.3404 120.404 50.9163C119.8 50.4921 119.336 49.8979 119.07 49.2093L116.514 50.2664C116.987 51.4533 117.808 52.4689 118.87 53.1788C119.932 53.8887 121.185 54.2596 122.462 54.2425C125.918 54.2425 128.773 52.2071 128.773 47.2529V35.3091H126.044V36.4136ZM122.652 45.6909C121.618 45.6264 120.648 45.1704 119.938 44.4155C119.229 43.6607 118.834 42.6639 118.834 41.6281C118.834 40.5924 119.229 39.5955 119.938 38.8407C120.648 38.0859 121.618 37.6298 122.652 37.5653C123.157 37.5871 123.653 37.7104 124.109 37.9276C124.566 38.1449 124.974 38.4519 125.31 38.8302C125.645 39.2085 125.902 39.6505 126.063 40.1298C126.224 40.6091 126.287 41.116 126.249 41.6202C126.292 42.1262 126.232 42.6357 126.072 43.1178C125.913 43.5999 125.657 44.0447 125.321 44.4252C124.985 44.8057 124.575 45.1141 124.116 45.3316C123.657 45.5492 123.159 45.6714 122.652 45.6909ZM161.134 28.2091H154.065V47.9313H157.016V40.4527H161.134C161.974 40.5131 162.819 40.3996 163.614 40.1193C164.409 39.839 165.138 39.398 165.755 38.8236C166.372 38.2492 166.864 37.5539 167.201 36.7809C167.537 36.0079 167.711 35.1739 167.711 34.3309C167.711 33.4878 167.537 32.6538 167.201 31.8809C166.864 31.1079 166.372 30.4125 165.755 29.8382C165.138 29.2638 164.409 28.8227 163.614 28.5424C162.819 28.2622 161.974 28.1487 161.134 28.2091ZM161.134 37.6758H157.016V30.9544H161.197C161.64 30.9544 162.079 31.0418 162.489 31.2115C162.898 31.3811 163.271 31.6298 163.584 31.9434C163.898 32.2569 164.146 32.6291 164.316 33.0388C164.486 33.4484 164.573 33.8875 164.573 34.3309C164.573 34.7743 164.486 35.2133 164.316 35.623C164.146 36.0326 163.898 36.4049 163.584 36.7184C163.271 37.0319 162.898 37.2806 162.489 37.4503C162.079 37.62 161.64 37.7073 161.197 37.7073L161.134 37.6758ZM179.341 34.8515C178.267 34.7853 177.196 35.0354 176.263 35.571C175.329 36.1066 174.572 36.9042 174.087 37.8651L176.69 38.9538C176.954 38.4795 177.348 38.0915 177.827 37.8368C178.306 37.582 178.848 37.4713 179.388 37.518C179.763 37.4743 180.143 37.5055 180.505 37.61C180.867 37.7145 181.205 37.8901 181.499 38.1266C181.793 38.363 182.036 38.6556 182.216 38.9873C182.395 39.3189 182.507 39.683 182.544 40.0582V40.2476C181.595 39.7488 180.539 39.4889 179.467 39.4902C176.659 39.4902 173.787 41.068 173.787 43.9396C173.815 44.5499 173.965 45.1485 174.229 45.6996C174.493 46.2508 174.864 46.7434 175.322 47.1481C175.78 47.5529 176.314 47.8615 176.893 48.0557C177.473 48.2498 178.085 48.3256 178.694 48.2785C179.435 48.3194 180.173 48.1627 180.832 47.8245C181.492 47.4862 182.05 46.9786 182.449 46.3536H182.544V47.9313H185.384V40.3422C185.384 36.8869 182.765 34.8831 179.404 34.8831L179.341 34.8515ZM178.978 45.6593C178.016 45.6593 176.675 45.1702 176.675 43.9869C176.675 42.4091 178.347 41.8727 179.83 41.8727C180.768 41.8495 181.694 42.0784 182.512 42.5353C182.413 43.3922 182.007 44.1841 181.369 44.7643C180.731 45.3445 179.904 45.6737 179.041 45.6909L178.978 45.6593ZM195.734 35.3091L192.358 43.8607H192.263L188.76 35.3091H185.605L190.859 47.2687L187.861 53.9111H190.938L199.016 35.3091H195.734ZM169.228 47.9313H172.162V28.2091H169.228V47.9313Z" fill="black"/>
<path id="Vector_11" d="M16.972 12.4952C16.4521 13.1099 16.1868 13.9002 16.2304 14.7041V49.6046C16.1767 50.4098 16.4433 51.2037 16.972 51.8135L17.0824 51.9397L36.6311 32.391V31.9177L17.0824 12.3848L16.972 12.4952Z" fill="url(#paint0_linear_380_10793)"/>
<path id="Vector_12" d="M43.1 38.9062L36.6311 32.39V31.9166L43.1 25.4004L43.242 25.4951L50.9889 29.8813C53.1978 31.1277 53.1978 33.1788 50.9889 34.4411L43.2735 38.8273L43.1 38.9062Z" fill="url(#paint1_linear_380_10793)"/>
<path id="Vector_13" d="M43.2893 38.8106L36.6311 32.1523L16.972 51.8115C17.4178 52.2083 17.9885 52.4366 18.585 52.4568C19.1816 52.477 19.7664 52.2877 20.238 51.9219L43.2893 38.8106Z" fill="url(#paint2_linear_380_10793)"/>
<path id="Vector_14" d="M43.2893 25.4947L20.238 12.3991C19.7694 12.0282 19.1851 11.8343 18.5878 11.8517C17.9904 11.869 17.4183 12.0963 16.972 12.4938L36.6311 32.1529L43.2893 25.4947Z" fill="url(#paint3_linear_380_10793)"/>
<path id="Vector_15" opacity="0.2" d="M43.1 38.6689L20.238 51.6856C19.7835 52.0286 19.2296 52.2142 18.6602 52.2142C18.0908 52.2142 17.5369 52.0286 17.0824 51.6856L16.972 51.7961L17.0824 51.9223C17.5369 52.2653 18.0908 52.4509 18.6602 52.4509C19.2296 52.4509 19.7835 52.2653 20.238 51.9223L43.2893 38.8109L43.1 38.6689Z" fill="black"/>
<path id="Vector_16" opacity="0.12" d="M16.972 51.5928C16.4652 50.967 16.2168 50.1711 16.2778 49.3682V49.6048C16.2241 50.4101 16.4906 51.204 17.0193 51.8137L17.1298 51.7033L16.972 51.5928Z" fill="black"/>
<path id="Vector_17" opacity="0.12" d="M50.9889 34.2035L43.1 38.6686L43.242 38.8106L50.9889 34.4243C51.4462 34.231 51.8429 33.9179 52.1372 33.5181C52.4315 33.1182 52.6126 32.6464 52.6613 32.1523C52.5627 32.6013 52.3599 33.0209 52.0694 33.3771C51.7789 33.7334 51.4088 34.0164 50.9889 34.2035Z" fill="black"/>
<path id="Vector_18" opacity="0.25" d="M20.238 12.6202L50.9889 30.1019C51.4088 30.289 51.7789 30.572 52.0694 30.9283C52.3599 31.2845 52.5627 31.7041 52.6613 32.1531C52.6126 31.659 52.4315 31.1872 52.1372 30.7873C51.8429 30.3875 51.4462 30.0744 50.9889 29.8811L20.238 12.3993C18.0449 11.137 16.2304 12.1784 16.2304 14.7028V14.9395C16.2778 12.415 18.0449 11.3737 20.238 12.6202Z" fill="white"/>
</g>
<defs>
<linearGradient id="paint0_linear_380_10793" x1="34.8955" y1="14.3412" x2="8.42042" y2="40.8163" gradientUnits="userSpaceOnUse">
<stop stop-color="#00A0FF"/>
<stop offset="0.01" stop-color="#00A1FF"/>
<stop offset="0.26" stop-color="#00BEFF"/>
<stop offset="0.51" stop-color="#00D2FF"/>
<stop offset="0.76" stop-color="#00DFFF"/>
<stop offset="1" stop-color="#00E3FF"/>
</linearGradient>
<linearGradient id="paint1_linear_380_10793" x1="53.8762" y1="32.1533" x2="15.7098" y2="32.1533" gradientUnits="userSpaceOnUse">
<stop stop-color="#FFE000"/>
<stop offset="0.41" stop-color="#FFBD00"/>
<stop offset="0.78" stop-color="#FFA500"/>
<stop offset="1" stop-color="#FF9C00"/>
</linearGradient>
<linearGradient id="paint2_linear_380_10793" x1="39.6762" y1="35.7812" x2="3.76597" y2="71.6757" gradientUnits="userSpaceOnUse">
<stop stop-color="#FF3A44"/>
<stop offset="1" stop-color="#C31162"/>
</linearGradient>
<linearGradient id="paint3_linear_380_10793" x1="12.0178" y1="0.881309" x2="28.048" y2="16.9115" gradientUnits="userSpaceOnUse">
<stop stop-color="#32A071"/>
<stop offset="0.07" stop-color="#2DA771"/>
<stop offset="0.48" stop-color="#15CF74"/>
<stop offset="0.8" stop-color="#06E775"/>
<stop offset="1" stop-color="#00F076"/>
</linearGradient>
<clipPath id="clip0_380_10793">
<rect width="213" height="63.1112" fill="white" transform="translate(0.5 0.597656)"/>
</clipPath>
</defs>
</svg>
