<svg width="70" height="50" viewBox="0 0 70 50" fill="none" xmlns="http://www.w3.org/2000/svg">
<path d="M14.7741 37.9068L14.6818 37.6067H14.1427L14.0394 37.9068H13.716L14.2376 36.4531H14.5919L15.107 37.9068H14.7746H14.7741ZM14.4113 36.7795H14.4093L14.2221 37.3573H14.5939L14.4113 36.7795Z" fill="#B2B2B2"/>
<path d="M16.8772 37.1555C16.8617 37.0502 16.8043 37.0134 16.6746 37.0134C16.5668 37.0134 16.5054 37.0398 16.5054 37.1033C16.5054 37.1669 16.5648 37.1933 16.6816 37.2261C16.8048 37.2613 16.9211 37.2852 17.005 37.318C17.1193 37.3642 17.1831 37.4382 17.1831 37.5783C17.1831 37.8019 17.0179 37.935 16.71 37.935C16.3776 37.935 16.193 37.7795 16.1885 37.5604H16.4834C16.4834 37.6613 16.5693 37.7204 16.708 37.7204C16.8093 37.7204 16.8992 37.6896 16.8992 37.6086C16.8992 37.5321 16.8178 37.5078 16.7255 37.4859C16.5428 37.4422 16.4415 37.4114 16.3647 37.3632C16.2633 37.2996 16.2284 37.2166 16.2284 37.1202C16.2284 36.9384 16.3537 36.8008 16.6836 36.8008C16.996 36.8008 17.1367 36.9235 17.1522 37.1555H16.8772Z" fill="#B2B2B2"/>
<path d="M18.4343 37.9066V37.0307H18.2736V36.8295H18.4343C18.4343 36.5667 18.586 36.4355 18.894 36.4355V36.6656C18.7487 36.6656 18.7158 36.7048 18.7158 36.83H18.9005V37.0312H18.7158V37.9071H18.4343V37.9066Z" fill="#B2B2B2"/>
<path d="M20.6962 37.9067C20.6872 37.8804 20.6807 37.8431 20.6787 37.8103C20.6103 37.8848 20.496 37.935 20.3508 37.935C20.1042 37.935 19.99 37.8148 19.99 37.6394C19.99 37.3284 20.1991 37.2936 20.487 37.2539C20.6303 37.234 20.6697 37.2057 20.6697 37.1312C20.6697 37.0611 20.5993 37.0194 20.487 37.0194C20.3573 37.0194 20.3044 37.083 20.2914 37.1794H20.0254C20.0299 36.9558 20.1532 36.8008 20.5005 36.8008C20.8479 36.8008 20.9627 36.9538 20.9627 37.2256V37.9067H20.6967H20.6962ZM20.6762 37.3791C20.6477 37.4074 20.5968 37.4228 20.4915 37.4427C20.3288 37.4735 20.2759 37.5192 20.2759 37.6111C20.2759 37.6921 20.3243 37.7313 20.4147 37.7313C20.5619 37.7313 20.6722 37.624 20.6742 37.4973L20.6762 37.3791Z" fill="#B2B2B2"/>
<path d="M22.1874 37.9067V36.8296H22.4559V36.9588C22.5507 36.8142 22.6605 36.8013 22.7773 36.8013H22.8148V37.0924C22.7883 37.0879 22.7618 37.0859 22.7354 37.0859C22.5592 37.0859 22.4734 37.1734 22.4734 37.3463V37.9067H22.1874Z" fill="#B2B2B2"/>
<path d="M24.9019 37.5172C24.871 37.7666 24.6663 37.9355 24.4048 37.9355C24.1099 37.9355 23.9077 37.7408 23.9077 37.3552C23.9077 36.9697 24.1104 36.8013 24.4138 36.8013C24.6953 36.8013 24.8869 36.9612 24.9044 37.2151H24.6164C24.601 37.1033 24.5196 37.0378 24.4118 37.0378C24.291 37.0378 24.1917 37.1143 24.1917 37.3488C24.1917 37.5833 24.2905 37.697 24.4028 37.697C24.5151 37.697 24.603 37.6334 24.6139 37.5177H24.9019V37.5172Z" fill="#B2B2B2"/>
<path d="M26.0612 37.3681C26.0612 37.0268 26.2749 36.8013 26.6177 36.8013C26.9606 36.8013 27.1677 37.0248 27.1677 37.3681C27.1677 37.7114 26.9541 37.935 26.6177 37.935C26.2813 37.935 26.0612 37.703 26.0612 37.3681ZM26.8797 37.3681C26.8797 37.149 26.7919 37.0417 26.6177 37.0417C26.4435 37.0417 26.3557 37.149 26.3557 37.3681C26.3557 37.5872 26.4435 37.6965 26.6177 37.6965C26.7919 37.6965 26.8797 37.5872 26.8797 37.3681Z" fill="#B2B2B2"/>
<path d="M31.0086 37.9068L30.9163 37.6067H30.3773L30.274 37.9068H29.9506L30.4721 36.4531H30.8265L31.3415 37.9068H31.0091H31.0086ZM30.6458 36.7795H30.6438L30.4567 37.3573H30.8285L30.6458 36.7795Z" fill="#B2B2B2"/>
<path d="M33.1866 37.7621C33.1472 37.8585 33.0304 37.9152 32.8896 37.9152C32.5333 37.9152 32.41 37.6439 32.41 37.3612C32.41 37.0263 32.6211 36.8008 32.8832 36.8008C33.0194 36.8008 33.1187 36.8534 33.1866 36.9627V36.8291H33.4726V37.9171C33.4726 38.2411 33.235 38.4164 32.9336 38.4164C32.6321 38.4164 32.41 38.2436 32.41 37.9653H32.676C32.676 38.0945 32.7709 38.171 32.9136 38.171C33.0653 38.171 33.1866 38.0811 33.1866 37.939V37.7616V37.7621ZM33.1956 37.3945C33.1956 37.16 33.1142 37.0487 32.9515 37.0487C32.7888 37.0487 32.7075 37.156 32.7075 37.3771C32.7075 37.5699 32.8108 37.6926 32.9515 37.6926C33.0923 37.6926 33.1956 37.5763 33.1956 37.395V37.3945Z" fill="#B2B2B2"/>
<path d="M34.9593 37.4427C34.9683 37.6046 35.0606 37.71 35.2014 37.71C35.2937 37.71 35.3751 37.6638 35.395 37.5897H35.69C35.6241 37.8108 35.4459 37.9355 35.2149 37.9355C34.854 37.9355 34.6739 37.7383 34.6739 37.3488C34.6739 37.0159 34.8655 36.8013 35.1974 36.8013C35.5293 36.8013 35.7055 37.0159 35.7055 37.4427H34.9598H34.9593ZM35.4105 37.2633C35.406 37.1033 35.3007 37.0268 35.1884 37.0268C35.0761 37.0268 34.9793 37.1143 34.9683 37.2633H35.4105Z" fill="#B2B2B2"/>
<path d="M37.597 37.9067V37.2544C37.597 37.0879 37.5485 37.0422 37.4123 37.0422C37.2626 37.0422 37.1902 37.1252 37.1902 37.2896V37.9072H36.9042V36.8301H37.1772V36.9876C37.2431 36.8673 37.3534 36.8013 37.5271 36.8013C37.7337 36.8013 37.8859 36.926 37.8859 37.1605V37.9072H37.598L37.597 37.9067Z" fill="#B2B2B2"/>
<path d="M40.0854 37.5172C40.0544 37.7666 39.8498 37.9355 39.5883 37.9355C39.2933 37.9355 39.0912 37.7408 39.0912 37.3552C39.0912 36.9697 39.2938 36.8013 39.5973 36.8013C39.8788 36.8013 40.0704 36.9612 40.0879 37.2151H39.7999C39.7844 37.1033 39.7031 37.0378 39.5953 37.0378C39.4745 37.0378 39.3752 37.1143 39.3752 37.3488C39.3752 37.5833 39.474 37.697 39.5863 37.697C39.6986 37.697 39.7864 37.6334 39.7974 37.5177H40.0854V37.5172Z" fill="#B2B2B2"/>
<path d="M41.9569 37.7646C41.9175 37.861 41.7987 37.9176 41.6645 37.9176C41.4379 37.9176 41.2682 37.7646 41.2682 37.5281V36.8296H41.5542V37.4864C41.5542 37.62 41.6155 37.6876 41.7368 37.6876C41.8666 37.6876 41.9569 37.6021 41.9569 37.4864V36.8296H42.2429V37.935C42.2429 38.2391 42.0228 38.4164 41.7458 38.4164C41.4289 38.4164 41.2682 38.2435 41.2682 37.9653H41.5342C41.5342 38.0925 41.6091 38.171 41.7588 38.171C41.8621 38.171 41.9569 38.0811 41.9569 37.939V37.7636V37.7646Z" fill="#B2B2B2"/>
<path d="M46.1851 37.9067L46.1786 37.7621C46.1083 37.8848 45.9411 37.9569 45.741 37.9569C45.3362 37.9569 45.0787 37.5823 45.0787 37.1773C45.0787 36.7481 45.3252 36.4043 45.7983 36.4043C46.1462 36.4043 46.4142 36.61 46.4362 36.9011H46.1282C46.1128 36.7655 45.9655 36.6557 45.7983 36.6557C45.5543 36.6557 45.3911 36.844 45.3911 37.1898C45.3911 37.4282 45.5119 37.7 45.7959 37.7C45.996 37.7 46.1522 37.549 46.1522 37.3671H45.8288V37.1242H46.4382V37.9057H46.1851V37.9067Z" fill="#B2B2B2"/>
<path d="M47.6504 37.9067V36.8296H47.9189V36.9588C48.0138 36.8142 48.1236 36.8013 48.2403 36.8013H48.2778V37.0924C48.2513 37.0879 48.2249 37.0859 48.1984 37.0859C48.0222 37.0859 47.9364 37.1734 47.9364 37.3463V37.9067H47.6504Z" fill="#B2B2B2"/>
<path d="M49.3663 37.3681C49.3663 37.0268 49.5799 36.8013 49.9227 36.8013C50.2656 36.8013 50.4727 37.0248 50.4727 37.3681C50.4727 37.7114 50.2591 37.935 49.9227 37.935C49.5864 37.935 49.3663 37.703 49.3663 37.3681ZM50.1848 37.3681C50.1848 37.149 50.0969 37.0417 49.9227 37.0417C49.7486 37.0417 49.6607 37.149 49.6607 37.3681C49.6607 37.5872 49.7486 37.6965 49.9227 37.6965C50.0969 37.6965 50.1848 37.5872 50.1848 37.3681Z" fill="#B2B2B2"/>
<path d="M52.3797 37.9067V37.7557C52.3048 37.8784 52.1925 37.935 52.0433 37.935C51.8277 37.935 51.676 37.7751 51.676 37.5386V36.8291H51.962V37.4948C51.962 37.6305 52.0234 37.6961 52.1446 37.6961C52.2899 37.6961 52.3667 37.5932 52.3667 37.4506V36.8291H52.6507V37.9062H52.3802L52.3797 37.9067Z" fill="#B2B2B2"/>
<path d="M53.8759 38.4169V36.8296H54.1509L54.1529 36.9608C54.2213 36.8515 54.3221 36.8008 54.4544 36.8008C54.7274 36.8008 54.923 37.0154 54.923 37.3786C54.923 37.705 54.7578 37.9345 54.4788 37.9345C54.3446 37.9345 54.2393 37.8799 54.1574 37.7661V38.4164H53.8759V38.4169ZM54.6325 37.3597C54.6325 37.1669 54.5312 37.0333 54.3885 37.0333C54.2458 37.0333 54.1464 37.1605 54.1464 37.3418C54.1464 37.5758 54.2278 37.6921 54.3865 37.6921C54.5537 37.6921 54.633 37.5803 54.633 37.3592L54.6325 37.3597Z" fill="#B2B2B2"/>
<path d="M18.5002 32.2285C13.0148 27.3993 9.76882 22.0277 9.30617 17.0391C10.0987 15.8422 11.8071 13.5504 14.544 11.275C15.6535 10.3524 17.0015 9.37907 18.597 8.46045C15.6924 9.58128 13.3647 10.884 11.576 12.0922C8.44426 14.2072 6.49036 16.3371 5.58304 17.45C6.11256 22.0863 9.82671 27.0794 16.1031 31.5677C18.2457 33.0999 20.6467 34.5327 23.1257 35.7862C21.4987 34.6882 19.9336 33.4899 18.5002 32.2285Z" fill="url(#paint0_linear_228_4072)"/>
<path d="M58.6736 12.0922C56.8849 10.884 54.5572 9.58128 51.6525 8.46045C53.2481 9.37907 54.5961 10.3524 55.7056 11.275C58.4425 13.5504 60.1504 15.8422 60.9434 17.0391C60.4808 22.0277 57.2347 27.3993 51.7494 32.2285C50.3165 33.4899 48.7509 34.6887 47.1239 35.7862C49.6028 34.5327 52.0039 33.0999 54.1464 31.5677C60.4229 27.0794 64.137 22.0863 64.6665 17.4495C63.7592 16.3371 61.8048 14.2072 58.6736 12.0922Z" fill="url(#paint1_linear_228_4072)"/>
<path d="M59.4132 11.0065C54.8611 7.93118 46.9517 4.26562 35.1245 4.26562C23.2973 4.26562 15.3879 7.93118 10.8358 11.0065C7.18107 13.4747 5.05949 15.9554 4.22403 17.0474C4.38823 19.5325 5.38089 22.0956 7.12318 24.6309H7.9277C6.15197 22.1577 5.11489 19.6597 4.90078 17.2491C5.74572 16.1809 7.79744 13.8518 11.2061 11.5495C15.6819 8.52588 23.465 4.92193 35.125 4.92193C46.785 4.92193 54.5681 8.52588 59.0439 11.5495C62.4526 13.8518 64.5048 16.1809 65.3492 17.2491C65.1346 19.6597 64.0981 22.1577 62.3223 24.6309H63.1268C64.8691 22.0956 65.8618 19.5325 66.026 17.0469C65.1905 15.9554 63.0695 13.4752 59.4142 11.0065H59.4132Z" fill="url(#paint2_linear_228_4072)"/>
<path d="M35.1246 45.1246C31.4778 44.4102 27.2671 42.8864 23.237 40.8877H21.7877C26.2599 43.2272 31.0376 45.0103 35.1246 45.7928C39.2115 45.0103 43.9892 43.2272 48.4614 40.8877H47.0121C42.9816 42.8864 38.7713 44.4102 35.1246 45.1246Z" fill="url(#paint3_linear_228_4072)"/>
<path d="M2.55713 16.6522L2.55413 16.5429L2.61802 16.4535C3.22589 15.6024 5.54761 12.5976 9.91106 9.65048C14.6543 6.44647 22.8791 2.62689 35.1245 2.62689C47.3699 2.62689 55.5948 6.44647 60.3385 9.65048C64.703 12.5981 67.0242 15.6029 67.6316 16.4535L67.6954 16.5429L67.6925 16.6522C67.6221 19.2809 66.7262 21.9757 65.0818 24.6312H66.9064C68.7006 21.4282 69.2341 18.5719 69.2341 16.3129V16.0923L69.1163 15.9055C69.0195 15.7525 66.6858 12.1157 61.3072 8.45562C56.3738 5.09859 47.8266 1.09668 35.125 1.09668C22.4235 1.09668 13.8762 5.09859 8.94285 8.45562C3.56427 12.1157 1.23008 15.7525 1.13326 15.9055L1.01547 16.0923V16.3129C1.01547 18.5724 1.54899 21.4282 3.34318 24.6312H5.16781C3.52335 21.9752 2.628 19.2814 2.55713 16.6522Z" fill="url(#paint4_linear_228_4072)"/>
<path d="M35.1844 47.4497L35.125 47.4607L35.0656 47.4497C29.9705 46.5167 23.8079 44.0579 18.4094 40.8877H15.4897C21.576 44.8255 28.9988 47.9336 34.9908 48.9914L35.125 49.0152L35.2593 48.9914C41.2512 47.9336 48.674 44.826 54.7608 40.8877H51.8412C46.4426 44.0579 40.28 46.5167 35.1849 47.4497H35.1844Z" fill="url(#paint5_linear_228_4072)"/>
<path d="M69.5635 15.9972L69.3948 15.7304C69.2965 15.5749 66.9279 11.883 61.4924 8.18463C56.5206 4.80127 47.9099 0.768555 35.124 0.768555C22.3381 0.768555 13.728 4.80176 8.75568 8.18463C3.32071 11.883 0.951578 15.5749 0.853259 15.7304L0.68457 15.9972V16.3122C0.68457 18.5787 1.2116 21.4339 2.96736 24.6305H3.34167C1.54748 21.4274 1.01396 18.5712 1.01396 16.3122V16.0916L1.13175 15.9048C1.22857 15.7517 3.56226 12.115 8.94134 8.4549C13.8747 5.09787 22.422 1.09596 35.1235 1.09596C47.8251 1.09596 56.3723 5.09787 61.3057 8.4549C66.6843 12.115 69.0185 15.7517 69.1148 15.9048L69.2326 16.0916V16.3122C69.2326 18.5717 68.6991 21.4274 66.9049 24.6305H67.2792C69.035 21.4339 69.562 18.5787 69.562 16.3122V15.9972H69.5635Z" fill="url(#paint6_linear_228_4072)"/>
<path d="M69.5635 15.9972L69.3948 15.7304C69.2965 15.5749 66.9279 11.883 61.4924 8.18463C56.5206 4.80127 47.9099 0.768555 35.124 0.768555C22.3381 0.768555 13.728 4.80176 8.75568 8.18463C3.32071 11.883 0.951578 15.5749 0.853259 15.7304L0.68457 15.9972V16.3122C0.68457 18.5787 1.2116 21.4339 2.96736 24.6305H3.34167C1.54748 21.4274 1.01396 18.5712 1.01396 16.3122V16.0916L1.13175 15.9048C1.22857 15.7517 3.56226 12.115 8.94134 8.4549C13.8747 5.09787 22.422 1.09596 35.1235 1.09596C47.8251 1.09596 56.3723 5.09787 61.3057 8.4549C66.6843 12.115 69.0185 15.7517 69.1148 15.9048L69.2326 16.0916V16.3122C69.2326 18.5717 68.6991 21.4274 66.9049 24.6305H67.2792C69.035 21.4339 69.562 18.5787 69.562 16.3122V15.9972H69.5635Z" fill="url(#paint7_linear_228_4072)"/>
<path d="M35.1245 47.4607L35.1839 47.4497C40.279 46.5167 46.4416 44.0579 51.8402 40.8877H51.1894C45.9386 43.9069 40.0405 46.227 35.124 47.1273C30.2076 46.227 24.3095 43.9069 19.0587 40.8877H18.4079C23.8064 44.0579 29.969 46.5167 35.0641 47.4497L35.1235 47.4607H35.1245Z" fill="url(#paint8_linear_228_4072)"/>
<path d="M35.1245 47.4607L35.1839 47.4497C40.279 46.5167 46.4416 44.0579 51.8402 40.8877H51.1894C45.9386 43.9069 40.0405 46.227 35.124 47.1273C30.2076 46.227 24.3095 43.9069 19.0587 40.8877H18.4079C23.8064 44.0579 29.969 46.5167 35.0641 47.4497L35.1235 47.4607H35.1245Z" fill="url(#paint9_linear_228_4072)"/>
<path d="M2.88652 16.6433C3.50438 15.7784 5.78666 12.8322 10.0962 9.92132C14.8015 6.74264 22.9635 2.95437 35.125 2.95437C47.2866 2.95437 55.4485 6.74314 60.1539 9.92132C64.4649 12.8332 66.7472 15.7803 67.3636 16.6428C67.2932 19.273 66.3804 21.9703 64.6995 24.6307H65.0823C66.7267 21.9747 67.6221 19.2805 67.6929 16.6518L67.6959 16.5425L67.6321 16.453C67.0247 15.6025 64.703 12.5977 60.339 9.65005C55.5958 6.44604 47.3709 2.62646 35.125 2.62646C22.8791 2.62646 14.6548 6.44604 9.91155 9.65005C5.5481 12.5972 3.22589 15.6025 2.61851 16.453L2.55463 16.5425L2.55762 16.6518C2.62799 19.2805 3.52384 21.9747 5.1683 24.6307H5.5511C3.8707 21.9708 2.95788 19.2735 2.88701 16.6433H2.88652Z" fill="url(#paint10_linear_228_4072)"/>
<path d="M2.88652 16.6433C3.50438 15.7784 5.78666 12.8322 10.0962 9.92132C14.8015 6.74264 22.9635 2.95437 35.125 2.95437C47.2866 2.95437 55.4485 6.74314 60.1539 9.92132C64.4649 12.8332 66.7472 15.7803 67.3636 16.6428C67.2932 19.273 66.3804 21.9703 64.6995 24.6307H65.0823C66.7267 21.9747 67.6221 19.2805 67.6929 16.6518L67.6959 16.5425L67.6321 16.453C67.0247 15.6025 64.703 12.5977 60.339 9.65005C55.5958 6.44604 47.3709 2.62646 35.125 2.62646C22.8791 2.62646 14.6548 6.44604 9.91155 9.65005C5.5481 12.5972 3.22589 15.6025 2.61851 16.453L2.55463 16.5425L2.55762 16.6518C2.62799 19.2805 3.52384 21.9747 5.1683 24.6307H5.5511C3.8707 21.9708 2.95788 19.2735 2.88701 16.6433H2.88652Z" fill="url(#paint11_linear_228_4072)"/>
<path d="M35.2588 48.9914L35.1245 49.0152L34.9903 48.9914C28.9983 47.9336 21.5755 44.826 15.4893 40.8877H14.8899C21.0879 44.978 28.7623 48.2248 34.9334 49.3143L35.125 49.3481L35.3167 49.3143C41.4878 48.2253 49.1621 44.978 55.3597 40.8877H54.7603C48.674 44.8255 41.2512 47.9336 35.2588 48.9914Z" fill="url(#paint12_linear_228_4072)"/>
<path d="M35.2588 48.9914L35.1245 49.0152L34.9903 48.9914C28.9983 47.9336 21.5755 44.826 15.4893 40.8877H14.8899C21.0879 44.978 28.7623 48.2248 34.9334 49.3143L35.125 49.3481L35.3167 49.3143C41.4878 48.2253 49.1621 44.978 55.3597 40.8877H54.7603C48.674 44.8255 41.2512 47.9336 35.2588 48.9914Z" fill="url(#paint13_linear_228_4072)"/>
<path d="M28.6749 39.5532H29.8712C30.7077 39.5532 31.2227 39.979 31.2227 40.6721C31.2227 41.6026 30.53 42.1904 29.5648 42.1904H28.1454L28.6754 39.5532H28.6749ZM29.5947 41.4973C30.0679 41.4973 30.3214 41.158 30.3214 40.7247C30.3214 40.4197 30.1283 40.2463 29.7689 40.2463H29.4281L29.178 41.4973H29.5942H29.5947Z" fill="url(#paint14_linear_228_4072)"/>
<path d="M31.4573 41.2827C31.4573 41.1922 31.4688 41.1018 31.4877 41.0039L31.7792 39.5532H32.6726L32.3851 40.9885C32.3701 41.0601 32.3621 41.1242 32.3621 41.1808C32.3621 41.4183 32.4909 41.5311 32.718 41.5311C32.9755 41.5311 33.1152 41.384 33.1951 40.9885L33.4826 39.5532H34.3609L34.062 41.0417C33.9028 41.8331 33.4222 42.251 32.6082 42.251C31.889 42.251 31.4573 41.8744 31.4573 41.2827Z" fill="url(#paint15_linear_228_4072)"/>
<path d="M37.0071 41.3502C37.0071 41.934 36.4466 42.1904 35.7694 42.1904H34.2402L34.7702 39.5532H36.1746C36.8029 39.5532 37.1249 39.7833 37.1249 40.1822C37.1249 40.4873 36.9432 40.7098 36.6517 40.834C36.8788 40.9319 37.0076 41.1093 37.0076 41.3502H37.0071ZM36.1212 41.3274C36.1212 41.2106 36.0189 41.154 35.9016 41.154H35.3262L35.2428 41.5683H35.8183C35.9924 41.5683 36.1212 41.4893 36.1212 41.3274ZM35.5233 40.1743L35.444 40.5662H35.8981C36.1027 40.5662 36.1936 40.4798 36.1936 40.3362C36.1936 40.2269 36.1067 40.1743 35.959 40.1743H35.5238H35.5233Z" fill="url(#paint16_linear_228_4072)"/>
<path d="M39.0967 41.7308H38.0861L37.8211 42.1904H36.8783L38.5667 39.5532H39.4451L40.0734 42.1904H39.1835L39.0967 41.7308ZM38.9719 41.0904L38.8432 40.4162L38.4534 41.0904H38.9719Z" fill="url(#paint17_linear_228_4072)"/>
<path d="M40.7477 39.5532H41.641L41.111 42.1904H40.2177L40.7477 39.5532Z" fill="url(#paint18_linear_228_4072)"/>
<path d="M5.25814 35.4099H64.9914C65.1801 35.4099 65.3508 35.3001 65.4286 35.1297L69.3838 26.4726C69.5286 26.1561 69.296 25.7964 68.9461 25.7964H1.30294C0.953584 25.7964 0.721013 26.1561 0.865247 26.4726L4.82045 35.1297C4.89831 35.3006 5.06949 35.4099 5.25764 35.4099H5.25814Z" fill="url(#paint19_linear_228_4072)"/>
<path d="M68.947 26.1784C68.9904 26.1784 69.0149 26.2023 69.0279 26.2222C69.0408 26.242 69.0523 26.2743 69.0343 26.3136L65.0791 34.9702C65.0637 35.0045 65.0292 35.0264 64.9918 35.0264H5.2585C5.22107 35.0264 5.18664 35.0045 5.17067 34.9702L1.21546 26.3136C1.1975 26.2743 1.20897 26.242 1.22195 26.2222C1.23493 26.2023 1.25938 26.1784 1.3028 26.1784H68.9465M68.9465 25.7959H1.3033C0.953945 25.7959 0.721374 26.1556 0.866107 26.4721L4.82131 35.1287C4.89917 35.2996 5.07035 35.4089 5.259 35.4089H64.9923C65.1809 35.4089 65.3516 35.2991 65.4295 35.1287L69.3847 26.4721C69.5294 26.1556 69.2969 25.7959 68.947 25.7959H68.9465Z" fill="url(#paint20_linear_228_4072)"/>
<path d="M68.9466 25.7959H67.5068L63.1144 35.4094H64.9914C65.1801 35.4094 65.3508 35.2996 65.4286 35.1292L69.3838 26.4726C69.5285 26.1561 69.296 25.7964 68.9461 25.7964L68.9466 25.7959Z" fill="url(#paint21_linear_228_4072)"/>
<path d="M68.9468 26.0145C69.0371 26.0145 69.1175 26.0577 69.1664 26.1337C69.2153 26.2093 69.2218 26.2997 69.1844 26.3817L65.2291 35.0383C65.1867 35.1307 65.0939 35.1903 64.9916 35.1903H63.4559L67.6487 26.014H68.9473M68.9473 25.7954H67.5074L63.1151 35.4089H64.9921C65.1807 35.4089 65.3514 35.2991 65.4293 35.1287L69.3845 26.4721C69.5292 26.1556 69.2966 25.7959 68.9468 25.7959L68.9473 25.7954Z" fill="#E83B0B"/>
<path d="M1.30336 25.7959H2.7432L7.1356 35.4094H5.25856C5.06991 35.4094 4.89922 35.2996 4.82137 35.1292L0.866164 26.4726C0.721431 26.1561 0.954003 25.7964 1.30386 25.7964L1.30336 25.7959Z" fill="url(#paint22_linear_228_4072)"/>
<path d="M2.60104 26.015L6.79381 35.1913H5.25814C5.15633 35.1913 5.063 35.1317 5.02058 35.0393L1.06538 26.3826C1.02795 26.3007 1.03443 26.2102 1.08334 26.1347C1.13225 26.0592 1.21211 26.0155 1.30294 26.0155H2.60154M2.74278 25.7969H1.30294C0.953584 25.7969 0.721013 26.1566 0.865247 26.4731L4.82045 35.1297C4.89831 35.3006 5.06949 35.4099 5.25764 35.4099H7.13468L2.74228 25.7964L2.74278 25.7969Z" fill="#E83B0B"/>
<path d="M33.0963 31.8643L34.033 33.5098H32.4035L31.585 32.0526H30.798L30.5065 33.5098H28.9479L30.0499 28.0254H32.4035C33.8124 28.0254 34.6234 28.6757 34.6234 29.7727C34.6234 30.7833 34.0565 31.5354 33.0963 31.8648V31.8643ZM32.1834 29.2476H31.3649L31.0346 30.8538H31.9633C32.6481 30.8538 33.0493 30.5249 33.0493 29.9213C33.0493 29.4592 32.7189 29.2476 32.1834 29.2476Z" fill="url(#paint23_linear_228_4072)"/>
<path d="M37.1657 29.2242L36.9846 30.1488H39.4325L39.2045 31.3084H36.7485L36.5519 32.3115H39.4405L39.1885 33.5103H34.7726L35.8746 28.0259H40.1882L39.9441 29.2247H37.1657V29.2242Z" fill="url(#paint24_linear_228_4072)"/>
<path d="M46.3992 28.0254L45.2972 33.5098H44.0141L42.196 30.5011L41.5901 33.5098H40.0629L41.1649 28.0254H42.448L44.2741 31.0262L44.8725 28.0254H46.3997H46.3992Z" fill="url(#paint25_linear_228_4072)"/>
<path d="M48.43 29.2555H46.7376L46.9896 28.0254H51.925L51.673 29.2555H49.9886L49.1307 33.5098H47.572L48.43 29.2555Z" fill="url(#paint26_linear_228_4072)"/>
<path d="M55.0972 32.4441H52.7515L52.1142 33.5098H50.4692L54.0032 28.0254H55.5379L56.8679 33.5098H55.3173L55.0967 32.4441H55.0972ZM54.8611 31.3004L54.4913 29.5218L53.4367 31.3004H54.8616H54.8611Z" fill="url(#paint27_linear_228_4072)"/>
<path d="M58.419 28.0254H59.9777L59.1277 32.2797H61.7569L61.5048 33.5098H57.3176L58.4195 28.0254H58.419Z" fill="url(#paint28_linear_228_4072)"/>
<path d="M32.4035 28.0627C33.0843 28.0627 33.6427 28.2196 34.0186 28.5167C34.3899 28.8104 34.586 29.2446 34.586 29.7727C34.586 30.7529 34.0385 31.5022 33.0843 31.8296L33.0419 31.844L33.0638 31.8832L33.9686 33.473H32.4255L31.6175 32.0347L31.607 32.0159H30.7671L30.7611 32.0457L30.4756 33.473H28.9933L30.0803 28.0631H32.403M30.9876 30.8916H31.9623C32.6765 30.8916 33.0858 30.5383 33.0858 29.9218C33.0858 29.4632 32.7649 29.2108 32.1824 29.2108H31.3335L31.3275 29.2406L30.9971 30.8468L30.9881 30.8916M32.4035 28.0259H30.0499L28.9479 33.5103H30.5065L30.798 32.0531H31.585L32.4035 33.5103H34.033L33.0963 31.8648C34.0565 31.5359 34.6234 30.7837 34.6234 29.7727C34.6234 28.6757 33.8129 28.0254 32.4035 28.0254V28.0259ZM31.0341 30.8543L31.3644 29.2481H32.1829C32.718 29.2481 33.0488 29.4597 33.0488 29.9218C33.0488 30.5249 32.6476 30.8543 31.9628 30.8543H31.0341Z" fill="url(#paint29_linear_228_4072)"/>
<path d="M40.1427 28.0627L39.9137 29.187H37.1348L37.1288 29.2173L36.9476 30.1419L36.9392 30.1861H39.3871L39.1735 31.2711H36.7176L36.7116 31.3014L36.5149 32.3045L36.5065 32.3487H39.3946L39.1586 33.473H34.8191L35.9061 28.0631H40.1432M40.1892 28.0259H35.8756L34.7737 33.5103H39.1895L39.4415 32.3115H36.5529L36.7495 31.3084H39.2055L39.4336 30.1488H36.9856L37.1667 29.2242H39.9451L40.1892 28.0254V28.0259Z" fill="url(#paint30_linear_228_4072)"/>
<path d="M46.3533 28.0627L45.2663 33.4726H44.0351L42.2279 30.4822L42.178 30.3997L42.159 30.4941L41.5591 33.4726H40.1083L41.1953 28.0627H42.4265L44.2417 31.0456L44.2916 31.1275L44.3106 31.0332L44.903 28.0627H46.3538M46.3992 28.0254H44.872L44.2736 31.0262L42.4475 28.0254H41.1644L40.0624 33.5098H41.5896L42.1955 30.5011L44.0136 33.5098H45.2968L46.3987 28.0254H46.3992Z" fill="url(#paint31_linear_228_4072)"/>
<path d="M51.8791 28.0627L51.6425 29.2183H49.9581L49.9521 29.2481L49.1002 33.4726H47.618L48.4669 29.263L48.4759 29.2183H46.7835L47.0201 28.0627H51.8791ZM51.925 28.0254H46.9896L46.7376 29.2555H48.43L47.572 33.5098H49.1307L49.9886 29.2555H51.673L51.925 28.0254Z" fill="url(#paint32_linear_228_4072)"/>
<path d="M55.5084 28.0627L56.8205 33.4726H55.3477L55.1336 32.4367L55.1276 32.4069H52.73L52.719 32.4253L52.0922 33.4726H50.5371L54.0231 28.0627H55.5079M53.3703 31.3377H54.9065L54.897 31.293L54.5272 29.5144L54.5077 29.42L54.4583 29.5029L53.4038 31.2816L53.3703 31.3377ZM55.5373 28.0254H54.0027L50.4687 33.5098H52.1137L52.751 32.4441H55.0967L55.3172 33.5098H56.8679L55.5378 28.0254H55.5373ZM53.4357 31.3004L54.4903 29.5218L54.8601 31.3004H53.4352H53.4357Z" fill="url(#paint33_linear_228_4072)"/>
<path d="M59.9323 28.0627L59.0913 32.2722L59.0823 32.3169H61.711L61.4744 33.4726H57.363L58.45 28.0627H59.9323ZM59.9777 28.0254H58.419L57.3171 33.5098H61.5044L61.7564 32.2797H59.1272L59.9772 28.0254H59.9777Z" fill="url(#paint34_linear_228_4072)"/>
<path d="M8.1076 31.1829C8.1076 29.2557 9.54795 27.8999 11.5867 27.8999C12.6412 27.8999 13.5071 28.2914 13.9089 28.9969L12.5709 30.0387C12.3348 29.6313 11.9725 29.3963 11.4689 29.3963C10.595 29.3963 9.98115 30.0859 9.98115 31.0652C9.98115 31.7076 10.4298 32.1383 11.1146 32.1383C11.5473 32.1383 11.9645 31.958 12.3423 31.5039L13.4363 32.5457C12.767 33.3605 11.9485 33.6347 10.9334 33.6347C9.22554 33.6347 8.1076 32.6396 8.1076 31.1824V31.1829Z" fill="url(#paint35_linear_228_4072)"/>
<path d="M17.5928 32.5539H15.4912L14.9402 33.5098H12.9803L16.4909 28.0254H18.317L19.6236 33.5098H17.774L17.5928 32.5539ZM17.3333 31.2219L17.0658 29.8194L16.2553 31.2219H17.3338H17.3333Z" fill="url(#paint36_linear_228_4072)"/>
<path d="M24.2995 31.9115L25.2203 33.5098H23.2918L22.5128 32.1311H22.0561L21.7806 33.5098H19.923L21.025 28.0254H23.4964C24.9528 28.0254 25.7872 28.6911 25.7872 29.8274C25.7872 30.8066 25.2362 31.5588 24.2995 31.9115ZM23.2135 29.4513H22.5916L22.3321 30.7361H23.0957C23.6072 30.7361 23.9062 30.4698 23.9062 30.0072C23.9062 29.6157 23.6387 29.4508 23.2135 29.4508V29.4513Z" fill="url(#paint37_linear_228_4072)"/>
<path d="M11.5869 27.9376C12.6375 27.9376 13.4635 28.3202 13.8602 28.9879L12.5811 29.9841C12.3271 29.5697 11.9528 29.36 11.4687 29.36C10.5708 29.36 9.94347 30.0616 9.94347 31.0661C9.94347 31.7304 10.4141 32.1765 11.1143 32.1765C11.5795 32.1765 11.9932 31.9689 12.345 31.559L13.3851 32.5496C12.7782 33.2745 12.0201 33.5984 10.9331 33.5984C10.1077 33.5984 9.40596 33.3664 8.90439 32.9282C8.40731 32.494 8.14479 31.8904 8.14479 31.1834C8.14479 30.2618 8.48716 29.4321 9.10801 28.8463C9.72937 28.2606 10.6092 27.9381 11.5864 27.9381M11.5864 27.9009C9.5477 27.9009 8.10736 29.2562 8.10736 31.1839C8.10736 32.6411 9.2253 33.6362 10.9331 33.6362C11.9488 33.6362 12.7673 33.362 13.436 32.5472L12.342 31.5053C11.9642 31.9599 11.547 32.1398 11.1143 32.1398C10.4296 32.1398 9.9809 31.709 9.9809 31.0666C9.9809 30.0874 10.5948 29.3978 11.4687 29.3978C11.9722 29.3978 12.3346 29.6328 12.5706 30.0402L13.9087 28.9984C13.5074 28.2934 12.6415 27.9014 11.5864 27.9014V27.9009Z" fill="url(#paint38_linear_228_4072)"/>
<path d="M18.2876 28.0631L19.5762 33.4731H17.805L17.6298 32.5475L17.6238 32.5172H15.4693L15.4583 32.536L14.9183 33.4731H13.0483L16.5114 28.0631H18.2876ZM16.19 31.2597H17.3783L17.3698 31.2155L17.1023 29.813L17.0833 29.7141L17.0329 29.801L16.2224 31.2036L16.19 31.2592M18.317 28.0254H16.4909L12.9804 33.5098H14.9403L15.4912 32.5539H17.5929L17.774 33.5098H19.6236L18.317 28.0254ZM16.2548 31.2219L17.0653 29.8194L17.3328 31.2219H16.2543H16.2548Z" fill="url(#paint39_linear_228_4072)"/>
<path d="M23.497 28.0631C24.9288 28.0631 25.7503 28.7065 25.7503 29.8279C25.7503 30.7803 25.2168 31.527 24.287 31.8773L24.2461 31.8927L24.2681 31.9304L25.1569 33.4731H23.3148L22.5462 32.1132L22.5353 32.0944H22.0262L22.0202 32.1242L21.7507 33.4731H19.9695L21.0565 28.0631H23.4975M22.2867 30.7738H23.0957C23.6267 30.7738 23.9437 30.4876 23.9437 30.0077C23.9437 29.6192 23.6911 29.414 23.2135 29.414H22.5612L22.5552 29.4438L22.2957 30.7286L22.2867 30.7733M23.4975 28.0254H21.026L19.9241 33.5098H21.7816L22.0571 32.1311H22.5138L23.2929 33.5098H25.2213L24.3005 31.9115C25.2373 31.5588 25.7883 30.8066 25.7883 29.8274C25.7883 28.6911 24.9538 28.0254 23.4975 28.0254ZM22.3326 30.7361L22.5921 29.4513H23.214C23.6392 29.4513 23.9067 29.6157 23.9067 30.0077C23.9067 30.4698 23.6078 30.7365 23.0962 30.7365H22.3326V30.7361Z" fill="url(#paint40_linear_228_4072)"/>
<path d="M33.7331 20.8551H32.3985L32.0487 21.4622H30.804L33.0329 17.98H34.1922L35.0217 21.4622H33.8474L33.7326 20.8551H33.7331ZM33.5684 20.0095L33.3987 19.1192L32.8841 20.0095H33.5689H33.5684Z" fill="url(#paint41_linear_228_4072)"/>
<path d="M35.0876 21.1884L35.5422 20.3229C35.932 20.547 36.3318 20.6463 36.7216 20.6463C37.0265 20.6463 37.1862 20.5668 37.1862 20.4421C37.1862 20.074 35.5218 20.2881 35.5218 19.2085C35.5218 18.4176 36.1866 17.9004 37.291 17.9004C37.8111 17.9004 38.2757 18.0047 38.6006 18.199L38.1759 19.0545C37.8959 18.8806 37.556 18.7957 37.2162 18.7957C36.8763 18.7957 36.7016 18.9099 36.7016 19.0297C36.7016 19.4127 38.371 19.1688 38.371 20.2434C38.371 21.0194 37.6913 21.5416 36.6018 21.5416C35.9769 21.5416 35.4225 21.3926 35.0876 21.1884Z" fill="url(#paint42_linear_228_4072)"/>
<path d="M40.1957 18.8653L40.0759 19.4625H41.5352L41.3555 20.3478H39.9012L39.6761 21.4622H38.4968L39.1965 17.98H42.0403L41.8601 18.8653H40.1957Z" fill="url(#paint43_linear_228_4072)"/>
<path d="M44.1394 20.8551H42.8049L42.455 21.4622H41.2103L43.4392 17.98H44.5985L45.428 21.4622H44.2537L44.1389 20.8551H44.1394ZM43.9747 20.0095L43.805 19.1192L43.2905 20.0095H43.9752H43.9747Z" fill="url(#paint44_linear_228_4072)"/>
<path d="M48.3975 20.4472L48.9824 21.4622H47.7577L47.2631 20.5868H46.9732L46.798 21.4622H45.6187L46.3184 17.98H47.888C48.8128 17.98 49.3423 18.4028 49.3423 19.1242C49.3423 19.7462 48.9924 20.2236 48.3975 20.4472ZM47.7078 18.8852H47.313L47.1483 19.701H47.6329C47.9578 19.701 48.1475 19.5321 48.1475 19.2384C48.1475 18.9895 47.9773 18.8852 47.7078 18.8852Z" fill="url(#paint45_linear_228_4072)"/>
<path d="M49.5374 19.9846C49.5374 18.7609 50.4522 17.9004 51.7464 17.9004C52.4161 17.9004 52.9661 18.1493 53.2206 18.5969L52.3712 19.2587C52.2215 18.9999 51.9914 18.8508 51.6715 18.8508C51.1165 18.8508 50.7267 19.2885 50.7267 19.9105C50.7267 20.3184 51.0117 20.5922 51.4464 20.5922C51.7214 20.5922 51.9864 20.4779 52.226 20.1893L52.9207 20.851C52.496 21.3682 51.9759 21.5426 51.3311 21.5426C50.2466 21.5426 49.5369 20.9106 49.5369 19.9856L49.5374 19.9846Z" fill="url(#paint46_linear_228_4072)"/>
<path d="M53.1807 19.9846C53.1807 18.7559 54.1005 17.9004 55.3846 17.9004C56.4741 17.9004 57.1589 18.5423 57.1589 19.4574C57.1589 20.6861 56.2391 21.5416 54.9549 21.5416C53.8654 21.5416 53.1807 20.8997 53.1807 19.9846ZM55.9695 19.527C55.9695 19.1241 55.7145 18.8503 55.2848 18.8503C54.7049 18.8503 54.37 19.3427 54.37 19.915C54.37 20.3179 54.625 20.5917 55.0547 20.5917C55.6347 20.5917 55.9695 20.0993 55.9695 19.527Z" fill="url(#paint47_linear_228_4072)"/>
<mask id="mask0_228_4072" style="mask-type:luminance" maskUnits="userSpaceOnUse" x="13" y="8" width="44" height="15">
<path d="M14.6583 15.7715C16.7519 15.3989 19.1819 15.4207 21.7507 15.5618C21.8525 15.5673 21.9793 15.5906 22.0382 15.6801C22.0846 15.7501 22.126 15.8083 22.1759 15.8877C22.2548 16.0134 22.2558 16.1754 22.1954 16.311C21.9633 16.8357 21.7232 17.3424 21.3719 17.7399C21.1703 17.9684 20.8608 18.0544 20.5759 18.1359C19.6032 18.4151 17.9537 18.5239 17.0154 18.4966C16.2254 18.4737 15.5676 18.3783 15.0156 18.195C14.8534 18.1413 14.7506 18.044 14.6762 17.8944C14.4087 17.3588 14.3538 16.7204 14.4402 16.0139C14.4557 15.8853 14.5135 15.7973 14.6588 15.7715M22.6061 15.8371C25.4464 15.4794 28.0366 14.4241 29.9111 15.0173C30.0584 15.064 30.0978 15.2379 29.9975 15.3691C29.2998 16.2787 28.5771 16.9649 27.6284 17.3072C27.1762 17.4706 26.6646 17.5546 26.2394 17.3047C25.1674 17.4095 24.0954 17.5143 23.0228 17.6197C22.8676 17.6351 22.8467 17.5014 22.926 17.3891C23.2514 16.9281 23.5504 16.4492 23.5015 16.0591C23.4615 15.7402 22.8676 15.8589 22.6061 15.8371ZM45.0672 13.3728C47.1354 13.4141 49.1671 13.5293 51.1395 13.7345C51.8013 14.2328 52.0553 14.7217 52.0458 15.2439C52.0423 15.4336 52.0044 15.6289 51.939 15.8316C49.784 15.8157 47.5686 15.8003 45.3472 15.7844C45.3457 15.7491 45.3442 15.7134 45.3422 15.6776C45.3272 15.3959 45.3601 15.1952 45.3886 15.0223C45.3991 14.9582 45.409 14.8981 45.4155 14.8409C45.43 14.7187 45.3576 14.4728 45.2718 14.1787C45.1979 13.9258 45.1131 13.6361 45.0667 13.3728H45.0672ZM36.5544 13.576C39.3642 13.4011 42.1655 13.3207 44.9045 13.3698C44.9514 13.6506 45.0407 13.9566 45.1191 14.2234C45.1999 14.5001 45.2678 14.7321 45.2573 14.8231C45.2508 14.8807 45.2414 14.9373 45.2314 14.9969C45.2014 15.1773 45.167 15.3874 45.183 15.686C45.1845 15.7183 45.186 15.7511 45.1875 15.7834C42.3158 15.763 39.4371 15.7427 36.6702 15.7218C36.6692 15.614 36.6667 15.5072 36.6612 15.4023C36.6482 15.1534 36.6866 15.0019 36.7211 14.8663C36.7395 14.7927 36.7575 14.7237 36.7665 14.6447C36.781 14.5225 36.744 14.4117 36.6961 14.2676C36.6417 14.1037 36.5714 13.893 36.5549 13.5765L36.5544 13.576ZM13.7175 20.2205L13.3457 19.1862C13.3532 19.0361 13.3512 18.9755 13.3831 18.904C13.4016 18.8622 13.4465 18.8205 13.4999 18.7534C13.6212 18.4439 13.7425 18.1344 13.8637 17.8249C14.0379 17.7096 14.2116 17.5938 14.3858 17.4786C14.3304 17.1368 14.2945 16.792 14.2994 16.4427C14.3049 16.0442 14.4257 15.6483 14.7466 15.3929C16.0472 14.3585 18.9913 13.6068 23.4056 13.1085L23.4356 13.0916C26.9052 12.8119 30.9587 12.727 34.4133 12.8258C34.9628 12.8417 35.7439 12.4974 36.1676 12.1437C37.2266 11.2588 38.2383 10.2563 39.4006 9.42656C36.6432 9.33316 33.9716 9.37589 31.4513 9.69584C30.9552 9.75894 30.5285 9.83446 30.0574 10.0163C28.6614 10.5553 27.0794 11.1997 25.6146 11.8928C27.281 11.0084 28.9943 10.1966 30.8319 9.58058C31.2651 9.43551 31.7497 9.3431 32.2014 9.27354C34.7382 8.88055 37.2985 8.76182 39.8743 8.75735C40.5121 8.75635 41.1329 8.79113 41.7683 8.82938C43.6598 8.94315 45.3202 9.27851 46.8164 9.77186C48.8901 10.4555 51.0491 12.0309 52.7859 13.3505C53.2221 13.6818 53.57 13.8488 53.9553 13.9258C54.2642 13.9874 54.6086 14.0172 55.0108 14.0306C55.0992 14.0455 55.0193 14.4663 55.1965 14.5935C55.4805 14.8245 55.8762 14.9746 56.1043 15.2389C56.3603 15.535 56.536 15.851 56.6763 16.1759C56.7361 16.3145 56.7282 16.4576 56.7217 16.6022C56.532 16.4114 56.533 16.2917 56.1767 16.0308C55.9476 15.9737 55.7185 15.9171 55.4899 15.8599C54.386 15.8515 53.2556 15.843 52.1077 15.8346C52.1686 15.6344 52.2035 15.4391 52.207 15.2478C52.217 14.6869 51.958 14.1663 51.2857 13.6456C49.9611 12.0011 48.0267 10.7113 45.9091 10.0203C44.6669 9.61486 43.3399 9.39974 42.0897 9.48022C41.107 9.54332 40.286 9.7803 39.5558 10.2334C38.3361 10.9906 37.1268 12.4552 36.3972 13.5701H36.3947V13.5735L36.3852 13.588H36.3952C36.4131 13.9253 36.487 14.1464 36.5439 14.3183C36.5853 14.4435 36.6173 14.5399 36.6073 14.6273C36.5993 14.6959 36.5828 14.76 36.5654 14.8285C36.5279 14.9751 36.4865 15.1385 36.501 15.4118C36.5065 15.5131 36.509 15.617 36.51 15.7218C35.7239 15.7158 34.9473 15.7099 34.1828 15.7039C34.04 15.7029 34.0156 15.8505 34.0989 15.9687C34.321 16.2842 34.4792 16.6305 34.5481 16.8829C33.9043 16.3915 33.2889 16.2678 32.7319 16.3384C30.9023 16.5709 29.5298 18.894 29.5209 21.8566C29.5209 22.0166 29.5283 22.0275 29.4445 22.1656C29.3691 22.2898 29.2938 22.414 29.2179 22.5382C29.1505 22.649 29.0931 22.6748 28.9629 22.6724C27.2376 22.6401 25.5192 22.6401 23.7939 22.6078C23.7061 22.6063 23.5813 22.5799 23.5045 22.5372C23.3762 22.4657 23.4486 22.497 23.3203 22.4254C20.2809 22.3946 17.0763 22.3315 14.0339 22.2878C14.008 22.2878 13.974 22.344 13.9481 22.344C13.7934 22.342 13.6312 22.3435 13.4765 22.342C13.3851 22.341 13.3457 22.2431 13.3507 22.1368C13.3746 22.174 13.4221 22.1924 13.4869 22.1924C17.8843 22.1875 22.4744 22.3062 26.8533 22.3266C27.2031 22.1835 27.6648 21.9132 27.9882 21.6842C28.3565 21.4233 28.37 21.0095 28.1055 20.614C27.8235 20.1922 27.5799 19.9503 27.1617 19.5488C26.5453 18.9566 25.6984 18.7176 24.859 18.7788C23.8279 18.8538 22.8167 18.901 21.7856 18.976C21.4557 18.9998 21.2821 19.1067 21.0924 19.3799C18.8875 19.3854 16.683 19.3903 14.4781 19.3958C14.4332 19.3089 14.3888 19.2219 14.3439 19.1355C14.2835 19.0182 14.279 18.9795 14.1522 18.9507L13.5783 18.82C13.5408 18.8637 13.5109 18.896 13.4969 18.9278C13.465 18.9993 13.4665 19.0605 13.4595 19.21C13.5828 19.5528 13.6402 19.8867 13.717 20.223L13.7175 20.2205Z" fill="white"/>
</mask>
<g mask="url(#mask0_228_4072)">
<path d="M56.7337 8.75537H13.3443V22.6739H56.7337V8.75537Z" fill="url(#paint48_linear_228_4072)"/>
</g>
<path fill-rule="evenodd" clip-rule="evenodd" d="M13.6137 21.4895L13.8827 21.1134C14.0948 20.8168 14.4117 20.4933 14.6628 20.2166C14.8345 20.0273 14.9448 20.0542 15.1838 20.0512C17.0683 20.0278 18.9529 20.004 20.8374 19.9806C21.1548 19.9767 21.4148 20.0482 21.6878 20.1992C22.1345 20.4471 22.6041 20.7408 23.0548 20.9971C23.3403 21.1596 23.6372 21.2306 23.9666 21.2301C25.2153 21.2277 26.464 21.2252 27.7127 21.2227C27.7466 21.3091 27.7337 21.3851 27.6418 21.4438C27.3519 21.6286 26.996 21.8492 26.8353 21.8472C25.4953 21.8303 24.3958 21.8561 23.0438 21.8407C22.684 21.8368 22.4978 21.8671 22.2163 21.6475C21.8111 21.331 21.4373 21.0289 21.018 20.7065C20.6996 20.462 20.244 20.3652 19.8467 20.3696C18.2686 20.3855 16.709 20.4019 15.1304 20.4178C14.6278 20.4228 14.4567 20.6066 14.1397 20.9385L13.6142 21.4885L13.6137 21.4895Z" fill="url(#paint49_linear_228_4072)"/>
<path fill-rule="evenodd" clip-rule="evenodd" d="M38.1844 12.8793C38.1744 12.7079 38.1644 12.4162 38.1545 12.2448C38.138 12.0173 38.2892 11.9224 38.5432 11.9224C39.1696 11.9214 39.761 11.9721 40.3759 12.0635C40.6109 12.0983 40.6948 12.0978 40.7636 12.2955C40.832 12.4922 40.8605 12.7088 40.8689 12.919C39.7046 12.9438 38.376 13.0179 37.2122 13.0427C37.7307 12.9538 38.0786 12.8713 38.1844 12.8788" fill="white"/>
<path d="M29.9196 21.9984C29.8812 20.881 30.1307 19.6111 30.6203 18.5961C30.8774 18.0635 31.2008 17.6 31.5841 17.2642C31.9708 16.9248 32.418 16.7162 32.9191 16.6968C33.3049 16.6819 33.7211 16.7798 34.1638 17.0172C33.5609 16.8011 32.683 16.513 31.6714 17.3744C31.3036 17.6969 30.9917 18.145 30.7426 18.6612C29.9865 20.2287 29.991 21.2204 29.9201 21.9979" fill="url(#paint50_linear_228_4072)"/>
<path d="M44.3695 9.95137C44.7892 11.0151 45.2269 11.8771 45.2034 13.0784L45.1311 13.0774C45.1495 12.1289 44.7892 11.2585 44.4443 10.4248C44.371 10.247 44.2981 10.0711 44.2297 9.89622L44.1943 9.81772C44.4543 9.86194 44.7677 9.92354 45.0392 9.98863C45.3012 10.0512 45.5603 10.1218 45.8033 10.1983C46.8339 10.5227 47.8186 10.9922 48.7025 11.576C49.5774 12.1538 50.2032 12.6655 50.828 13.4381L50.8824 13.5056L50.7961 13.4967C49.9412 13.4078 49.0733 13.3357 48.1954 13.2801C47.3165 13.2244 47.3659 13.2349 46.4716 13.21C47.9454 13.1594 49.0773 13.2165 50.5446 13.367C49.0159 11.5735 46.527 10.4005 44.37 9.95137M43.5969 9.76953C43.7825 10.2723 43.9138 10.792 44.0141 11.3286C44.1149 11.8691 44.1663 12.4285 44.1549 13.0128L44.0515 13.0118C44.0625 12.433 44.0121 11.878 43.9118 11.342C43.813 10.8129 43.6707 10.3578 43.4876 9.85995C41.1384 9.64682 39.8767 10.1501 38.2582 11.7499C37.6748 12.3262 37.2671 12.8081 36.7365 13.4038C37.1054 12.8578 37.6179 12.2343 38.1929 11.6664C38.6929 11.1721 39.2409 10.719 39.7809 10.395C40.1278 10.1874 40.4966 10.0289 40.8954 9.9151C41.2931 9.80182 41.7213 9.73277 42.1875 9.70395C42.4041 9.69054 42.6297 9.68755 42.8568 9.69302C43.0993 9.69898 43.3439 9.71438 43.5824 9.73724L43.5969 9.76903V9.76953Z" fill="url(#paint51_linear_228_4072)"/>
<path fill-rule="evenodd" clip-rule="evenodd" d="M17.3328 15.9728C17.7022 15.9728 17.9772 16.4393 17.9467 17.0146C17.9163 17.59 17.5919 18.0565 17.222 18.0565C16.8522 18.0565 16.5777 17.59 16.6082 17.0146C16.6386 16.4393 16.963 15.9728 17.3328 15.9728ZM17.4481 15.8506C17.7606 15.8506 18.0181 16.0891 18.1409 16.4418C18.0795 16.2093 17.9722 16.019 17.8359 15.8998C18.1264 16.0006 18.4243 16.2669 18.4653 16.797L18.3784 16.7732L18.1698 16.8974L18.4678 17.0052V17.0137C18.4328 17.7251 18.0865 18.0525 17.6977 18.1474C17.8813 18.0123 18.0336 17.7698 18.1204 17.4717C17.9682 17.8871 17.6548 18.1777 17.3099 18.1777C16.8482 18.1777 16.5049 17.6565 16.5433 17.0141C16.5453 16.9774 16.5488 16.9411 16.5533 16.9053L14.5734 16.874C14.4786 16.7444 14.6762 16.6664 14.8015 16.6644L16.6117 16.6341C16.7519 16.1785 17.0823 15.8511 17.4481 15.8511V15.8506Z" fill="url(#paint52_linear_228_4072)"/>
<path fill-rule="evenodd" clip-rule="evenodd" d="M18.1663 16.9013C19.2199 16.87 20.1901 16.8382 21.2436 16.8069C21.4802 16.7999 21.6688 16.7239 21.7712 16.5669C20.6877 16.5729 19.6042 16.5793 18.5202 16.5853C18.4019 16.6906 18.2841 16.7959 18.1658 16.9008" fill="url(#paint53_linear_228_4072)"/>
<defs>
<linearGradient id="paint0_linear_228_4072" x1="14.3544" y1="2.73357" x2="14.3544" y2="22.0247" gradientUnits="userSpaceOnUse">
<stop stop-color="#9F9FA2"/>
<stop offset="1" stop-color="#0D0D0D"/>
</linearGradient>
<linearGradient id="paint1_linear_228_4072" x1="55.8952" y1="-25.9997" x2="55.8952" y2="22.0247" gradientUnits="userSpaceOnUse">
<stop stop-color="#9F9FA2"/>
<stop offset="1" stop-color="#0D0D0D"/>
</linearGradient>
<linearGradient id="paint2_linear_228_4072" x1="25.7917" y1="2.30963" x2="46.2486" y2="37.9028" gradientUnits="userSpaceOnUse">
<stop stop-color="#FF5912"/>
<stop offset="0.06" stop-color="#FC5711"/>
<stop offset="0.09" stop-color="#F35311"/>
<stop offset="0.13" stop-color="#E34C10"/>
<stop offset="0.16" stop-color="#CE4310"/>
<stop offset="0.18" stop-color="#B1360F"/>
<stop offset="0.41" stop-color="#FF9900"/>
<stop offset="0.56" stop-color="#F87F02"/>
<stop offset="1" stop-color="#E83B0B"/>
</linearGradient>
<linearGradient id="paint3_linear_228_4072" x1="17.8849" y1="11.1628" x2="38.3432" y2="46.758" gradientUnits="userSpaceOnUse">
<stop stop-color="#FF5912"/>
<stop offset="0.06" stop-color="#FC5711"/>
<stop offset="0.09" stop-color="#F35311"/>
<stop offset="0.13" stop-color="#E34C10"/>
<stop offset="0.16" stop-color="#CE4310"/>
<stop offset="0.18" stop-color="#B1360F"/>
<stop offset="0.41" stop-color="#FF9900"/>
<stop offset="0.56" stop-color="#F87F02"/>
<stop offset="1" stop-color="#E83B0B"/>
</linearGradient>
<linearGradient id="paint4_linear_228_4072" x1="29.6941" y1="8.9907" x2="44.6239" y2="34.9675" gradientUnits="userSpaceOnUse">
<stop stop-color="#EEEEFA"/>
<stop offset="0.09" stop-color="#C3C3CF"/>
<stop offset="0.18" stop-color="#A3A3AE"/>
<stop offset="0.26" stop-color="#90909B"/>
<stop offset="0.31" stop-color="#898994"/>
<stop offset="0.32" stop-color="#9898A4"/>
<stop offset="0.34" stop-color="#B3B3BE"/>
<stop offset="0.36" stop-color="#C8C8D4"/>
<stop offset="0.38" stop-color="#D9D9E5"/>
<stop offset="0.42" stop-color="#E5E5F1"/>
<stop offset="0.46" stop-color="#ECECF8"/>
<stop offset="0.59" stop-color="#ECECF8"/>
<stop offset="0.63" stop-color="#C8C8D4"/>
<stop offset="0.68" stop-color="#ACACB8"/>
<stop offset="0.72" stop-color="#9898A4"/>
<stop offset="0.76" stop-color="#8C8C98"/>
<stop offset="0.81" stop-color="#898994"/>
<stop offset="0.83" stop-color="#9A9AA4"/>
<stop offset="0.86" stop-color="#A6A6AF"/>
<stop offset="0.89" stop-color="#ADADB5"/>
<stop offset="1" stop-color="#AFAFB7"/>
</linearGradient>
<linearGradient id="paint5_linear_228_4072" x1="21.7672" y1="17.856" x2="36.6975" y2="43.8338" gradientUnits="userSpaceOnUse">
<stop stop-color="#EEEEFA"/>
<stop offset="0.09" stop-color="#C3C3CF"/>
<stop offset="0.18" stop-color="#A3A3AE"/>
<stop offset="0.26" stop-color="#90909B"/>
<stop offset="0.31" stop-color="#898994"/>
<stop offset="0.32" stop-color="#9898A4"/>
<stop offset="0.34" stop-color="#B3B3BE"/>
<stop offset="0.36" stop-color="#C8C8D4"/>
<stop offset="0.38" stop-color="#D9D9E5"/>
<stop offset="0.42" stop-color="#E5E5F1"/>
<stop offset="0.46" stop-color="#ECECF8"/>
<stop offset="0.59" stop-color="#ECECF8"/>
<stop offset="0.63" stop-color="#C8C8D4"/>
<stop offset="0.68" stop-color="#ACACB8"/>
<stop offset="0.72" stop-color="#9898A4"/>
<stop offset="0.76" stop-color="#8C8C98"/>
<stop offset="0.81" stop-color="#898994"/>
<stop offset="0.83" stop-color="#9A9AA4"/>
<stop offset="0.86" stop-color="#A6A6AF"/>
<stop offset="0.89" stop-color="#ADADB5"/>
<stop offset="1" stop-color="#AFAFB7"/>
</linearGradient>
<linearGradient id="paint6_linear_228_4072" x1="29.6975" y1="8.98849" x2="44.6274" y2="34.9653" gradientUnits="userSpaceOnUse">
<stop stop-color="#EEEEFA"/>
<stop offset="0.09" stop-color="#C3C3CF"/>
<stop offset="0.18" stop-color="#A3A3AE"/>
<stop offset="0.26" stop-color="#90909B"/>
<stop offset="0.31" stop-color="#898994"/>
<stop offset="0.32" stop-color="#9898A4"/>
<stop offset="0.34" stop-color="#B3B3BE"/>
<stop offset="0.36" stop-color="#C8C8D4"/>
<stop offset="0.38" stop-color="#D9D9E5"/>
<stop offset="0.42" stop-color="#E5E5F1"/>
<stop offset="0.46" stop-color="#ECECF8"/>
<stop offset="0.59" stop-color="#ECECF8"/>
<stop offset="0.63" stop-color="#C8C8D4"/>
<stop offset="0.68" stop-color="#ACACB8"/>
<stop offset="0.72" stop-color="#9898A4"/>
<stop offset="0.76" stop-color="#8C8C98"/>
<stop offset="0.81" stop-color="#898994"/>
<stop offset="0.83" stop-color="#9A9AA4"/>
<stop offset="0.86" stop-color="#A6A6AF"/>
<stop offset="0.89" stop-color="#ADADB5"/>
<stop offset="1" stop-color="#AFAFB7"/>
</linearGradient>
<linearGradient id="paint7_linear_228_4072" x1="0.685568" y1="12.6998" x2="69.5635" y2="12.6998" gradientUnits="userSpaceOnUse">
<stop stop-color="#AFAFB7"/>
<stop offset="0.1" stop-color="#C7C7D1"/>
<stop offset="0.23" stop-color="#E3E3EE"/>
<stop offset="0.3" stop-color="#EEEEFA"/>
<stop offset="0.37" stop-color="#E7E7F2"/>
<stop offset="1" stop-color="#AFAFB7"/>
</linearGradient>
<linearGradient id="paint8_linear_228_4072" x1="21.7667" y1="17.856" x2="36.6975" y2="43.8343" gradientUnits="userSpaceOnUse">
<stop stop-color="#EEEEFA"/>
<stop offset="0.09" stop-color="#C3C3CF"/>
<stop offset="0.18" stop-color="#A3A3AE"/>
<stop offset="0.26" stop-color="#90909B"/>
<stop offset="0.31" stop-color="#898994"/>
<stop offset="0.32" stop-color="#9898A4"/>
<stop offset="0.34" stop-color="#B3B3BE"/>
<stop offset="0.36" stop-color="#C8C8D4"/>
<stop offset="0.38" stop-color="#D9D9E5"/>
<stop offset="0.42" stop-color="#E5E5F1"/>
<stop offset="0.46" stop-color="#ECECF8"/>
<stop offset="0.59" stop-color="#ECECF8"/>
<stop offset="0.63" stop-color="#C8C8D4"/>
<stop offset="0.68" stop-color="#ACACB8"/>
<stop offset="0.72" stop-color="#9898A4"/>
<stop offset="0.76" stop-color="#8C8C98"/>
<stop offset="0.81" stop-color="#898994"/>
<stop offset="0.83" stop-color="#9A9AA4"/>
<stop offset="0.86" stop-color="#A6A6AF"/>
<stop offset="0.89" stop-color="#ADADB5"/>
<stop offset="1" stop-color="#AFAFB7"/>
</linearGradient>
<linearGradient id="paint9_linear_228_4072" x1="0.685565" y1="44.1742" x2="69.564" y2="44.1742" gradientUnits="userSpaceOnUse">
<stop stop-color="#AFAFB7"/>
<stop offset="0.1" stop-color="#C7C7D1"/>
<stop offset="0.23" stop-color="#E3E3EE"/>
<stop offset="0.3" stop-color="#EEEEFA"/>
<stop offset="0.37" stop-color="#E7E7F2"/>
<stop offset="1" stop-color="#AFAFB7"/>
</linearGradient>
<linearGradient id="paint10_linear_228_4072" x1="29.699" y1="8.98729" x2="44.6289" y2="34.9641" gradientUnits="userSpaceOnUse">
<stop stop-color="#EEEEFA"/>
<stop offset="0.09" stop-color="#C3C3CF"/>
<stop offset="0.18" stop-color="#A3A3AE"/>
<stop offset="0.26" stop-color="#90909B"/>
<stop offset="0.31" stop-color="#898994"/>
<stop offset="0.32" stop-color="#9898A4"/>
<stop offset="0.34" stop-color="#B3B3BE"/>
<stop offset="0.36" stop-color="#C8C8D4"/>
<stop offset="0.38" stop-color="#D9D9E5"/>
<stop offset="0.42" stop-color="#E5E5F1"/>
<stop offset="0.46" stop-color="#ECECF8"/>
<stop offset="0.59" stop-color="#ECECF8"/>
<stop offset="0.63" stop-color="#C8C8D4"/>
<stop offset="0.68" stop-color="#ACACB8"/>
<stop offset="0.72" stop-color="#9898A4"/>
<stop offset="0.76" stop-color="#8C8C98"/>
<stop offset="0.81" stop-color="#898994"/>
<stop offset="0.83" stop-color="#9A9AA4"/>
<stop offset="0.86" stop-color="#A6A6AF"/>
<stop offset="0.89" stop-color="#ADADB5"/>
<stop offset="1" stop-color="#AFAFB7"/>
</linearGradient>
<linearGradient id="paint11_linear_228_4072" x1="0.685575" y1="13.6286" x2="69.564" y2="13.6286" gradientUnits="userSpaceOnUse">
<stop stop-color="#AFAFB7"/>
<stop offset="0.1" stop-color="#C7C7D1"/>
<stop offset="0.23" stop-color="#E3E3EE"/>
<stop offset="0.3" stop-color="#EEEEFA"/>
<stop offset="0.37" stop-color="#E7E7F2"/>
<stop offset="1" stop-color="#AFAFB7"/>
</linearGradient>
<linearGradient id="paint12_linear_228_4072" x1="21.7672" y1="17.856" x2="36.6975" y2="43.8338" gradientUnits="userSpaceOnUse">
<stop stop-color="#EEEEFA"/>
<stop offset="0.09" stop-color="#C3C3CF"/>
<stop offset="0.18" stop-color="#A3A3AE"/>
<stop offset="0.26" stop-color="#90909B"/>
<stop offset="0.31" stop-color="#898994"/>
<stop offset="0.32" stop-color="#9898A4"/>
<stop offset="0.34" stop-color="#B3B3BE"/>
<stop offset="0.36" stop-color="#C8C8D4"/>
<stop offset="0.38" stop-color="#D9D9E5"/>
<stop offset="0.42" stop-color="#E5E5F1"/>
<stop offset="0.46" stop-color="#ECECF8"/>
<stop offset="0.59" stop-color="#ECECF8"/>
<stop offset="0.63" stop-color="#C8C8D4"/>
<stop offset="0.68" stop-color="#ACACB8"/>
<stop offset="0.72" stop-color="#9898A4"/>
<stop offset="0.76" stop-color="#8C8C98"/>
<stop offset="0.81" stop-color="#898994"/>
<stop offset="0.83" stop-color="#9A9AA4"/>
<stop offset="0.86" stop-color="#A6A6AF"/>
<stop offset="0.89" stop-color="#ADADB5"/>
<stop offset="1" stop-color="#AFAFB7"/>
</linearGradient>
<linearGradient id="paint13_linear_228_4072" x1="0.68557" y1="45.1181" x2="69.5635" y2="45.1181" gradientUnits="userSpaceOnUse">
<stop stop-color="#AFAFB7"/>
<stop offset="0.1" stop-color="#C7C7D1"/>
<stop offset="0.23" stop-color="#E3E3EE"/>
<stop offset="0.3" stop-color="#EEEEFA"/>
<stop offset="0.37" stop-color="#E7E7F2"/>
<stop offset="1" stop-color="#AFAFB7"/>
</linearGradient>
<linearGradient id="paint14_linear_228_4072" x1="33.7601" y1="38.9188" x2="36.3962" y2="43.5049" gradientUnits="userSpaceOnUse">
<stop stop-color="#FF5912"/>
<stop offset="0.06" stop-color="#FC5711"/>
<stop offset="0.09" stop-color="#F35311"/>
<stop offset="0.13" stop-color="#E34C10"/>
<stop offset="0.16" stop-color="#CE4310"/>
<stop offset="0.18" stop-color="#B1360F"/>
<stop offset="0.41" stop-color="#FF9900"/>
<stop offset="0.56" stop-color="#F87F02"/>
<stop offset="1" stop-color="#E83B0B"/>
</linearGradient>
<linearGradient id="paint15_linear_228_4072" x1="33.7601" y1="38.9188" x2="36.3962" y2="43.5049" gradientUnits="userSpaceOnUse">
<stop stop-color="#FF5912"/>
<stop offset="0.06" stop-color="#FC5711"/>
<stop offset="0.09" stop-color="#F35311"/>
<stop offset="0.13" stop-color="#E34C10"/>
<stop offset="0.16" stop-color="#CE4310"/>
<stop offset="0.18" stop-color="#B1360F"/>
<stop offset="0.41" stop-color="#FF9900"/>
<stop offset="0.56" stop-color="#F87F02"/>
<stop offset="1" stop-color="#E83B0B"/>
</linearGradient>
<linearGradient id="paint16_linear_228_4072" x1="33.7601" y1="38.9188" x2="36.3962" y2="43.5049" gradientUnits="userSpaceOnUse">
<stop stop-color="#FF5912"/>
<stop offset="0.06" stop-color="#FC5711"/>
<stop offset="0.09" stop-color="#F35311"/>
<stop offset="0.13" stop-color="#E34C10"/>
<stop offset="0.16" stop-color="#CE4310"/>
<stop offset="0.18" stop-color="#B1360F"/>
<stop offset="0.41" stop-color="#FF9900"/>
<stop offset="0.56" stop-color="#F87F02"/>
<stop offset="1" stop-color="#E83B0B"/>
</linearGradient>
<linearGradient id="paint17_linear_228_4072" x1="33.76" y1="38.9188" x2="36.3962" y2="43.5049" gradientUnits="userSpaceOnUse">
<stop stop-color="#FF5912"/>
<stop offset="0.06" stop-color="#FC5711"/>
<stop offset="0.09" stop-color="#F35311"/>
<stop offset="0.13" stop-color="#E34C10"/>
<stop offset="0.16" stop-color="#CE4310"/>
<stop offset="0.18" stop-color="#B1360F"/>
<stop offset="0.41" stop-color="#FF9900"/>
<stop offset="0.56" stop-color="#F87F02"/>
<stop offset="1" stop-color="#E83B0B"/>
</linearGradient>
<linearGradient id="paint18_linear_228_4072" x1="33.7601" y1="38.9188" x2="36.3962" y2="43.5049" gradientUnits="userSpaceOnUse">
<stop stop-color="#FF5912"/>
<stop offset="0.06" stop-color="#FC5711"/>
<stop offset="0.09" stop-color="#F35311"/>
<stop offset="0.13" stop-color="#E34C10"/>
<stop offset="0.16" stop-color="#CE4310"/>
<stop offset="0.18" stop-color="#B1360F"/>
<stop offset="0.41" stop-color="#FF9900"/>
<stop offset="0.56" stop-color="#F87F02"/>
<stop offset="1" stop-color="#E83B0B"/>
</linearGradient>
<linearGradient id="paint19_linear_228_4072" x1="28.2817" y1="15.3944" x2="46.2476" y2="46.654" gradientUnits="userSpaceOnUse">
<stop stop-color="#898994"/>
<stop offset="0.03" stop-color="#9696A1"/>
<stop offset="0.13" stop-color="#C5C5D1"/>
<stop offset="0.2" stop-color="#E3E3EE"/>
<stop offset="0.25" stop-color="#EEEEFA"/>
<stop offset="0.31" stop-color="#D9D9E4"/>
<stop offset="0.43" stop-color="#BABAC4"/>
<stop offset="0.53" stop-color="#A7A7B1"/>
<stop offset="0.6" stop-color="#A1A1AA"/>
<stop offset="0.61" stop-color="#B5B5BE"/>
<stop offset="0.63" stop-color="#CACAD4"/>
<stop offset="0.66" stop-color="#DADAE5"/>
<stop offset="0.69" stop-color="#E5E5F1"/>
<stop offset="0.73" stop-color="#ECECF8"/>
<stop offset="0.84" stop-color="#EBEBF7"/>
<stop offset="0.95" stop-color="#BFBFC8"/>
<stop offset="1" stop-color="#AFAFB7"/>
</linearGradient>
<linearGradient id="paint20_linear_228_4072" x1="24.0523" y1="46.2849" x2="44.0838" y2="11.4311" gradientUnits="userSpaceOnUse">
<stop stop-color="#EEEEFA"/>
<stop offset="0.09" stop-color="#C3C3CF"/>
<stop offset="0.18" stop-color="#A3A3AE"/>
<stop offset="0.26" stop-color="#90909B"/>
<stop offset="0.31" stop-color="#898994"/>
<stop offset="0.32" stop-color="#9898A4"/>
<stop offset="0.34" stop-color="#B3B3BE"/>
<stop offset="0.36" stop-color="#C8C8D4"/>
<stop offset="0.38" stop-color="#D9D9E5"/>
<stop offset="0.42" stop-color="#E5E5F1"/>
<stop offset="0.46" stop-color="#ECECF8"/>
<stop offset="0.59" stop-color="#EEEEFA"/>
<stop offset="0.6" stop-color="#EBEBF7"/>
<stop offset="0.7" stop-color="#D1D1DB"/>
<stop offset="0.8" stop-color="#BEBEC7"/>
<stop offset="0.9" stop-color="#B2B2BB"/>
<stop offset="1" stop-color="#AFAFB7"/>
</linearGradient>
<linearGradient id="paint21_linear_228_4072" x1="67.2038" y1="25.1336" x2="65.467" y2="35.8943" gradientUnits="userSpaceOnUse">
<stop stop-color="#FF5912"/>
<stop offset="0.06" stop-color="#FC5711"/>
<stop offset="0.09" stop-color="#F35311"/>
<stop offset="0.13" stop-color="#E34C10"/>
<stop offset="0.16" stop-color="#CE4310"/>
<stop offset="0.18" stop-color="#B1360F"/>
<stop offset="0.41" stop-color="#FF9900"/>
<stop offset="0.56" stop-color="#F87F02"/>
<stop offset="1" stop-color="#E83B0B"/>
</linearGradient>
<linearGradient id="paint22_linear_228_4072" x1="3.04564" y1="25.1336" x2="4.783" y2="35.8943" gradientUnits="userSpaceOnUse">
<stop stop-color="#FF5912"/>
<stop offset="0.06" stop-color="#FC5711"/>
<stop offset="0.09" stop-color="#F35311"/>
<stop offset="0.13" stop-color="#E34C10"/>
<stop offset="0.16" stop-color="#CE4310"/>
<stop offset="0.18" stop-color="#B1360F"/>
<stop offset="0.41" stop-color="#FF9900"/>
<stop offset="0.56" stop-color="#F87F02"/>
<stop offset="1" stop-color="#E83B0B"/>
</linearGradient>
<linearGradient id="paint23_linear_228_4072" x1="42.0637" y1="26.6313" x2="48.4111" y2="37.6743" gradientUnits="userSpaceOnUse">
<stop stop-color="#0D0D0D"/>
<stop offset="0.28" stop-color="#39393C"/>
<stop offset="0.36" stop-color="#323235"/>
<stop offset="0.77" stop-color="#171718"/>
<stop offset="1" stop-color="#0D0D0D"/>
</linearGradient>
<linearGradient id="paint24_linear_228_4072" x1="42.0637" y1="26.6313" x2="48.4111" y2="37.6742" gradientUnits="userSpaceOnUse">
<stop stop-color="#0D0D0D"/>
<stop offset="0.28" stop-color="#39393C"/>
<stop offset="0.36" stop-color="#323235"/>
<stop offset="0.77" stop-color="#171718"/>
<stop offset="1" stop-color="#0D0D0D"/>
</linearGradient>
<linearGradient id="paint25_linear_228_4072" x1="42.0637" y1="26.6313" x2="48.4111" y2="37.6743" gradientUnits="userSpaceOnUse">
<stop stop-color="#0D0D0D"/>
<stop offset="0.28" stop-color="#39393C"/>
<stop offset="0.36" stop-color="#323235"/>
<stop offset="0.77" stop-color="#171718"/>
<stop offset="1" stop-color="#0D0D0D"/>
</linearGradient>
<linearGradient id="paint26_linear_228_4072" x1="42.0637" y1="26.6313" x2="48.4111" y2="37.6743" gradientUnits="userSpaceOnUse">
<stop stop-color="#0D0D0D"/>
<stop offset="0.28" stop-color="#39393C"/>
<stop offset="0.36" stop-color="#323235"/>
<stop offset="0.77" stop-color="#171718"/>
<stop offset="1" stop-color="#0D0D0D"/>
</linearGradient>
<linearGradient id="paint27_linear_228_4072" x1="42.0637" y1="26.6313" x2="48.4111" y2="37.6743" gradientUnits="userSpaceOnUse">
<stop stop-color="#0D0D0D"/>
<stop offset="0.28" stop-color="#39393C"/>
<stop offset="0.36" stop-color="#323235"/>
<stop offset="0.77" stop-color="#171718"/>
<stop offset="1" stop-color="#0D0D0D"/>
</linearGradient>
<linearGradient id="paint28_linear_228_4072" x1="42.0637" y1="26.6313" x2="48.4111" y2="37.6743" gradientUnits="userSpaceOnUse">
<stop stop-color="#0D0D0D"/>
<stop offset="0.28" stop-color="#39393C"/>
<stop offset="0.36" stop-color="#323235"/>
<stop offset="0.77" stop-color="#171718"/>
<stop offset="1" stop-color="#0D0D0D"/>
</linearGradient>
<linearGradient id="paint29_linear_228_4072" x1="29.8862" y1="28.1198" x2="33.2445" y2="33.9627" gradientUnits="userSpaceOnUse">
<stop stop-color="#AFAFB7"/>
<stop offset="0.1" stop-color="#C7C7D1"/>
<stop offset="0.23" stop-color="#E3E3EE"/>
<stop offset="0.3" stop-color="#EEEEFA"/>
<stop offset="0.37" stop-color="#E7E7F2"/>
<stop offset="1" stop-color="#AFAFB7"/>
</linearGradient>
<linearGradient id="paint30_linear_228_4072" x1="35.8866" y1="28.0189" x2="39.0789" y2="33.573" gradientUnits="userSpaceOnUse">
<stop stop-color="#AFAFB7"/>
<stop offset="0.1" stop-color="#C7C7D1"/>
<stop offset="0.23" stop-color="#E3E3EE"/>
<stop offset="0.3" stop-color="#EEEEFA"/>
<stop offset="0.37" stop-color="#E7E7F2"/>
<stop offset="1" stop-color="#AFAFB7"/>
</linearGradient>
<linearGradient id="paint31_linear_228_4072" x1="41.5217" y1="27.8202" x2="44.9172" y2="33.7283" gradientUnits="userSpaceOnUse">
<stop stop-color="#AFAFB7"/>
<stop offset="0.1" stop-color="#C7C7D1"/>
<stop offset="0.23" stop-color="#E3E3EE"/>
<stop offset="0.3" stop-color="#EEEEFA"/>
<stop offset="0.37" stop-color="#E7E7F2"/>
<stop offset="1" stop-color="#AFAFB7"/>
</linearGradient>
<linearGradient id="paint32_linear_228_4072" x1="47.866" y1="27.5216" x2="50.7668" y2="32.5693" gradientUnits="userSpaceOnUse">
<stop stop-color="#AFAFB7"/>
<stop offset="0.1" stop-color="#C7C7D1"/>
<stop offset="0.23" stop-color="#E3E3EE"/>
<stop offset="0.3" stop-color="#EEEEFA"/>
<stop offset="0.37" stop-color="#E7E7F2"/>
<stop offset="1" stop-color="#AFAFB7"/>
</linearGradient>
<linearGradient id="paint33_linear_228_4072" x1="52.0608" y1="29.1418" x2="55.1415" y2="34.5021" gradientUnits="userSpaceOnUse">
<stop stop-color="#AFAFB7"/>
<stop offset="0.1" stop-color="#C7C7D1"/>
<stop offset="0.23" stop-color="#E3E3EE"/>
<stop offset="0.3" stop-color="#EEEEFA"/>
<stop offset="0.37" stop-color="#E7E7F2"/>
<stop offset="1" stop-color="#AFAFB7"/>
</linearGradient>
<linearGradient id="paint34_linear_228_4072" x1="57.3974" y1="28.6126" x2="60.5332" y2="34.0681" gradientUnits="userSpaceOnUse">
<stop stop-color="#AFAFB7"/>
<stop offset="0.1" stop-color="#C7C7D1"/>
<stop offset="0.23" stop-color="#E3E3EE"/>
<stop offset="0.3" stop-color="#EEEEFA"/>
<stop offset="0.37" stop-color="#E7E7F2"/>
<stop offset="1" stop-color="#AFAFB7"/>
</linearGradient>
<linearGradient id="paint35_linear_228_4072" x1="15.5998" y1="28.2646" x2="19.3879" y2="34.8559" gradientUnits="userSpaceOnUse">
<stop stop-color="#0D0D0D"/>
<stop offset="0.28" stop-color="#39393C"/>
<stop offset="0.36" stop-color="#323235"/>
<stop offset="0.77" stop-color="#171718"/>
<stop offset="1" stop-color="#0D0D0D"/>
</linearGradient>
<linearGradient id="paint36_linear_228_4072" x1="15.6" y1="28.2644" x2="19.3881" y2="34.8557" gradientUnits="userSpaceOnUse">
<stop stop-color="#0D0D0D"/>
<stop offset="0.28" stop-color="#39393C"/>
<stop offset="0.36" stop-color="#323235"/>
<stop offset="0.77" stop-color="#171718"/>
<stop offset="1" stop-color="#0D0D0D"/>
</linearGradient>
<linearGradient id="paint37_linear_228_4072" x1="15.6" y1="28.2644" x2="19.3881" y2="34.8557" gradientUnits="userSpaceOnUse">
<stop stop-color="#0D0D0D"/>
<stop offset="0.28" stop-color="#39393C"/>
<stop offset="0.36" stop-color="#323235"/>
<stop offset="0.77" stop-color="#171718"/>
<stop offset="1" stop-color="#0D0D0D"/>
</linearGradient>
<linearGradient id="paint38_linear_228_4072" x1="9.78427" y1="28.3177" x2="12.6186" y2="33.2494" gradientUnits="userSpaceOnUse">
<stop stop-color="#AFAFB7"/>
<stop offset="0.1" stop-color="#C7C7D1"/>
<stop offset="0.23" stop-color="#E3E3EE"/>
<stop offset="0.3" stop-color="#EEEEFA"/>
<stop offset="0.37" stop-color="#E7E7F2"/>
<stop offset="1" stop-color="#AFAFB7"/>
</linearGradient>
<linearGradient id="paint39_linear_228_4072" x1="14.6668" y1="29.0747" x2="17.8139" y2="34.5506" gradientUnits="userSpaceOnUse">
<stop stop-color="#AFAFB7"/>
<stop offset="0.1" stop-color="#C7C7D1"/>
<stop offset="0.23" stop-color="#E3E3EE"/>
<stop offset="0.3" stop-color="#EEEEFA"/>
<stop offset="0.37" stop-color="#E7E7F2"/>
<stop offset="1" stop-color="#AFAFB7"/>
</linearGradient>
<linearGradient id="paint40_linear_228_4072" x1="20.9242" y1="28.084" x2="24.3356" y2="34.019" gradientUnits="userSpaceOnUse">
<stop stop-color="#AFAFB7"/>
<stop offset="0.1" stop-color="#C7C7D1"/>
<stop offset="0.23" stop-color="#E3E3EE"/>
<stop offset="0.3" stop-color="#EEEEFA"/>
<stop offset="0.37" stop-color="#E7E7F2"/>
<stop offset="1" stop-color="#AFAFB7"/>
</linearGradient>
<linearGradient id="paint41_linear_228_4072" x1="41.9444" y1="16.7295" x2="46.4032" y2="24.487" gradientUnits="userSpaceOnUse">
<stop stop-color="#FF5912"/>
<stop offset="0.06" stop-color="#FC5711"/>
<stop offset="0.09" stop-color="#F35311"/>
<stop offset="0.13" stop-color="#E34C10"/>
<stop offset="0.16" stop-color="#CE4310"/>
<stop offset="0.18" stop-color="#B1360F"/>
<stop offset="0.41" stop-color="#FF9900"/>
<stop offset="0.56" stop-color="#F87F02"/>
<stop offset="1" stop-color="#E83B0B"/>
</linearGradient>
<linearGradient id="paint42_linear_228_4072" x1="41.9444" y1="16.7294" x2="46.4032" y2="24.4869" gradientUnits="userSpaceOnUse">
<stop stop-color="#FF5912"/>
<stop offset="0.06" stop-color="#FC5711"/>
<stop offset="0.09" stop-color="#F35311"/>
<stop offset="0.13" stop-color="#E34C10"/>
<stop offset="0.16" stop-color="#CE4310"/>
<stop offset="0.18" stop-color="#B1360F"/>
<stop offset="0.41" stop-color="#FF9900"/>
<stop offset="0.56" stop-color="#F87F02"/>
<stop offset="1" stop-color="#E83B0B"/>
</linearGradient>
<linearGradient id="paint43_linear_228_4072" x1="41.9444" y1="16.7295" x2="46.4032" y2="24.487" gradientUnits="userSpaceOnUse">
<stop stop-color="#FF5912"/>
<stop offset="0.06" stop-color="#FC5711"/>
<stop offset="0.09" stop-color="#F35311"/>
<stop offset="0.13" stop-color="#E34C10"/>
<stop offset="0.16" stop-color="#CE4310"/>
<stop offset="0.18" stop-color="#B1360F"/>
<stop offset="0.41" stop-color="#FF9900"/>
<stop offset="0.56" stop-color="#F87F02"/>
<stop offset="1" stop-color="#E83B0B"/>
</linearGradient>
<linearGradient id="paint44_linear_228_4072" x1="41.9444" y1="16.7295" x2="46.4032" y2="24.487" gradientUnits="userSpaceOnUse">
<stop stop-color="#FF5912"/>
<stop offset="0.06" stop-color="#FC5711"/>
<stop offset="0.09" stop-color="#F35311"/>
<stop offset="0.13" stop-color="#E34C10"/>
<stop offset="0.16" stop-color="#CE4310"/>
<stop offset="0.18" stop-color="#B1360F"/>
<stop offset="0.41" stop-color="#FF9900"/>
<stop offset="0.56" stop-color="#F87F02"/>
<stop offset="1" stop-color="#E83B0B"/>
</linearGradient>
<linearGradient id="paint45_linear_228_4072" x1="41.9444" y1="16.7295" x2="46.4032" y2="24.487" gradientUnits="userSpaceOnUse">
<stop stop-color="#FF5912"/>
<stop offset="0.06" stop-color="#FC5711"/>
<stop offset="0.09" stop-color="#F35311"/>
<stop offset="0.13" stop-color="#E34C10"/>
<stop offset="0.16" stop-color="#CE4310"/>
<stop offset="0.18" stop-color="#B1360F"/>
<stop offset="0.41" stop-color="#FF9900"/>
<stop offset="0.56" stop-color="#F87F02"/>
<stop offset="1" stop-color="#E83B0B"/>
</linearGradient>
<linearGradient id="paint46_linear_228_4072" x1="41.9444" y1="16.7294" x2="46.4032" y2="24.4869" gradientUnits="userSpaceOnUse">
<stop stop-color="#FF5912"/>
<stop offset="0.06" stop-color="#FC5711"/>
<stop offset="0.09" stop-color="#F35311"/>
<stop offset="0.13" stop-color="#E34C10"/>
<stop offset="0.16" stop-color="#CE4310"/>
<stop offset="0.18" stop-color="#B1360F"/>
<stop offset="0.41" stop-color="#FF9900"/>
<stop offset="0.56" stop-color="#F87F02"/>
<stop offset="1" stop-color="#E83B0B"/>
</linearGradient>
<linearGradient id="paint47_linear_228_4072" x1="41.9444" y1="16.7294" x2="46.4032" y2="24.4869" gradientUnits="userSpaceOnUse">
<stop stop-color="#FF5912"/>
<stop offset="0.06" stop-color="#FC5711"/>
<stop offset="0.09" stop-color="#F35311"/>
<stop offset="0.13" stop-color="#E34C10"/>
<stop offset="0.16" stop-color="#CE4310"/>
<stop offset="0.18" stop-color="#B1360F"/>
<stop offset="0.41" stop-color="#FF9900"/>
<stop offset="0.56" stop-color="#F87F02"/>
<stop offset="1" stop-color="#E83B0B"/>
</linearGradient>
<linearGradient id="paint48_linear_228_4072" x1="35.0392" y1="6.91663" x2="35.0392" y2="21.6728" gradientUnits="userSpaceOnUse">
<stop stop-color="white"/>
<stop offset="0.42" stop-color="white"/>
<stop offset="0.56" stop-color="#808080"/>
<stop offset="0.71" stop-color="#FEFEFE"/>
<stop offset="1" stop-color="#999999"/>
</linearGradient>
<linearGradient id="paint49_linear_228_4072" x1="13.6137" y1="20.9142" x2="27.7292" y2="20.9142" gradientUnits="userSpaceOnUse">
<stop stop-color="#FF5912"/>
<stop offset="0.06" stop-color="#FC5711"/>
<stop offset="0.09" stop-color="#F35311"/>
<stop offset="0.13" stop-color="#E34C10"/>
<stop offset="0.16" stop-color="#CE4310"/>
<stop offset="0.18" stop-color="#B1360F"/>
<stop offset="0.41" stop-color="#FF9900"/>
<stop offset="0.56" stop-color="#F87F02"/>
<stop offset="1" stop-color="#E83B0B"/>
</linearGradient>
<linearGradient id="paint50_linear_228_4072" x1="29.9156" y1="19.3468" x2="34.1638" y2="19.3468" gradientUnits="userSpaceOnUse">
<stop stop-color="#FF5912"/>
<stop offset="0.06" stop-color="#FC5711"/>
<stop offset="0.09" stop-color="#F35311"/>
<stop offset="0.13" stop-color="#E34C10"/>
<stop offset="0.16" stop-color="#CE4310"/>
<stop offset="0.18" stop-color="#B1360F"/>
<stop offset="0.41" stop-color="#FF9900"/>
<stop offset="0.56" stop-color="#F87F02"/>
<stop offset="1" stop-color="#E83B0B"/>
</linearGradient>
<linearGradient id="paint51_linear_228_4072" x1="36.7365" y1="11.5978" x2="50.8819" y2="11.5978" gradientUnits="userSpaceOnUse">
<stop stop-color="#FF5912"/>
<stop offset="0.06" stop-color="#FC5711"/>
<stop offset="0.09" stop-color="#F35311"/>
<stop offset="0.13" stop-color="#E34C10"/>
<stop offset="0.16" stop-color="#CE4310"/>
<stop offset="0.18" stop-color="#B1360F"/>
<stop offset="0.41" stop-color="#FF9900"/>
<stop offset="0.56" stop-color="#F87F02"/>
<stop offset="1" stop-color="#E83B0B"/>
</linearGradient>
<linearGradient id="paint52_linear_228_4072" x1="14.548" y1="17.0141" x2="18.4678" y2="17.0141" gradientUnits="userSpaceOnUse">
<stop stop-color="#FF5912"/>
<stop offset="0.06" stop-color="#FC5711"/>
<stop offset="0.09" stop-color="#F35311"/>
<stop offset="0.13" stop-color="#E34C10"/>
<stop offset="0.16" stop-color="#CE4310"/>
<stop offset="0.18" stop-color="#B1360F"/>
<stop offset="0.41" stop-color="#FF9900"/>
<stop offset="0.56" stop-color="#F87F02"/>
<stop offset="1" stop-color="#E83B0B"/>
</linearGradient>
<linearGradient id="paint53_linear_228_4072" x1="18.1663" y1="16.7343" x2="21.7717" y2="16.7343" gradientUnits="userSpaceOnUse">
<stop stop-color="#FF5912"/>
<stop offset="0.06" stop-color="#FC5711"/>
<stop offset="0.09" stop-color="#F35311"/>
<stop offset="0.13" stop-color="#E34C10"/>
<stop offset="0.16" stop-color="#CE4310"/>
<stop offset="0.18" stop-color="#B1360F"/>
<stop offset="0.41" stop-color="#FF9900"/>
<stop offset="0.56" stop-color="#F87F02"/>
<stop offset="1" stop-color="#E83B0B"/>
</linearGradient>
</defs>
</svg>
