<svg width="31" height="24" viewBox="0 0 31 24" fill="none" xmlns="http://www.w3.org/2000/svg">
<g id="logos:mastercard" clip-path="url(#clip0_689_22432)">
<path id="Vector" d="M5.73832 23.8797V22.2912C5.73832 21.6822 5.36758 21.2852 4.73212 21.2852C4.41446 21.2852 4.07025 21.391 3.83194 21.7352C3.6467 21.444 3.38197 21.2852 2.98483 21.2852C2.71998 21.2852 2.45538 21.3645 2.24348 21.6558V21.3381H1.6875V23.8797H2.24348V22.4765C2.24348 22.0265 2.48179 21.8146 2.85253 21.8146C3.22302 21.8146 3.40851 22.0529 3.40851 22.4765V23.8797H3.96449V22.4765C3.96449 22.0265 4.22909 21.8146 4.57329 21.8146C4.94402 21.8146 5.12927 22.0529 5.12927 22.4765V23.8797H5.73832ZM13.972 21.3381H13.0719V20.5703H12.516V21.3381H12.0129V21.841H12.5158V23.006C12.5158 23.5886 12.7542 23.9326 13.3896 23.9326C13.6279 23.9326 13.8925 23.8533 14.078 23.7474L13.9191 23.2708C13.7602 23.3767 13.575 23.4032 13.4426 23.4032C13.1778 23.4032 13.0719 23.2444 13.0719 22.9795V21.841H13.972V21.3381ZM18.6847 21.285C18.367 21.285 18.1552 21.444 18.0228 21.6558V21.3381H17.4668V23.8797H18.0228V22.4501C18.0228 22.0265 18.2081 21.7882 18.5523 21.7882C18.6582 21.7882 18.7906 21.8147 18.8965 21.8411L19.0553 21.3117C18.9494 21.2852 18.7906 21.2852 18.6847 21.2852V21.285ZM11.5628 21.5499C11.298 21.3645 10.9274 21.2852 10.5302 21.2852C9.8949 21.2852 9.47134 21.6028 9.47134 22.1059C9.47134 22.5295 9.78901 22.7677 10.345 22.8472L10.6097 22.8737C10.901 22.9266 11.0598 23.006 11.0598 23.1385C11.0598 23.3237 10.848 23.4561 10.4773 23.4561C10.1067 23.4561 9.81542 23.3237 9.63005 23.1914L9.36533 23.615C9.65659 23.8267 10.0537 23.9326 10.4508 23.9326C11.1921 23.9326 11.6158 23.5886 11.6158 23.1119C11.6158 22.6618 11.2716 22.4235 10.742 22.3442L10.4773 22.3176C10.239 22.2911 10.0537 22.2383 10.0537 22.0794C10.0537 21.8941 10.239 21.7882 10.5302 21.7882C10.848 21.7882 11.1657 21.9205 11.3245 22L11.5628 21.5499ZM26.3361 21.2852C26.0183 21.2852 25.8065 21.444 25.6741 21.6558V21.3381H25.1181V23.8797H25.6741V22.4501C25.6741 22.0265 25.8595 21.7882 26.2036 21.7882C26.3096 21.7882 26.442 21.8147 26.5479 21.8411L26.7067 21.3117C26.6008 21.2852 26.442 21.2852 26.3361 21.2852ZM19.2407 22.6089C19.2407 23.3767 19.7701 23.9326 20.5909 23.9326C20.9616 23.9326 21.2263 23.8533 21.491 23.6415L21.2263 23.1914C21.0145 23.3502 20.8027 23.4296 20.5644 23.4296C20.1143 23.4296 19.7966 23.1119 19.7966 22.6089C19.7966 22.1324 20.1143 21.8146 20.5644 21.7882C20.8027 21.7882 21.0145 21.8675 21.2263 22.0265L21.491 21.5764C21.2263 21.3645 20.9616 21.2852 20.5909 21.2852C19.7701 21.2852 19.2407 21.8411 19.2407 22.6089ZM24.3769 22.6089V21.3381H23.8209V21.6558C23.6356 21.4176 23.3708 21.2852 23.0266 21.2852C22.3118 21.2852 21.7558 21.8411 21.7558 22.6089C21.7558 23.3767 22.3118 23.9326 23.0266 23.9326C23.3973 23.9326 23.6621 23.8003 23.8209 23.562V23.8797H24.3769V22.6089ZM22.3382 22.6089C22.3382 22.1588 22.6295 21.7882 23.106 21.7882C23.5561 21.7882 23.8739 22.1324 23.8739 22.6089C23.8739 23.059 23.5561 23.4296 23.106 23.4296C22.6295 23.4031 22.3382 23.059 22.3382 22.6089ZM15.693 21.2852C14.9517 21.2852 14.4221 21.8146 14.4221 22.6089C14.4221 23.4032 14.9515 23.9326 15.7194 23.9326C16.09 23.9326 16.4608 23.8267 16.752 23.5886L16.4872 23.1914C16.2754 23.3502 16.0107 23.4561 15.746 23.4561C15.4018 23.4561 15.0576 23.2973 14.9781 22.8471H16.8579V22.6354C16.8844 21.8146 16.4079 21.2852 15.693 21.2852ZM15.693 21.7617C16.0371 21.7617 16.2755 21.9736 16.3283 22.3707H15.0046C15.0576 22.0265 15.2959 21.7617 15.693 21.7617ZM29.4866 22.6089V20.332H28.9306V21.6558C28.7453 21.4176 28.4806 21.2852 28.1364 21.2852C27.4215 21.2852 26.8656 21.8411 26.8656 22.6089C26.8656 23.3767 27.4215 23.9326 28.1364 23.9326C28.5071 23.9326 28.7718 23.8003 28.9306 23.562V23.8797H29.4866V22.6089ZM27.4481 22.6089C27.4481 22.1588 27.7392 21.7882 28.2158 21.7882C28.6659 21.7882 28.9836 22.1324 28.9836 22.6089C28.9836 23.059 28.6659 23.4296 28.2158 23.4296C27.7392 23.4031 27.4481 23.059 27.4481 22.6089ZM8.8623 22.6089V21.3381H8.30632V21.6558C8.12095 21.4176 7.85623 21.2852 7.51202 21.2852C6.79721 21.2852 6.24123 21.8411 6.24123 22.6089C6.24123 23.3767 6.79721 23.9326 7.51202 23.9326C7.88276 23.9326 8.14748 23.8003 8.30632 23.562V23.8797H8.8623V22.6089ZM6.79721 22.6089C6.79721 22.1588 7.08847 21.7882 7.56497 21.7882C8.01506 21.7882 8.33285 22.1324 8.33285 22.6089C8.33285 23.059 8.01506 23.4296 7.56497 23.4296C7.08847 23.4031 6.79721 23.059 6.79721 22.6089Z" fill="black"/>
<path id="Vector_2" d="M11.3774 2.03906H19.7171V17.0241H11.3774V2.03906Z" fill="#FF5F00"/>
<path id="Vector_3" d="M11.9071 9.53113C11.9071 6.48651 13.3367 3.78597 15.5341 2.03855C13.9192 0.767759 11.8807 0 9.65674 0C4.38796 0 0.125488 4.26247 0.125488 9.53113C0.125488 14.7997 4.38796 19.0623 9.65662 19.0623C11.8805 19.0623 13.9191 18.2945 15.5341 17.0236C13.3367 15.3027 11.9071 12.5758 11.9071 9.53113Z" fill="#EB001B"/>
<path id="Vector_4" d="M30.9691 9.53113C30.9691 14.7997 26.7067 19.0623 21.438 19.0623C19.2141 19.0623 17.1755 18.2945 15.5605 17.0236C17.7845 15.2763 19.1877 12.5758 19.1877 9.53113C19.1877 6.48651 17.7579 3.78597 15.5605 2.03855C17.1754 0.767759 19.2141 0 21.438 0C26.7067 0 30.9691 4.289 30.9691 9.53113Z" fill="#F79E1B"/>
</g>
<defs>
<clipPath id="clip0_689_22432">
<rect width="30.8744" height="24" fill="white" transform="translate(0.125488)"/>
</clipPath>
</defs>
</svg>
