<svg width="584" height="368" viewBox="0 0 584 368" fill="none" xmlns="http://www.w3.org/2000/svg">
<path d="M125.846 133V136" stroke="#D2D8DF" stroke-width="2.921" stroke-linecap="round"/>
<path d="M119.108 134.625L121.559 137.149" stroke="#D2D8DF" stroke-width="2.921" stroke-linecap="round"/>
<path d="M116.24 141.343H119.707" stroke="#D2D8DF" stroke-width="2.921" stroke-linecap="round"/>
<path d="M118.826 148.18L121.278 145.656" stroke="#D2D8DF" stroke-width="2.921" stroke-linecap="round"/>
<path d="M125.846 149V146" stroke="#D2D8DF" stroke-width="2.921" stroke-linecap="round"/>
<path d="M130.846 147L128.846 145" stroke="#D2D8DF" stroke-width="2.921" stroke-linecap="round"/>
<path d="M134.846 142H131.846" stroke="#D2D8DF" stroke-width="2.921" stroke-linecap="round"/>
<path d="M132.846 135L130.846 137" stroke="#D2D8DF" stroke-width="2.921" stroke-linecap="round"/>
<path d="M286.846 2V4" stroke="#D2D8DF" stroke-width="2.921" stroke-linecap="round"/>
<path d="M280.846 8H282.846" stroke="#D2D8DF" stroke-width="2.921" stroke-linecap="round"/>
<path d="M286.846 14V12" stroke="#D2D8DF" stroke-width="2.921" stroke-linecap="round"/>
<path d="M291.846 8H289.846" stroke="#D2D8DF" stroke-width="2.921" stroke-linecap="round"/>
<path d="M170.846 86V89" stroke="#D2D8DF" stroke-width="2.921" stroke-linecap="round"/>
<path d="M161.846 95H164.846" stroke="#D2D8DF" stroke-width="2.921" stroke-linecap="round"/>
<path d="M170.846 103V100" stroke="#D2D8DF" stroke-width="2.921" stroke-linecap="round"/>
<path d="M178.846 95H175.846" stroke="#D2D8DF" stroke-width="2.921" stroke-linecap="round"/>
<path d="M386.1 195.039C388.49 195.039 390.428 196.978 390.428 199.368C390.428 201.76 388.49 203.697 386.1 203.697C383.71 203.697 381.772 201.76 381.772 199.368" stroke="#D2D8DF" stroke-width="2.921" stroke-linecap="round"/>
<path fill-rule="evenodd" clip-rule="evenodd" d="M405.906 155.764C408.476 154.962 412.415 151.819 413.327 148.438C414.154 151.427 417.62 154.962 420.748 155.229C417.227 156.476 413.861 160.179 413.327 163.089C412.964 160.123 408.308 156.196 405.906 155.764" fill="#EBECEE"/>
<path fill-rule="evenodd" clip-rule="evenodd" d="M142.117 193.706C143.403 193.305 145.371 191.734 145.827 190.043C146.241 191.537 147.974 193.305 149.537 193.439C147.777 194.061 146.095 195.913 145.827 197.368C145.646 195.885 143.318 193.921 142.117 193.706" fill="#EBECEE"/>
<path fill-rule="evenodd" clip-rule="evenodd" d="M165.97 54.5972C165.97 56.4518 164.467 57.954 162.614 57.954C160.76 57.954 159.258 56.4518 159.258 54.5972C159.258 52.7434 160.76 51.2404 162.614 51.2404C164.467 51.2404 165.97 52.7434 165.97 54.5972" fill="#D1D8DF"/>
<path fill-rule="evenodd" clip-rule="evenodd" d="M390.065 63.6107C390.065 66.7093 387.553 69.2212 384.456 69.2212C381.357 69.2212 378.846 66.7093 378.846 63.6107C378.846 60.512 381.357 58.0001 384.456 58.0001C387.553 58.0001 390.065 60.512 390.065 63.6107" fill="#EBECEE"/>
<path fill-rule="evenodd" clip-rule="evenodd" d="M467.76 48.4097C467.76 50.868 465.768 52.8602 463.311 52.8602C460.853 52.8602 458.862 50.868 458.862 48.4097C458.862 45.9513 460.853 43.9591 463.311 43.9591C465.768 43.9591 467.76 45.9513 467.76 48.4097" fill="#EBECEE"/>
<path fill-rule="evenodd" clip-rule="evenodd" d="M228.689 256.268C228.689 257.817 227.434 259.073 225.884 259.073C224.336 259.073 223.08 257.817 223.08 256.268C223.08 254.718 224.336 253.462 225.884 253.462C227.434 253.462 228.689 254.718 228.689 256.268Z" stroke="#D2D8DF" stroke-width="2.921" stroke-linecap="round"/>
<path fill-rule="evenodd" clip-rule="evenodd" d="M227.021 33.0317C227.021 34.8863 225.518 36.3885 223.665 36.3885C221.811 36.3885 220.309 34.8863 220.309 33.0317C220.309 31.178 221.811 29.6749 223.665 29.6749C225.518 29.6749 227.021 31.178 227.021 33.0317Z" stroke="#D2D8DF" stroke-width="2.921" stroke-linecap="round"/>
<path fill-rule="evenodd" clip-rule="evenodd" d="M312.623 287.336C310.479 288.152 308.079 287.075 307.263 284.931C306.447 282.785 307.524 280.384 309.669 279.569C311.813 278.753 314.213 279.829 315.029 281.975C315.845 284.12 314.768 286.52 312.623 287.336Z" stroke="#D2D8DF" stroke-width="2.921" stroke-linecap="round"/>
<path fill-rule="evenodd" clip-rule="evenodd" d="M311.345 208H229.34C223.569 208 218.844 203.261 218.844 197.47V80.5275C218.844 74.7362 223.569 70 229.34 70H311.345C317.119 70 321.844 74.7362 321.844 80.5275V197.47C321.844 203.261 317.119 208 311.345 208" fill="#E0E2EE"/>
<path fill-rule="evenodd" clip-rule="evenodd" d="M304.345 213H222.34C216.569 213 211.844 208.261 211.844 202.47V85.5275C211.844 79.7362 216.569 75 222.34 75H304.345C310.119 75 314.844 79.7362 314.844 85.5275V202.47C314.844 208.261 310.119 213 304.345 213" fill="#E8EBF2"/>
<path fill-rule="evenodd" clip-rule="evenodd" d="M297.536 216.947H215.362C209.578 216.947 204.844 212.228 204.844 206.461V90.0025C204.844 84.2352 209.578 79.5186 215.362 79.5186H297.536C303.323 79.5186 308.057 84.2352 308.057 90.0025V206.461C308.057 212.228 303.323 216.947 297.536 216.947" fill="#D8DBEA"/>
<path fill-rule="evenodd" clip-rule="evenodd" d="M297.536 216.947H215.362C209.578 216.947 204.844 212.228 204.844 206.461V90.0025C204.844 84.2352 209.578 79.5186 215.362 79.5186H297.536C303.323 79.5186 308.057 84.2352 308.057 90.0025V206.461C308.057 212.228 303.323 216.947 297.536 216.947" fill="#F1F2F7"/>
<path fill-rule="evenodd" clip-rule="evenodd" d="M285.692 115H224.996C223.263 115 221.844 113.65 221.844 112.001C221.844 110.35 223.263 109 224.996 109H285.692C287.425 109 288.844 110.35 288.844 112.001C288.844 113.65 287.425 115 285.692 115" fill="#E0E2EE"/>
<path fill-rule="evenodd" clip-rule="evenodd" d="M285.692 133H224.996C223.263 133 221.844 131.65 221.844 130.001C221.844 128.35 223.263 127 224.996 127H285.692C287.425 127 288.844 128.35 288.844 130.001C288.844 131.65 287.425 133 285.692 133" fill="#E0E2EE"/>
<path fill-rule="evenodd" clip-rule="evenodd" d="M285.692 151H224.996C223.263 151 221.844 149.65 221.844 148.001C221.844 146.352 223.263 145 224.996 145H285.692C287.425 145 288.844 146.352 288.844 148.001C288.844 149.65 287.425 151 285.692 151" fill="#E0E2EE"/>
<path fill-rule="evenodd" clip-rule="evenodd" d="M285.692 169H224.996C223.263 169 221.844 167.65 221.844 166.001C221.844 164.35 223.263 163 224.996 163H285.692C287.425 163 288.844 164.35 288.844 166.001C288.844 167.65 287.425 169 285.692 169" fill="#E0E2EE"/>
<path fill-rule="evenodd" clip-rule="evenodd" d="M256.678 187H225.01C223.269 187 221.844 185.65 221.844 184.001C221.844 182.35 223.269 181 225.01 181H256.678C258.419 181 259.844 182.35 259.844 184.001C259.844 185.65 258.419 187 256.678 187" fill="#E0E2EE"/>
<path fill-rule="evenodd" clip-rule="evenodd" d="M320.599 163.737C308.462 175.871 289.673 177.24 276.032 167.872C274.289 166.653 272.63 165.284 271.083 163.737C270.286 162.943 269.535 162.124 268.828 161.261C267.413 159.538 266.173 157.701 265.158 155.803C263.369 152.597 262.152 149.195 261.488 145.679C259.345 134.651 262.549 122.781 271.083 114.252C279.636 105.697 291.508 102.514 302.538 104.636C306.052 105.321 309.457 106.537 312.664 108.305C314.565 109.343 316.377 110.583 318.102 111.997C318.963 112.702 319.782 113.455 320.576 114.252C322.126 115.799 323.515 117.455 324.712 119.201C334.084 132.837 332.713 151.625 320.599 163.737" fill="white" fill-opacity="0.1"/>
<path fill-rule="evenodd" clip-rule="evenodd" d="M317.203 161.347C304.576 173.976 284.114 173.973 271.485 161.347C258.872 148.734 258.872 128.27 271.501 115.643C284.114 103.03 304.576 103.03 317.189 115.643C329.815 128.27 329.815 148.734 317.203 161.347M323.683 109.156C307.476 92.9482 281.212 92.9482 265.005 109.156C248.8 125.361 248.786 151.64 264.991 167.848C279.741 182.594 302.861 183.924 319.122 171.816C320.711 170.632 322.24 169.305 323.699 167.848C325.156 166.389 326.484 164.859 327.665 163.271C339.773 147.007 338.431 123.904 323.683 109.156" fill="#E0E2EE"/>
<path fill-rule="evenodd" clip-rule="evenodd" d="M387.466 228.942L386.786 229.622C382.284 234.126 374.913 234.126 370.409 229.622L328.844 188.057L345.901 171L387.466 212.565C391.97 217.069 391.97 224.438 387.466 228.942" fill="#E1561B"/>
<path fill-rule="evenodd" clip-rule="evenodd" d="M328.561 162L340.844 174.283L332.124 183L319.844 170.717C321.465 169.509 323.023 168.154 324.514 166.668C326.001 165.182 327.355 163.621 328.561 162" fill="#E0E2EE"/>
<path fill-rule="evenodd" clip-rule="evenodd" d="M386.844 212.054L369.895 229L366.844 225.946L383.79 209L386.844 212.054Z" fill="#E1561B"/>
<path fill-rule="evenodd" clip-rule="evenodd" d="M346.844 171.587L329.431 189L326.844 186.413L344.257 169L346.844 171.587Z" fill="#E1561B"/>
<path fill-rule="evenodd" clip-rule="evenodd" d="M308.844 111.299L266.14 154C264.532 151.118 263.439 148.059 262.844 144.898L299.741 108C302.901 108.618 305.962 109.709 308.844 111.299" fill="white" fill-opacity="0.5"/>
<path fill-rule="evenodd" clip-rule="evenodd" d="M322.844 121.448L276.677 165C275.024 163.912 273.45 162.687 271.982 161.302C271.227 160.59 270.513 159.859 269.844 159.087L316.573 115C317.392 115.633 318.169 116.307 318.922 117.02C320.389 118.404 321.71 119.886 322.844 121.448Z" fill="white" fill-opacity="0.5"/>
<path d="M38.6016 329.015C38.6016 328.683 38.5495 328.39 38.4453 328.136C38.3477 327.876 38.1719 327.641 37.918 327.433C37.6706 327.225 37.3255 327.026 36.8828 326.837C36.4466 326.649 35.8932 326.457 35.2227 326.261C34.5195 326.053 33.8848 325.822 33.3184 325.568C32.752 325.307 32.2669 325.011 31.8633 324.679C31.4596 324.347 31.1504 323.966 30.9355 323.537C30.7207 323.107 30.6133 322.615 30.6133 322.062C30.6133 321.509 30.7272 320.998 30.9551 320.529C31.1829 320.06 31.5085 319.653 31.9316 319.308C32.3613 318.957 32.8724 318.683 33.4648 318.488C34.0573 318.292 34.7181 318.195 35.4473 318.195C36.515 318.195 37.4199 318.4 38.1621 318.81C38.9108 319.214 39.4805 319.744 39.8711 320.402C40.2617 321.053 40.457 321.75 40.457 322.492H38.582C38.582 321.958 38.4681 321.486 38.2402 321.076C38.0124 320.659 37.6673 320.333 37.2051 320.099C36.7428 319.858 36.1569 319.738 35.4473 319.738C34.7767 319.738 34.2233 319.839 33.7871 320.041C33.3509 320.242 33.0254 320.516 32.8105 320.861C32.6022 321.206 32.498 321.6 32.498 322.042C32.498 322.342 32.5599 322.615 32.6836 322.863C32.8138 323.104 33.0124 323.328 33.2793 323.537C33.5527 323.745 33.8978 323.937 34.3145 324.113C34.7376 324.289 35.2422 324.458 35.8281 324.621C36.6354 324.848 37.332 325.102 37.918 325.382C38.5039 325.662 38.9857 325.978 39.3633 326.33C39.7474 326.675 40.0306 327.069 40.2129 327.511C40.4017 327.947 40.4961 328.442 40.4961 328.996C40.4961 329.575 40.3789 330.099 40.1445 330.568C39.9102 331.037 39.5749 331.437 39.1387 331.769C38.7025 332.101 38.1784 332.358 37.5664 332.541C36.9609 332.716 36.2839 332.804 35.5352 332.804C34.8776 332.804 34.2298 332.713 33.5918 332.531C32.9603 332.348 32.3841 332.075 31.8633 331.71C31.349 331.346 30.9355 330.897 30.623 330.363C30.3171 329.822 30.1641 329.197 30.1641 328.488H32.0391C32.0391 328.976 32.1335 329.396 32.3223 329.748C32.5111 330.093 32.7682 330.379 33.0938 330.607C33.4258 330.835 33.8001 331.004 34.2168 331.115C34.64 331.219 35.0794 331.271 35.5352 331.271C36.1927 331.271 36.7493 331.18 37.2051 330.998C37.6608 330.815 38.0059 330.555 38.2402 330.216C38.4811 329.878 38.6016 329.477 38.6016 329.015ZM42.1465 327.443V327.218C42.1465 326.457 42.2572 325.75 42.4785 325.099C42.6999 324.442 43.0189 323.872 43.4355 323.39C43.8522 322.902 44.3568 322.524 44.9492 322.257C45.5417 321.984 46.2057 321.847 46.9414 321.847C47.6836 321.847 48.3509 321.984 48.9434 322.257C49.5423 322.524 50.0501 322.902 50.4668 323.39C50.89 323.872 51.2122 324.442 51.4336 325.099C51.6549 325.75 51.7656 326.457 51.7656 327.218V327.443C51.7656 328.205 51.6549 328.911 51.4336 329.562C51.2122 330.213 50.89 330.783 50.4668 331.271C50.0501 331.753 49.5456 332.13 48.9531 332.404C48.3672 332.671 47.7031 332.804 46.9609 332.804C46.2188 332.804 45.5514 332.671 44.959 332.404C44.3665 332.13 43.8587 331.753 43.4355 331.271C43.0189 330.783 42.6999 330.213 42.4785 329.562C42.2572 328.911 42.1465 328.205 42.1465 327.443ZM43.9531 327.218V327.443C43.9531 327.97 44.015 328.468 44.1387 328.937C44.2624 329.399 44.4479 329.809 44.6953 330.167C44.9492 330.526 45.265 330.809 45.6426 331.017C46.0202 331.219 46.4596 331.32 46.9609 331.32C47.4557 331.32 47.8887 331.219 48.2598 331.017C48.6374 330.809 48.9499 330.526 49.1973 330.167C49.4447 329.809 49.6302 329.399 49.7539 328.937C49.8841 328.468 49.9492 327.97 49.9492 327.443V327.218C49.9492 326.697 49.8841 326.206 49.7539 325.744C49.6302 325.275 49.4414 324.861 49.1875 324.503C48.9401 324.139 48.6276 323.852 48.25 323.644C47.8789 323.436 47.4427 323.332 46.9414 323.332C46.4466 323.332 46.0104 323.436 45.6328 323.644C45.2617 323.852 44.9492 324.139 44.6953 324.503C44.4479 324.861 44.2624 325.275 44.1387 325.744C44.015 326.206 43.9531 326.697 43.9531 327.218ZM55.8379 323.703V332.609H54.0312V322.042H55.7891L55.8379 323.703ZM59.1387 321.984L59.1289 323.664C58.9792 323.631 58.8359 323.611 58.6992 323.605C58.569 323.592 58.4193 323.585 58.25 323.585C57.8333 323.585 57.4655 323.651 57.1465 323.781C56.8275 323.911 56.5573 324.093 56.3359 324.328C56.1146 324.562 55.9388 324.842 55.8086 325.167C55.6849 325.486 55.6035 325.838 55.5645 326.222L55.0566 326.515C55.0566 325.877 55.1185 325.278 55.2422 324.718C55.3724 324.158 55.571 323.664 55.8379 323.234C56.1048 322.798 56.4434 322.459 56.8535 322.218C57.2702 321.971 57.765 321.847 58.3379 321.847C58.4681 321.847 58.6178 321.863 58.7871 321.896C58.9564 321.922 59.0736 321.951 59.1387 321.984ZM62.6152 323.703V332.609H60.8086V322.042H62.5664L62.6152 323.703ZM65.916 321.984L65.9062 323.664C65.7565 323.631 65.6133 323.611 65.4766 323.605C65.3464 323.592 65.1966 323.585 65.0273 323.585C64.6107 323.585 64.2428 323.651 63.9238 323.781C63.6048 323.911 63.3346 324.093 63.1133 324.328C62.8919 324.562 62.7161 324.842 62.5859 325.167C62.4622 325.486 62.3809 325.838 62.3418 326.222L61.834 326.515C61.834 325.877 61.8958 325.278 62.0195 324.718C62.1497 324.158 62.3483 323.664 62.6152 323.234C62.8822 322.798 63.2207 322.459 63.6309 322.218C64.0475 321.971 64.5423 321.847 65.1152 321.847C65.2454 321.847 65.3952 321.863 65.5645 321.896C65.7337 321.922 65.8509 321.951 65.916 321.984ZM70.7305 331.515L73.6699 322.042H75.6035L71.3652 334.24C71.2676 334.5 71.1374 334.78 70.9746 335.08C70.8184 335.386 70.6165 335.675 70.3691 335.949C70.1217 336.222 69.8223 336.444 69.4707 336.613C69.1257 336.789 68.7122 336.876 68.2305 336.876C68.0872 336.876 67.9049 336.857 67.6836 336.818C67.4622 336.779 67.306 336.746 67.2148 336.72L67.2051 335.255C67.2572 335.262 67.3385 335.268 67.4492 335.275C67.5664 335.288 67.6478 335.294 67.6934 335.294C68.1035 335.294 68.4518 335.239 68.7383 335.128C69.0247 335.024 69.2656 334.845 69.4609 334.591C69.6628 334.344 69.8353 334.002 69.9785 333.566L70.7305 331.515ZM68.5723 322.042L71.3164 330.246L71.7852 332.15L70.4863 332.814L66.5996 322.042H68.5723ZM77.8203 330.46V331.916C77.8203 332.508 77.6706 333.133 77.3711 333.791C77.0716 334.455 76.6517 335.008 76.1113 335.451L75.0859 334.738C75.2943 334.451 75.4701 334.158 75.6133 333.859C75.7565 333.566 75.8639 333.26 75.9355 332.941C76.0137 332.628 76.0527 332.296 76.0527 331.945V330.46H77.8203ZM87.7617 330.734L90.4766 322.042H91.668L91.4336 323.771L88.6699 332.609H87.5078L87.7617 330.734ZM85.9355 322.042L88.25 330.832L88.416 332.609H87.1953L84.1289 322.042H85.9355ZM94.2656 330.763L96.4727 322.042H98.2695L95.2031 332.609H93.9922L94.2656 330.763ZM91.9316 322.042L94.5879 330.587L94.8906 332.609H93.7383L90.8965 323.751L90.6621 322.042H91.9316ZM104.51 332.804C103.774 332.804 103.107 332.681 102.508 332.433C101.915 332.179 101.404 331.824 100.975 331.369C100.551 330.913 100.226 330.373 99.998 329.748C99.7702 329.123 99.6562 328.439 99.6562 327.697V327.287C99.6562 326.427 99.7832 325.662 100.037 324.992C100.291 324.315 100.636 323.742 101.072 323.273C101.508 322.804 102.003 322.449 102.557 322.208C103.11 321.968 103.683 321.847 104.275 321.847C105.031 321.847 105.682 321.977 106.229 322.238C106.782 322.498 107.234 322.863 107.586 323.332C107.938 323.794 108.198 324.341 108.367 324.972C108.536 325.597 108.621 326.281 108.621 327.023V327.833H100.73V326.359H106.814V326.222C106.788 325.753 106.691 325.298 106.521 324.855C106.359 324.412 106.098 324.048 105.74 323.761C105.382 323.475 104.894 323.332 104.275 323.332C103.865 323.332 103.488 323.419 103.143 323.595C102.798 323.764 102.501 324.018 102.254 324.357C102.007 324.695 101.814 325.109 101.678 325.597C101.541 326.085 101.473 326.649 101.473 327.287V327.697C101.473 328.198 101.541 328.67 101.678 329.113C101.821 329.549 102.026 329.933 102.293 330.265C102.566 330.597 102.895 330.858 103.279 331.046C103.67 331.235 104.113 331.33 104.607 331.33C105.245 331.33 105.786 331.199 106.229 330.939C106.671 330.679 107.059 330.33 107.391 329.894L108.484 330.763C108.257 331.108 107.967 331.437 107.615 331.75C107.264 332.062 106.831 332.316 106.316 332.511C105.809 332.707 105.206 332.804 104.51 332.804ZM119.92 331.32C120.35 331.32 120.747 331.232 121.111 331.056C121.476 330.88 121.775 330.639 122.01 330.333C122.244 330.021 122.378 329.666 122.41 329.269H124.129C124.096 329.894 123.885 330.477 123.494 331.017C123.11 331.551 122.605 331.984 121.98 332.316C121.355 332.641 120.669 332.804 119.92 332.804C119.126 332.804 118.432 332.664 117.84 332.384C117.254 332.104 116.766 331.72 116.375 331.232C115.991 330.744 115.701 330.184 115.506 329.552C115.317 328.914 115.223 328.24 115.223 327.531V327.121C115.223 326.411 115.317 325.74 115.506 325.109C115.701 324.471 115.991 323.908 116.375 323.419C116.766 322.931 117.254 322.547 117.84 322.267C118.432 321.987 119.126 321.847 119.92 321.847C120.747 321.847 121.469 322.016 122.088 322.355C122.706 322.687 123.191 323.143 123.543 323.722C123.901 324.295 124.096 324.946 124.129 325.675H122.41C122.378 325.239 122.254 324.845 122.039 324.494C121.831 324.142 121.544 323.862 121.18 323.654C120.822 323.439 120.402 323.332 119.92 323.332C119.367 323.332 118.901 323.442 118.523 323.664C118.152 323.878 117.856 324.171 117.635 324.542C117.42 324.907 117.264 325.314 117.166 325.763C117.075 326.206 117.029 326.658 117.029 327.121V327.531C117.029 327.993 117.075 328.449 117.166 328.898C117.257 329.347 117.41 329.754 117.625 330.119C117.846 330.483 118.143 330.776 118.514 330.998C118.891 331.212 119.36 331.32 119.92 331.32ZM125.682 327.443V327.218C125.682 326.457 125.792 325.75 126.014 325.099C126.235 324.442 126.554 323.872 126.971 323.39C127.387 322.902 127.892 322.524 128.484 322.257C129.077 321.984 129.741 321.847 130.477 321.847C131.219 321.847 131.886 321.984 132.479 322.257C133.077 322.524 133.585 322.902 134.002 323.39C134.425 323.872 134.747 324.442 134.969 325.099C135.19 325.75 135.301 326.457 135.301 327.218V327.443C135.301 328.205 135.19 328.911 134.969 329.562C134.747 330.213 134.425 330.783 134.002 331.271C133.585 331.753 133.081 332.13 132.488 332.404C131.902 332.671 131.238 332.804 130.496 332.804C129.754 332.804 129.087 332.671 128.494 332.404C127.902 332.13 127.394 331.753 126.971 331.271C126.554 330.783 126.235 330.213 126.014 329.562C125.792 328.911 125.682 328.205 125.682 327.443ZM127.488 327.218V327.443C127.488 327.97 127.55 328.468 127.674 328.937C127.798 329.399 127.983 329.809 128.23 330.167C128.484 330.526 128.8 330.809 129.178 331.017C129.555 331.219 129.995 331.32 130.496 331.32C130.991 331.32 131.424 331.219 131.795 331.017C132.173 330.809 132.485 330.526 132.732 330.167C132.98 329.809 133.165 329.399 133.289 328.937C133.419 328.468 133.484 327.97 133.484 327.443V327.218C133.484 326.697 133.419 326.206 133.289 325.744C133.165 325.275 132.977 324.861 132.723 324.503C132.475 324.139 132.163 323.852 131.785 323.644C131.414 323.436 130.978 323.332 130.477 323.332C129.982 323.332 129.546 323.436 129.168 323.644C128.797 323.852 128.484 324.139 128.23 324.503C127.983 324.861 127.798 325.275 127.674 325.744C127.55 326.206 127.488 326.697 127.488 327.218ZM144.031 330.167V322.042H145.848V332.609H144.119L144.031 330.167ZM144.373 327.941L145.125 327.921C145.125 328.625 145.05 329.276 144.9 329.875C144.757 330.467 144.523 330.981 144.197 331.417C143.872 331.854 143.445 332.195 142.918 332.443C142.391 332.684 141.749 332.804 140.994 332.804C140.48 332.804 140.008 332.729 139.578 332.58C139.155 332.43 138.79 332.199 138.484 331.886C138.178 331.574 137.941 331.167 137.771 330.666C137.609 330.164 137.527 329.562 137.527 328.859V322.042H139.334V328.878C139.334 329.354 139.386 329.748 139.49 330.06C139.601 330.366 139.747 330.61 139.93 330.792C140.118 330.968 140.327 331.092 140.555 331.164C140.789 331.235 141.03 331.271 141.277 331.271C142.046 331.271 142.654 331.125 143.104 330.832C143.553 330.532 143.875 330.132 144.07 329.63C144.272 329.123 144.373 328.559 144.373 327.941ZM150.564 317.609V332.609H148.748V317.609H150.564ZM160.125 330.558V317.609H161.941V332.609H160.281L160.125 330.558ZM153.016 327.443V327.238C153.016 326.431 153.113 325.698 153.309 325.041C153.51 324.376 153.794 323.807 154.158 323.332C154.529 322.856 154.969 322.492 155.477 322.238C155.991 321.977 156.564 321.847 157.195 321.847C157.859 321.847 158.439 321.964 158.934 322.199C159.435 322.427 159.858 322.762 160.203 323.205C160.555 323.641 160.831 324.168 161.033 324.787C161.235 325.405 161.375 326.105 161.453 326.886V327.785C161.382 328.559 161.242 329.256 161.033 329.875C160.831 330.493 160.555 331.02 160.203 331.457C159.858 331.893 159.435 332.228 158.934 332.462C158.432 332.69 157.846 332.804 157.176 332.804C156.557 332.804 155.991 332.671 155.477 332.404C154.969 332.137 154.529 331.763 154.158 331.281C153.794 330.799 153.51 330.233 153.309 329.582C153.113 328.924 153.016 328.211 153.016 327.443ZM154.832 327.238V327.443C154.832 327.97 154.884 328.465 154.988 328.927C155.099 329.389 155.268 329.796 155.496 330.148C155.724 330.5 156.014 330.776 156.365 330.978C156.717 331.173 157.137 331.271 157.625 331.271C158.224 331.271 158.715 331.144 159.1 330.89C159.49 330.636 159.803 330.301 160.037 329.884C160.271 329.468 160.454 329.015 160.584 328.527V326.173C160.506 325.815 160.392 325.47 160.242 325.138C160.099 324.8 159.91 324.5 159.676 324.24C159.448 323.973 159.165 323.761 158.826 323.605C158.494 323.449 158.1 323.371 157.645 323.371C157.15 323.371 156.723 323.475 156.365 323.683C156.014 323.885 155.724 324.165 155.496 324.523C155.268 324.875 155.099 325.285 154.988 325.753C154.884 326.216 154.832 326.71 154.832 327.238ZM166.561 324.298V332.609H164.754V322.042H166.463L166.561 324.298ZM166.131 326.925L165.379 326.896C165.385 326.173 165.493 325.506 165.701 324.894C165.91 324.276 166.202 323.738 166.58 323.283C166.958 322.827 167.407 322.475 167.928 322.228C168.455 321.974 169.038 321.847 169.676 321.847C170.197 321.847 170.665 321.919 171.082 322.062C171.499 322.199 171.854 322.42 172.146 322.726C172.446 323.032 172.674 323.429 172.83 323.917C172.986 324.399 173.064 324.988 173.064 325.685V332.609H171.248V325.666C171.248 325.112 171.167 324.669 171.004 324.337C170.841 323.999 170.604 323.755 170.291 323.605C169.979 323.449 169.594 323.371 169.139 323.371C168.689 323.371 168.279 323.465 167.908 323.654C167.544 323.843 167.228 324.103 166.961 324.435C166.701 324.767 166.495 325.148 166.346 325.578C166.202 326.001 166.131 326.45 166.131 326.925ZM175.896 317.609V318.683L175.691 322.277H174.432L174.441 318.849V317.609H175.896ZM182.713 322.042V323.429H177V322.042H182.713ZM178.934 319.474H180.74V329.992C180.74 330.35 180.796 330.62 180.906 330.802C181.017 330.985 181.16 331.105 181.336 331.164C181.512 331.222 181.701 331.251 181.902 331.251C182.052 331.251 182.208 331.238 182.371 331.212C182.54 331.18 182.667 331.154 182.752 331.134L182.762 332.609C182.618 332.654 182.43 332.697 182.195 332.736C181.967 332.781 181.691 332.804 181.365 332.804C180.923 332.804 180.516 332.716 180.145 332.541C179.773 332.365 179.477 332.072 179.256 331.662C179.041 331.245 178.934 330.685 178.934 329.982V319.474ZM192.205 332.609H190.398V321.125C190.398 320.324 190.555 319.647 190.867 319.093C191.18 318.54 191.626 318.12 192.205 317.833C192.785 317.547 193.471 317.404 194.266 317.404C194.734 317.404 195.193 317.462 195.643 317.58C196.092 317.69 196.554 317.83 197.029 318L196.727 319.523C196.427 319.406 196.079 319.295 195.682 319.191C195.291 319.08 194.861 319.025 194.393 319.025C193.618 319.025 193.058 319.201 192.713 319.552C192.374 319.897 192.205 320.421 192.205 321.125V332.609ZM194.363 322.042V323.429H188.729V322.042H194.363ZM197.918 322.042V332.609H196.111V322.042H197.918ZM202.693 324.298V332.609H200.887V322.042H202.596L202.693 324.298ZM202.264 326.925L201.512 326.896C201.518 326.173 201.626 325.506 201.834 324.894C202.042 324.276 202.335 323.738 202.713 323.283C203.09 322.827 203.54 322.475 204.061 322.228C204.588 321.974 205.171 321.847 205.809 321.847C206.329 321.847 206.798 321.919 207.215 322.062C207.632 322.199 207.986 322.42 208.279 322.726C208.579 323.032 208.807 323.429 208.963 323.917C209.119 324.399 209.197 324.988 209.197 325.685V332.609H207.381V325.666C207.381 325.112 207.299 324.669 207.137 324.337C206.974 323.999 206.736 323.755 206.424 323.605C206.111 323.449 205.727 323.371 205.271 323.371C204.822 323.371 204.412 323.465 204.041 323.654C203.676 323.843 203.361 324.103 203.094 324.435C202.833 324.767 202.628 325.148 202.479 325.578C202.335 326.001 202.264 326.45 202.264 326.925ZM218.602 330.558V317.609H220.418V332.609H218.758L218.602 330.558ZM211.492 327.443V327.238C211.492 326.431 211.59 325.698 211.785 325.041C211.987 324.376 212.27 323.807 212.635 323.332C213.006 322.856 213.445 322.492 213.953 322.238C214.467 321.977 215.04 321.847 215.672 321.847C216.336 321.847 216.915 321.964 217.41 322.199C217.911 322.427 218.335 322.762 218.68 323.205C219.031 323.641 219.308 324.168 219.51 324.787C219.712 325.405 219.852 326.105 219.93 326.886V327.785C219.858 328.559 219.718 329.256 219.51 329.875C219.308 330.493 219.031 331.02 218.68 331.457C218.335 331.893 217.911 332.228 217.41 332.462C216.909 332.69 216.323 332.804 215.652 332.804C215.034 332.804 214.467 332.671 213.953 332.404C213.445 332.137 213.006 331.763 212.635 331.281C212.27 330.799 211.987 330.233 211.785 329.582C211.59 328.924 211.492 328.211 211.492 327.443ZM213.309 327.238V327.443C213.309 327.97 213.361 328.465 213.465 328.927C213.576 329.389 213.745 329.796 213.973 330.148C214.201 330.5 214.49 330.776 214.842 330.978C215.193 331.173 215.613 331.271 216.102 331.271C216.701 331.271 217.192 331.144 217.576 330.89C217.967 330.636 218.279 330.301 218.514 329.884C218.748 329.468 218.93 329.015 219.061 328.527V326.173C218.982 325.815 218.868 325.47 218.719 325.138C218.576 324.8 218.387 324.5 218.152 324.24C217.924 323.973 217.641 323.761 217.303 323.605C216.971 323.449 216.577 323.371 216.121 323.371C215.626 323.371 215.2 323.475 214.842 323.683C214.49 323.885 214.201 324.165 213.973 324.523C213.745 324.875 213.576 325.285 213.465 325.753C213.361 326.216 213.309 326.71 213.309 327.238ZM234.422 330.802V325.363C234.422 324.946 234.337 324.585 234.168 324.279C234.005 323.966 233.758 323.725 233.426 323.556C233.094 323.387 232.684 323.302 232.195 323.302C231.74 323.302 231.339 323.38 230.994 323.537C230.656 323.693 230.389 323.898 230.193 324.152C230.005 324.406 229.91 324.679 229.91 324.972H228.104C228.104 324.595 228.201 324.22 228.396 323.849C228.592 323.478 228.872 323.143 229.236 322.843C229.607 322.537 230.05 322.296 230.564 322.121C231.085 321.938 231.665 321.847 232.303 321.847C233.071 321.847 233.748 321.977 234.334 322.238C234.926 322.498 235.389 322.892 235.721 323.419C236.059 323.94 236.229 324.595 236.229 325.382V330.304C236.229 330.656 236.258 331.03 236.316 331.427C236.382 331.824 236.476 332.166 236.6 332.453V332.609H234.715C234.624 332.401 234.552 332.124 234.5 331.779C234.448 331.427 234.422 331.102 234.422 330.802ZM234.734 326.203L234.754 327.472H232.928C232.413 327.472 231.954 327.514 231.551 327.599C231.147 327.677 230.809 327.798 230.535 327.96C230.262 328.123 230.053 328.328 229.91 328.576C229.767 328.817 229.695 329.1 229.695 329.425C229.695 329.757 229.77 330.06 229.92 330.333C230.07 330.607 230.294 330.825 230.594 330.988C230.9 331.144 231.274 331.222 231.717 331.222C232.27 331.222 232.758 331.105 233.182 330.871C233.605 330.636 233.94 330.35 234.188 330.011C234.441 329.673 234.578 329.344 234.598 329.025L235.369 329.894C235.324 330.167 235.2 330.47 234.998 330.802C234.796 331.134 234.526 331.453 234.188 331.759C233.855 332.059 233.458 332.309 232.996 332.511C232.54 332.707 232.026 332.804 231.453 332.804C230.737 332.804 230.109 332.664 229.568 332.384C229.035 332.104 228.618 331.73 228.318 331.261C228.025 330.786 227.879 330.255 227.879 329.669C227.879 329.103 227.99 328.605 228.211 328.175C228.432 327.739 228.751 327.378 229.168 327.091C229.585 326.798 230.086 326.577 230.672 326.427C231.258 326.278 231.912 326.203 232.635 326.203H234.734ZM240.877 324.298V332.609H239.07V322.042H240.779L240.877 324.298ZM240.447 326.925L239.695 326.896C239.702 326.173 239.809 325.506 240.018 324.894C240.226 324.276 240.519 323.738 240.896 323.283C241.274 322.827 241.723 322.475 242.244 322.228C242.771 321.974 243.354 321.847 243.992 321.847C244.513 321.847 244.982 321.919 245.398 322.062C245.815 322.199 246.17 322.42 246.463 322.726C246.762 323.032 246.99 323.429 247.146 323.917C247.303 324.399 247.381 324.988 247.381 325.685V332.609H245.564V325.666C245.564 325.112 245.483 324.669 245.32 324.337C245.158 323.999 244.92 323.755 244.607 323.605C244.295 323.449 243.911 323.371 243.455 323.371C243.006 323.371 242.596 323.465 242.225 323.654C241.86 323.843 241.544 324.103 241.277 324.435C241.017 324.767 240.812 325.148 240.662 325.578C240.519 326.001 240.447 326.45 240.447 326.925ZM253.094 331.515L256.033 322.042H257.967L253.729 334.24C253.631 334.5 253.501 334.78 253.338 335.08C253.182 335.386 252.98 335.675 252.732 335.949C252.485 336.222 252.186 336.444 251.834 336.613C251.489 336.789 251.076 336.876 250.594 336.876C250.451 336.876 250.268 336.857 250.047 336.818C249.826 336.779 249.669 336.746 249.578 336.72L249.568 335.255C249.62 335.262 249.702 335.268 249.812 335.275C249.93 335.288 250.011 335.294 250.057 335.294C250.467 335.294 250.815 335.239 251.102 335.128C251.388 335.024 251.629 334.845 251.824 334.591C252.026 334.344 252.199 334.002 252.342 333.566L253.094 331.515ZM250.936 322.042L253.68 330.246L254.148 332.15L252.85 332.814L248.963 322.042H250.936ZM268.787 331.32C269.217 331.32 269.614 331.232 269.979 331.056C270.343 330.88 270.643 330.639 270.877 330.333C271.111 330.021 271.245 329.666 271.277 329.269H272.996C272.964 329.894 272.752 330.477 272.361 331.017C271.977 331.551 271.473 331.984 270.848 332.316C270.223 332.641 269.536 332.804 268.787 332.804C267.993 332.804 267.299 332.664 266.707 332.384C266.121 332.104 265.633 331.72 265.242 331.232C264.858 330.744 264.568 330.184 264.373 329.552C264.184 328.914 264.09 328.24 264.09 327.531V327.121C264.09 326.411 264.184 325.74 264.373 325.109C264.568 324.471 264.858 323.908 265.242 323.419C265.633 322.931 266.121 322.547 266.707 322.267C267.299 321.987 267.993 321.847 268.787 321.847C269.614 321.847 270.337 322.016 270.955 322.355C271.574 322.687 272.059 323.143 272.41 323.722C272.768 324.295 272.964 324.946 272.996 325.675H271.277C271.245 325.239 271.121 324.845 270.906 324.494C270.698 324.142 270.411 323.862 270.047 323.654C269.689 323.439 269.269 323.332 268.787 323.332C268.234 323.332 267.768 323.442 267.391 323.664C267.02 323.878 266.723 324.171 266.502 324.542C266.287 324.907 266.131 325.314 266.033 325.763C265.942 326.206 265.896 326.658 265.896 327.121V327.531C265.896 327.993 265.942 328.449 266.033 328.898C266.124 329.347 266.277 329.754 266.492 330.119C266.714 330.483 267.01 330.776 267.381 330.998C267.758 331.212 268.227 331.32 268.787 331.32ZM281.258 330.802V325.363C281.258 324.946 281.173 324.585 281.004 324.279C280.841 323.966 280.594 323.725 280.262 323.556C279.93 323.387 279.52 323.302 279.031 323.302C278.576 323.302 278.175 323.38 277.83 323.537C277.492 323.693 277.225 323.898 277.029 324.152C276.84 324.406 276.746 324.679 276.746 324.972H274.939C274.939 324.595 275.037 324.22 275.232 323.849C275.428 323.478 275.708 323.143 276.072 322.843C276.443 322.537 276.886 322.296 277.4 322.121C277.921 321.938 278.501 321.847 279.139 321.847C279.907 321.847 280.584 321.977 281.17 322.238C281.762 322.498 282.225 322.892 282.557 323.419C282.895 323.94 283.064 324.595 283.064 325.382V330.304C283.064 330.656 283.094 331.03 283.152 331.427C283.217 331.824 283.312 332.166 283.436 332.453V332.609H281.551C281.46 332.401 281.388 332.124 281.336 331.779C281.284 331.427 281.258 331.102 281.258 330.802ZM281.57 326.203L281.59 327.472H279.764C279.249 327.472 278.79 327.514 278.387 327.599C277.983 327.677 277.645 327.798 277.371 327.96C277.098 328.123 276.889 328.328 276.746 328.576C276.603 328.817 276.531 329.1 276.531 329.425C276.531 329.757 276.606 330.06 276.756 330.333C276.906 330.607 277.13 330.825 277.43 330.988C277.736 331.144 278.11 331.222 278.553 331.222C279.106 331.222 279.594 331.105 280.018 330.871C280.441 330.636 280.776 330.35 281.023 330.011C281.277 329.673 281.414 329.344 281.434 329.025L282.205 329.894C282.16 330.167 282.036 330.47 281.834 330.802C281.632 331.134 281.362 331.453 281.023 331.759C280.691 332.059 280.294 332.309 279.832 332.511C279.376 332.707 278.862 332.804 278.289 332.804C277.573 332.804 276.945 332.664 276.404 332.384C275.87 332.104 275.454 331.73 275.154 331.261C274.861 330.786 274.715 330.255 274.715 329.669C274.715 329.103 274.826 328.605 275.047 328.175C275.268 327.739 275.587 327.378 276.004 327.091C276.421 326.798 276.922 326.577 277.508 326.427C278.094 326.278 278.748 326.203 279.471 326.203H281.57ZM287.713 323.703V332.609H285.906V322.042H287.664L287.713 323.703ZM291.014 321.984L291.004 323.664C290.854 323.631 290.711 323.611 290.574 323.605C290.444 323.592 290.294 323.585 290.125 323.585C289.708 323.585 289.34 323.651 289.021 323.781C288.702 323.911 288.432 324.093 288.211 324.328C287.99 324.562 287.814 324.842 287.684 325.167C287.56 325.486 287.479 325.838 287.439 326.222L286.932 326.515C286.932 325.877 286.993 325.278 287.117 324.718C287.247 324.158 287.446 323.664 287.713 323.234C287.98 322.798 288.318 322.459 288.729 322.218C289.145 321.971 289.64 321.847 290.213 321.847C290.343 321.847 290.493 321.863 290.662 321.896C290.831 321.922 290.949 321.951 291.014 321.984ZM298.836 329.806C298.836 329.546 298.777 329.305 298.66 329.083C298.549 328.856 298.318 328.651 297.967 328.468C297.622 328.279 297.101 328.117 296.404 327.98C295.818 327.856 295.288 327.71 294.812 327.541C294.344 327.371 293.943 327.166 293.611 326.925C293.286 326.684 293.035 326.401 292.859 326.076C292.684 325.75 292.596 325.369 292.596 324.933C292.596 324.516 292.687 324.123 292.869 323.751C293.058 323.38 293.322 323.052 293.66 322.765C294.005 322.479 294.419 322.254 294.9 322.091C295.382 321.929 295.919 321.847 296.512 321.847C297.358 321.847 298.081 321.997 298.68 322.296C299.279 322.596 299.738 322.996 300.057 323.498C300.376 323.992 300.535 324.542 300.535 325.148H298.729C298.729 324.855 298.641 324.572 298.465 324.298C298.296 324.018 298.045 323.787 297.713 323.605C297.387 323.423 296.987 323.332 296.512 323.332C296.01 323.332 295.604 323.41 295.291 323.566C294.985 323.716 294.76 323.908 294.617 324.142C294.48 324.376 294.412 324.624 294.412 324.884C294.412 325.08 294.445 325.255 294.51 325.412C294.581 325.561 294.705 325.701 294.881 325.832C295.057 325.955 295.304 326.072 295.623 326.183C295.942 326.294 296.349 326.404 296.844 326.515C297.71 326.71 298.423 326.945 298.982 327.218C299.542 327.492 299.959 327.827 300.232 328.224C300.506 328.621 300.643 329.103 300.643 329.669C300.643 330.132 300.545 330.555 300.35 330.939C300.161 331.323 299.884 331.655 299.52 331.935C299.161 332.208 298.732 332.423 298.23 332.58C297.736 332.729 297.179 332.804 296.561 332.804C295.63 332.804 294.842 332.638 294.197 332.306C293.553 331.974 293.064 331.544 292.732 331.017C292.4 330.49 292.234 329.933 292.234 329.347H294.051C294.077 329.842 294.22 330.236 294.48 330.529C294.741 330.815 295.06 331.02 295.438 331.144C295.815 331.261 296.189 331.32 296.561 331.32C297.055 331.32 297.469 331.255 297.801 331.125C298.139 330.994 298.396 330.815 298.572 330.587C298.748 330.36 298.836 330.099 298.836 329.806ZM310.652 330.734L313.367 322.042H314.559L314.324 323.771L311.561 332.609H310.398L310.652 330.734ZM308.826 322.042L311.141 330.832L311.307 332.609H310.086L307.02 322.042H308.826ZM317.156 330.763L319.363 322.042H321.16L318.094 332.609H316.883L317.156 330.763ZM314.822 322.042L317.479 330.587L317.781 332.609H316.629L313.787 323.751L313.553 322.042H314.822ZM324.979 322.042V332.609H323.162V322.042H324.979ZM323.025 319.24C323.025 318.947 323.113 318.699 323.289 318.498C323.471 318.296 323.738 318.195 324.09 318.195C324.435 318.195 324.699 318.296 324.881 318.498C325.07 318.699 325.164 318.947 325.164 319.24C325.164 319.52 325.07 319.761 324.881 319.962C324.699 320.158 324.435 320.255 324.09 320.255C323.738 320.255 323.471 320.158 323.289 319.962C323.113 319.761 323.025 319.52 323.025 319.24ZM332.303 322.042V323.429H326.59V322.042H332.303ZM328.523 319.474H330.33V329.992C330.33 330.35 330.385 330.62 330.496 330.802C330.607 330.985 330.75 331.105 330.926 331.164C331.102 331.222 331.29 331.251 331.492 331.251C331.642 331.251 331.798 331.238 331.961 331.212C332.13 331.18 332.257 331.154 332.342 331.134L332.352 332.609C332.208 332.654 332.02 332.697 331.785 332.736C331.557 332.781 331.281 332.804 330.955 332.804C330.512 332.804 330.105 332.716 329.734 332.541C329.363 332.365 329.067 332.072 328.846 331.662C328.631 331.245 328.523 330.685 328.523 329.982V319.474ZM336.229 317.609V332.609H334.422V317.609H336.229ZM335.799 326.925L335.047 326.896C335.053 326.173 335.161 325.506 335.369 324.894C335.577 324.276 335.87 323.738 336.248 323.283C336.626 322.827 337.075 322.475 337.596 322.228C338.123 321.974 338.706 321.847 339.344 321.847C339.865 321.847 340.333 321.919 340.75 322.062C341.167 322.199 341.521 322.42 341.814 322.726C342.114 323.032 342.342 323.429 342.498 323.917C342.654 324.399 342.732 324.988 342.732 325.685V332.609H340.916V325.666C340.916 325.112 340.835 324.669 340.672 324.337C340.509 323.999 340.271 323.755 339.959 323.605C339.646 323.449 339.262 323.371 338.807 323.371C338.357 323.371 337.947 323.465 337.576 323.654C337.212 323.843 336.896 324.103 336.629 324.435C336.368 324.767 336.163 325.148 336.014 325.578C335.87 326.001 335.799 326.45 335.799 326.925ZM354.822 322.042V323.429H349.109V322.042H354.822ZM351.043 319.474H352.85V329.992C352.85 330.35 352.905 330.62 353.016 330.802C353.126 330.985 353.27 331.105 353.445 331.164C353.621 331.222 353.81 331.251 354.012 331.251C354.161 331.251 354.318 331.238 354.48 331.212C354.65 331.18 354.777 331.154 354.861 331.134L354.871 332.609C354.728 332.654 354.539 332.697 354.305 332.736C354.077 332.781 353.8 332.804 353.475 332.804C353.032 332.804 352.625 332.716 352.254 332.541C351.883 332.365 351.587 332.072 351.365 331.662C351.15 331.245 351.043 330.685 351.043 329.982V319.474ZM358.748 317.609V332.609H356.941V317.609H358.748ZM358.318 326.925L357.566 326.896C357.573 326.173 357.68 325.506 357.889 324.894C358.097 324.276 358.39 323.738 358.768 323.283C359.145 322.827 359.594 322.475 360.115 322.228C360.643 321.974 361.225 321.847 361.863 321.847C362.384 321.847 362.853 321.919 363.27 322.062C363.686 322.199 364.041 322.42 364.334 322.726C364.633 323.032 364.861 323.429 365.018 323.917C365.174 324.399 365.252 324.988 365.252 325.685V332.609H363.436V325.666C363.436 325.112 363.354 324.669 363.191 324.337C363.029 323.999 362.791 323.755 362.479 323.605C362.166 323.449 361.782 323.371 361.326 323.371C360.877 323.371 360.467 323.465 360.096 323.654C359.731 323.843 359.415 324.103 359.148 324.435C358.888 324.767 358.683 325.148 358.533 325.578C358.39 326.001 358.318 326.45 358.318 326.925ZM372.342 332.804C371.606 332.804 370.939 332.681 370.34 332.433C369.747 332.179 369.236 331.824 368.807 331.369C368.383 330.913 368.058 330.373 367.83 329.748C367.602 329.123 367.488 328.439 367.488 327.697V327.287C367.488 326.427 367.615 325.662 367.869 324.992C368.123 324.315 368.468 323.742 368.904 323.273C369.34 322.804 369.835 322.449 370.389 322.208C370.942 321.968 371.515 321.847 372.107 321.847C372.863 321.847 373.514 321.977 374.061 322.238C374.614 322.498 375.066 322.863 375.418 323.332C375.77 323.794 376.03 324.341 376.199 324.972C376.368 325.597 376.453 326.281 376.453 327.023V327.833H368.562V326.359H374.646V326.222C374.62 325.753 374.523 325.298 374.354 324.855C374.191 324.412 373.93 324.048 373.572 323.761C373.214 323.475 372.726 323.332 372.107 323.332C371.697 323.332 371.32 323.419 370.975 323.595C370.63 323.764 370.333 324.018 370.086 324.357C369.839 324.695 369.646 325.109 369.51 325.597C369.373 326.085 369.305 326.649 369.305 327.287V327.697C369.305 328.198 369.373 328.67 369.51 329.113C369.653 329.549 369.858 329.933 370.125 330.265C370.398 330.597 370.727 330.858 371.111 331.046C371.502 331.235 371.945 331.33 372.439 331.33C373.077 331.33 373.618 331.199 374.061 330.939C374.503 330.679 374.891 330.33 375.223 329.894L376.316 330.763C376.089 331.108 375.799 331.437 375.447 331.75C375.096 332.062 374.663 332.316 374.148 332.511C373.641 332.707 373.038 332.804 372.342 332.804ZM385.936 332.609H384.129V321.125C384.129 320.324 384.285 319.647 384.598 319.093C384.91 318.54 385.356 318.12 385.936 317.833C386.515 317.547 387.202 317.404 387.996 317.404C388.465 317.404 388.924 317.462 389.373 317.58C389.822 317.69 390.285 317.83 390.76 318L390.457 319.523C390.158 319.406 389.809 319.295 389.412 319.191C389.021 319.08 388.592 319.025 388.123 319.025C387.348 319.025 386.788 319.201 386.443 319.552C386.105 319.897 385.936 320.421 385.936 321.125V332.609ZM388.094 322.042V323.429H382.459V322.042H388.094ZM391.648 322.042V332.609H389.842V322.042H391.648ZM396.58 317.609V332.609H394.764V317.609H396.58ZM403.904 322.042V323.429H398.191V322.042H403.904ZM400.125 319.474H401.932V329.992C401.932 330.35 401.987 330.62 402.098 330.802C402.208 330.985 402.352 331.105 402.527 331.164C402.703 331.222 402.892 331.251 403.094 331.251C403.243 331.251 403.4 331.238 403.562 331.212C403.732 331.18 403.859 331.154 403.943 331.134L403.953 332.609C403.81 332.654 403.621 332.697 403.387 332.736C403.159 332.781 402.882 332.804 402.557 332.804C402.114 332.804 401.707 332.716 401.336 332.541C400.965 332.365 400.669 332.072 400.447 331.662C400.232 331.245 400.125 330.685 400.125 329.982V319.474ZM410.408 332.804C409.673 332.804 409.005 332.681 408.406 332.433C407.814 332.179 407.303 331.824 406.873 331.369C406.45 330.913 406.124 330.373 405.896 329.748C405.669 329.123 405.555 328.439 405.555 327.697V327.287C405.555 326.427 405.682 325.662 405.936 324.992C406.189 324.315 406.535 323.742 406.971 323.273C407.407 322.804 407.902 322.449 408.455 322.208C409.008 321.968 409.581 321.847 410.174 321.847C410.929 321.847 411.58 321.977 412.127 322.238C412.68 322.498 413.133 322.863 413.484 323.332C413.836 323.794 414.096 324.341 414.266 324.972C414.435 325.597 414.52 326.281 414.52 327.023V327.833H406.629V326.359H412.713V326.222C412.687 325.753 412.589 325.298 412.42 324.855C412.257 324.412 411.997 324.048 411.639 323.761C411.281 323.475 410.792 323.332 410.174 323.332C409.764 323.332 409.386 323.419 409.041 323.595C408.696 323.764 408.4 324.018 408.152 324.357C407.905 324.695 407.713 325.109 407.576 325.597C407.439 326.085 407.371 326.649 407.371 327.287V327.697C407.371 328.198 407.439 328.67 407.576 329.113C407.719 329.549 407.924 329.933 408.191 330.265C408.465 330.597 408.794 330.858 409.178 331.046C409.568 331.235 410.011 331.33 410.506 331.33C411.144 331.33 411.684 331.199 412.127 330.939C412.57 330.679 412.957 330.33 413.289 329.894L414.383 330.763C414.155 331.108 413.865 331.437 413.514 331.75C413.162 332.062 412.729 332.316 412.215 332.511C411.707 332.707 411.105 332.804 410.408 332.804ZM418.436 323.703V332.609H416.629V322.042H418.387L418.436 323.703ZM421.736 321.984L421.727 323.664C421.577 323.631 421.434 323.611 421.297 323.605C421.167 323.592 421.017 323.585 420.848 323.585C420.431 323.585 420.063 323.651 419.744 323.781C419.425 323.911 419.155 324.093 418.934 324.328C418.712 324.562 418.536 324.842 418.406 325.167C418.283 325.486 418.201 325.838 418.162 326.222L417.654 326.515C417.654 325.877 417.716 325.278 417.84 324.718C417.97 324.158 418.169 323.664 418.436 323.234C418.702 322.798 419.041 322.459 419.451 322.218C419.868 321.971 420.363 321.847 420.936 321.847C421.066 321.847 421.215 321.863 421.385 321.896C421.554 321.922 421.671 321.951 421.736 321.984ZM429.559 329.806C429.559 329.546 429.5 329.305 429.383 329.083C429.272 328.856 429.041 328.651 428.689 328.468C428.344 328.279 427.824 328.117 427.127 327.98C426.541 327.856 426.01 327.71 425.535 327.541C425.066 327.371 424.666 327.166 424.334 326.925C424.008 326.684 423.758 326.401 423.582 326.076C423.406 325.75 423.318 325.369 423.318 324.933C423.318 324.516 423.41 324.123 423.592 323.751C423.781 323.38 424.044 323.052 424.383 322.765C424.728 322.479 425.141 322.254 425.623 322.091C426.105 321.929 426.642 321.847 427.234 321.847C428.081 321.847 428.803 321.997 429.402 322.296C430.001 322.596 430.46 322.996 430.779 323.498C431.098 323.992 431.258 324.542 431.258 325.148H429.451C429.451 324.855 429.363 324.572 429.188 324.298C429.018 324.018 428.768 323.787 428.436 323.605C428.11 323.423 427.71 323.332 427.234 323.332C426.733 323.332 426.326 323.41 426.014 323.566C425.708 323.716 425.483 323.908 425.34 324.142C425.203 324.376 425.135 324.624 425.135 324.884C425.135 325.08 425.167 325.255 425.232 325.412C425.304 325.561 425.428 325.701 425.604 325.832C425.779 325.955 426.027 326.072 426.346 326.183C426.665 326.294 427.072 326.404 427.566 326.515C428.432 326.71 429.145 326.945 429.705 327.218C430.265 327.492 430.682 327.827 430.955 328.224C431.229 328.621 431.365 329.103 431.365 329.669C431.365 330.132 431.268 330.555 431.072 330.939C430.883 331.323 430.607 331.655 430.242 331.935C429.884 332.208 429.454 332.423 428.953 332.58C428.458 332.729 427.902 332.804 427.283 332.804C426.352 332.804 425.564 332.638 424.92 332.306C424.275 331.974 423.787 331.544 423.455 331.017C423.123 330.49 422.957 329.933 422.957 329.347H424.773C424.799 329.842 424.943 330.236 425.203 330.529C425.464 330.815 425.783 331.02 426.16 331.144C426.538 331.261 426.912 331.32 427.283 331.32C427.778 331.32 428.191 331.255 428.523 331.125C428.862 330.994 429.119 330.815 429.295 330.587C429.471 330.36 429.559 330.099 429.559 329.806ZM441.668 331.515L444.607 322.042H446.541L442.303 334.24C442.205 334.5 442.075 334.78 441.912 335.08C441.756 335.386 441.554 335.675 441.307 335.949C441.059 336.222 440.76 336.444 440.408 336.613C440.063 336.789 439.65 336.876 439.168 336.876C439.025 336.876 438.842 336.857 438.621 336.818C438.4 336.779 438.243 336.746 438.152 336.72L438.143 335.255C438.195 335.262 438.276 335.268 438.387 335.275C438.504 335.288 438.585 335.294 438.631 335.294C439.041 335.294 439.389 335.239 439.676 335.128C439.962 335.024 440.203 334.845 440.398 334.591C440.6 334.344 440.773 334.002 440.916 333.566L441.668 331.515ZM439.51 322.042L442.254 330.246L442.723 332.15L441.424 332.814L437.537 322.042H439.51ZM447.537 327.443V327.218C447.537 326.457 447.648 325.75 447.869 325.099C448.09 324.442 448.41 323.872 448.826 323.39C449.243 322.902 449.747 322.524 450.34 322.257C450.932 321.984 451.596 321.847 452.332 321.847C453.074 321.847 453.742 321.984 454.334 322.257C454.933 322.524 455.441 322.902 455.857 323.39C456.281 323.872 456.603 324.442 456.824 325.099C457.046 325.75 457.156 326.457 457.156 327.218V327.443C457.156 328.205 457.046 328.911 456.824 329.562C456.603 330.213 456.281 330.783 455.857 331.271C455.441 331.753 454.936 332.13 454.344 332.404C453.758 332.671 453.094 332.804 452.352 332.804C451.609 332.804 450.942 332.671 450.35 332.404C449.757 332.13 449.249 331.753 448.826 331.271C448.41 330.783 448.09 330.213 447.869 329.562C447.648 328.911 447.537 328.205 447.537 327.443ZM449.344 327.218V327.443C449.344 327.97 449.406 328.468 449.529 328.937C449.653 329.399 449.839 329.809 450.086 330.167C450.34 330.526 450.656 330.809 451.033 331.017C451.411 331.219 451.85 331.32 452.352 331.32C452.846 331.32 453.279 331.219 453.65 331.017C454.028 330.809 454.34 330.526 454.588 330.167C454.835 329.809 455.021 329.399 455.145 328.937C455.275 328.468 455.34 327.97 455.34 327.443V327.218C455.34 326.697 455.275 326.206 455.145 325.744C455.021 325.275 454.832 324.861 454.578 324.503C454.331 324.139 454.018 323.852 453.641 323.644C453.27 323.436 452.833 323.332 452.332 323.332C451.837 323.332 451.401 323.436 451.023 323.644C450.652 323.852 450.34 324.139 450.086 324.503C449.839 324.861 449.653 325.275 449.529 325.744C449.406 326.206 449.344 326.697 449.344 327.218ZM465.887 330.167V322.042H467.703V332.609H465.975L465.887 330.167ZM466.229 327.941L466.98 327.921C466.98 328.625 466.906 329.276 466.756 329.875C466.613 330.467 466.378 330.981 466.053 331.417C465.727 331.854 465.301 332.195 464.773 332.443C464.246 332.684 463.605 332.804 462.85 332.804C462.335 332.804 461.863 332.729 461.434 332.58C461.01 332.43 460.646 332.199 460.34 331.886C460.034 331.574 459.796 331.167 459.627 330.666C459.464 330.164 459.383 329.562 459.383 328.859V322.042H461.189V328.878C461.189 329.354 461.242 329.748 461.346 330.06C461.456 330.366 461.603 330.61 461.785 330.792C461.974 330.968 462.182 331.092 462.41 331.164C462.645 331.235 462.885 331.271 463.133 331.271C463.901 331.271 464.51 331.125 464.959 330.832C465.408 330.532 465.73 330.132 465.926 329.63C466.128 329.123 466.229 328.559 466.229 327.941ZM481.57 329.806C481.57 329.546 481.512 329.305 481.395 329.083C481.284 328.856 481.053 328.651 480.701 328.468C480.356 328.279 479.835 328.117 479.139 327.98C478.553 327.856 478.022 327.71 477.547 327.541C477.078 327.371 476.678 327.166 476.346 326.925C476.02 326.684 475.77 326.401 475.594 326.076C475.418 325.75 475.33 325.369 475.33 324.933C475.33 324.516 475.421 324.123 475.604 323.751C475.792 323.38 476.056 323.052 476.395 322.765C476.74 322.479 477.153 322.254 477.635 322.091C478.117 321.929 478.654 321.847 479.246 321.847C480.092 321.847 480.815 321.997 481.414 322.296C482.013 322.596 482.472 322.996 482.791 323.498C483.11 323.992 483.27 324.542 483.27 325.148H481.463C481.463 324.855 481.375 324.572 481.199 324.298C481.03 324.018 480.779 323.787 480.447 323.605C480.122 323.423 479.721 323.332 479.246 323.332C478.745 323.332 478.338 323.41 478.025 323.566C477.719 323.716 477.495 323.908 477.352 324.142C477.215 324.376 477.146 324.624 477.146 324.884C477.146 325.08 477.179 325.255 477.244 325.412C477.316 325.561 477.439 325.701 477.615 325.832C477.791 325.955 478.038 326.072 478.357 326.183C478.676 326.294 479.083 326.404 479.578 326.515C480.444 326.71 481.157 326.945 481.717 327.218C482.277 327.492 482.693 327.827 482.967 328.224C483.24 328.621 483.377 329.103 483.377 329.669C483.377 330.132 483.279 330.555 483.084 330.939C482.895 331.323 482.618 331.655 482.254 331.935C481.896 332.208 481.466 332.423 480.965 332.58C480.47 332.729 479.913 332.804 479.295 332.804C478.364 332.804 477.576 332.638 476.932 332.306C476.287 331.974 475.799 331.544 475.467 331.017C475.135 330.49 474.969 329.933 474.969 329.347H476.785C476.811 329.842 476.954 330.236 477.215 330.529C477.475 330.815 477.794 331.02 478.172 331.144C478.549 331.261 478.924 331.32 479.295 331.32C479.79 331.32 480.203 331.255 480.535 331.125C480.874 330.994 481.131 330.815 481.307 330.587C481.482 330.36 481.57 330.099 481.57 329.806ZM490.135 332.804C489.399 332.804 488.732 332.681 488.133 332.433C487.54 332.179 487.029 331.824 486.6 331.369C486.176 330.913 485.851 330.373 485.623 329.748C485.395 329.123 485.281 328.439 485.281 327.697V327.287C485.281 326.427 485.408 325.662 485.662 324.992C485.916 324.315 486.261 323.742 486.697 323.273C487.133 322.804 487.628 322.449 488.182 322.208C488.735 321.968 489.308 321.847 489.9 321.847C490.656 321.847 491.307 321.977 491.854 322.238C492.407 322.498 492.859 322.863 493.211 323.332C493.562 323.794 493.823 324.341 493.992 324.972C494.161 325.597 494.246 326.281 494.246 327.023V327.833H486.355V326.359H492.439V326.222C492.413 325.753 492.316 325.298 492.146 324.855C491.984 324.412 491.723 324.048 491.365 323.761C491.007 323.475 490.519 323.332 489.9 323.332C489.49 323.332 489.113 323.419 488.768 323.595C488.423 323.764 488.126 324.018 487.879 324.357C487.632 324.695 487.439 325.109 487.303 325.597C487.166 326.085 487.098 326.649 487.098 327.287V327.697C487.098 328.198 487.166 328.67 487.303 329.113C487.446 329.549 487.651 329.933 487.918 330.265C488.191 330.597 488.52 330.858 488.904 331.046C489.295 331.235 489.738 331.33 490.232 331.33C490.87 331.33 491.411 331.199 491.854 330.939C492.296 330.679 492.684 330.33 493.016 329.894L494.109 330.763C493.882 331.108 493.592 331.437 493.24 331.75C492.889 332.062 492.456 332.316 491.941 332.511C491.434 332.707 490.831 332.804 490.135 332.804ZM498.318 317.609V332.609H496.502V317.609H498.318ZM505.604 332.804C504.868 332.804 504.201 332.681 503.602 332.433C503.009 332.179 502.498 331.824 502.068 331.369C501.645 330.913 501.32 330.373 501.092 329.748C500.864 329.123 500.75 328.439 500.75 327.697V327.287C500.75 326.427 500.877 325.662 501.131 324.992C501.385 324.315 501.73 323.742 502.166 323.273C502.602 322.804 503.097 322.449 503.65 322.208C504.204 321.968 504.777 321.847 505.369 321.847C506.124 321.847 506.775 321.977 507.322 322.238C507.876 322.498 508.328 322.863 508.68 323.332C509.031 323.794 509.292 324.341 509.461 324.972C509.63 325.597 509.715 326.281 509.715 327.023V327.833H501.824V326.359H507.908V326.222C507.882 325.753 507.785 325.298 507.615 324.855C507.452 324.412 507.192 324.048 506.834 323.761C506.476 323.475 505.988 323.332 505.369 323.332C504.959 323.332 504.581 323.419 504.236 323.595C503.891 323.764 503.595 324.018 503.348 324.357C503.1 324.695 502.908 325.109 502.771 325.597C502.635 326.085 502.566 326.649 502.566 327.287V327.697C502.566 328.198 502.635 328.67 502.771 329.113C502.915 329.549 503.12 329.933 503.387 330.265C503.66 330.597 503.989 330.858 504.373 331.046C504.764 331.235 505.206 331.33 505.701 331.33C506.339 331.33 506.88 331.199 507.322 330.939C507.765 330.679 508.152 330.33 508.484 329.894L509.578 330.763C509.35 331.108 509.061 331.437 508.709 331.75C508.357 332.062 507.924 332.316 507.41 332.511C506.902 332.707 506.3 332.804 505.604 332.804ZM516.053 331.32C516.482 331.32 516.88 331.232 517.244 331.056C517.609 330.88 517.908 330.639 518.143 330.333C518.377 330.021 518.51 329.666 518.543 329.269H520.262C520.229 329.894 520.018 330.477 519.627 331.017C519.243 331.551 518.738 331.984 518.113 332.316C517.488 332.641 516.801 332.804 516.053 332.804C515.258 332.804 514.565 332.664 513.973 332.384C513.387 332.104 512.898 331.72 512.508 331.232C512.124 330.744 511.834 330.184 511.639 329.552C511.45 328.914 511.355 328.24 511.355 327.531V327.121C511.355 326.411 511.45 325.74 511.639 325.109C511.834 324.471 512.124 323.908 512.508 323.419C512.898 322.931 513.387 322.547 513.973 322.267C514.565 321.987 515.258 321.847 516.053 321.847C516.88 321.847 517.602 322.016 518.221 322.355C518.839 322.687 519.324 323.143 519.676 323.722C520.034 324.295 520.229 324.946 520.262 325.675H518.543C518.51 325.239 518.387 324.845 518.172 324.494C517.964 324.142 517.677 323.862 517.312 323.654C516.954 323.439 516.535 323.332 516.053 323.332C515.499 323.332 515.034 323.442 514.656 323.664C514.285 323.878 513.989 324.171 513.768 324.542C513.553 324.907 513.396 325.314 513.299 325.763C513.208 326.206 513.162 326.658 513.162 327.121V327.531C513.162 327.993 513.208 328.449 513.299 328.898C513.39 329.347 513.543 329.754 513.758 330.119C513.979 330.483 514.275 330.776 514.646 330.998C515.024 331.212 515.493 331.32 516.053 331.32ZM526.717 322.042V323.429H521.004V322.042H526.717ZM522.938 319.474H524.744V329.992C524.744 330.35 524.799 330.62 524.91 330.802C525.021 330.985 525.164 331.105 525.34 331.164C525.516 331.222 525.704 331.251 525.906 331.251C526.056 331.251 526.212 331.238 526.375 331.212C526.544 331.18 526.671 331.154 526.756 331.134L526.766 332.609C526.622 332.654 526.434 332.697 526.199 332.736C525.971 332.781 525.695 332.804 525.369 332.804C524.926 332.804 524.52 332.716 524.148 332.541C523.777 332.365 523.481 332.072 523.26 331.662C523.045 331.245 522.938 330.685 522.938 329.982V319.474ZM533.221 332.804C532.485 332.804 531.818 332.681 531.219 332.433C530.626 332.179 530.115 331.824 529.686 331.369C529.262 330.913 528.937 330.373 528.709 329.748C528.481 329.123 528.367 328.439 528.367 327.697V327.287C528.367 326.427 528.494 325.662 528.748 324.992C529.002 324.315 529.347 323.742 529.783 323.273C530.219 322.804 530.714 322.449 531.268 322.208C531.821 321.968 532.394 321.847 532.986 321.847C533.742 321.847 534.393 321.977 534.939 322.238C535.493 322.498 535.945 322.863 536.297 323.332C536.648 323.794 536.909 324.341 537.078 324.972C537.247 325.597 537.332 326.281 537.332 327.023V327.833H529.441V326.359H535.525V326.222C535.499 325.753 535.402 325.298 535.232 324.855C535.07 324.412 534.809 324.048 534.451 323.761C534.093 323.475 533.605 323.332 532.986 323.332C532.576 323.332 532.199 323.419 531.854 323.595C531.508 323.764 531.212 324.018 530.965 324.357C530.717 324.695 530.525 325.109 530.389 325.597C530.252 326.085 530.184 326.649 530.184 327.287V327.697C530.184 328.198 530.252 328.67 530.389 329.113C530.532 329.549 530.737 329.933 531.004 330.265C531.277 330.597 531.606 330.858 531.99 331.046C532.381 331.235 532.824 331.33 533.318 331.33C533.956 331.33 534.497 331.199 534.939 330.939C535.382 330.679 535.77 330.33 536.102 329.894L537.195 330.763C536.967 331.108 536.678 331.437 536.326 331.75C535.975 332.062 535.542 332.316 535.027 332.511C534.52 332.707 533.917 332.804 533.221 332.804ZM546.102 330.558V317.609H547.918V332.609H546.258L546.102 330.558ZM538.992 327.443V327.238C538.992 326.431 539.09 325.698 539.285 325.041C539.487 324.376 539.77 323.807 540.135 323.332C540.506 322.856 540.945 322.492 541.453 322.238C541.967 321.977 542.54 321.847 543.172 321.847C543.836 321.847 544.415 321.964 544.91 322.199C545.411 322.427 545.835 322.762 546.18 323.205C546.531 323.641 546.808 324.168 547.01 324.787C547.212 325.405 547.352 326.105 547.43 326.886V327.785C547.358 328.559 547.218 329.256 547.01 329.875C546.808 330.493 546.531 331.02 546.18 331.457C545.835 331.893 545.411 332.228 544.91 332.462C544.409 332.69 543.823 332.804 543.152 332.804C542.534 332.804 541.967 332.671 541.453 332.404C540.945 332.137 540.506 331.763 540.135 331.281C539.77 330.799 539.487 330.233 539.285 329.582C539.09 328.924 538.992 328.211 538.992 327.443ZM540.809 327.238V327.443C540.809 327.97 540.861 328.465 540.965 328.927C541.076 329.389 541.245 329.796 541.473 330.148C541.701 330.5 541.99 330.776 542.342 330.978C542.693 331.173 543.113 331.271 543.602 331.271C544.201 331.271 544.692 331.144 545.076 330.89C545.467 330.636 545.779 330.301 546.014 329.884C546.248 329.468 546.43 329.015 546.561 328.527V326.173C546.482 325.815 546.368 325.47 546.219 325.138C546.076 324.8 545.887 324.5 545.652 324.24C545.424 323.973 545.141 323.761 544.803 323.605C544.471 323.449 544.077 323.371 543.621 323.371C543.126 323.371 542.7 323.475 542.342 323.683C541.99 323.885 541.701 324.165 541.473 324.523C541.245 324.875 541.076 325.285 540.965 325.753C540.861 326.216 540.809 326.71 540.809 327.238ZM550.76 331.652C550.76 331.346 550.854 331.089 551.043 330.88C551.238 330.666 551.518 330.558 551.883 330.558C552.247 330.558 552.524 330.666 552.713 330.88C552.908 331.089 553.006 331.346 553.006 331.652C553.006 331.951 552.908 332.205 552.713 332.414C552.524 332.622 552.247 332.726 551.883 332.726C551.518 332.726 551.238 332.622 551.043 332.414C550.854 332.205 550.76 331.951 550.76 331.652ZM143.66 355.033H139.861V353.5H143.66C144.396 353.5 144.992 353.382 145.447 353.148C145.903 352.914 146.235 352.588 146.443 352.171C146.658 351.755 146.766 351.279 146.766 350.746C146.766 350.257 146.658 349.798 146.443 349.369C146.235 348.939 145.903 348.594 145.447 348.333C144.992 348.067 144.396 347.933 143.66 347.933H140.301V360.609H138.416V346.39H143.66C144.734 346.39 145.643 346.576 146.385 346.947C147.127 347.318 147.69 347.832 148.074 348.49C148.458 349.141 148.65 349.886 148.65 350.726C148.65 351.638 148.458 352.416 148.074 353.06C147.69 353.705 147.127 354.196 146.385 354.535C145.643 354.867 144.734 355.033 143.66 355.033ZM152.723 345.609V360.609H150.906V345.609H152.723ZM160.008 360.804C159.272 360.804 158.605 360.681 158.006 360.433C157.413 360.179 156.902 359.824 156.473 359.369C156.049 358.913 155.724 358.373 155.496 357.748C155.268 357.123 155.154 356.439 155.154 355.697V355.287C155.154 354.427 155.281 353.662 155.535 352.992C155.789 352.315 156.134 351.742 156.57 351.273C157.007 350.804 157.501 350.449 158.055 350.208C158.608 349.968 159.181 349.847 159.773 349.847C160.529 349.847 161.18 349.977 161.727 350.238C162.28 350.498 162.732 350.863 163.084 351.332C163.436 351.794 163.696 352.341 163.865 352.972C164.035 353.597 164.119 354.281 164.119 355.023V355.833H156.229V354.359H162.312V354.222C162.286 353.753 162.189 353.298 162.02 352.855C161.857 352.412 161.596 352.048 161.238 351.761C160.88 351.475 160.392 351.332 159.773 351.332C159.363 351.332 158.986 351.419 158.641 351.595C158.296 351.764 157.999 352.018 157.752 352.357C157.505 352.695 157.312 353.109 157.176 353.597C157.039 354.085 156.971 354.649 156.971 355.287V355.697C156.971 356.198 157.039 356.67 157.176 357.113C157.319 357.549 157.524 357.933 157.791 358.265C158.064 358.597 158.393 358.858 158.777 359.046C159.168 359.235 159.611 359.33 160.105 359.33C160.743 359.33 161.284 359.199 161.727 358.939C162.169 358.679 162.557 358.33 162.889 357.894L163.982 358.763C163.755 359.108 163.465 359.437 163.113 359.75C162.762 360.062 162.329 360.316 161.814 360.511C161.307 360.707 160.704 360.804 160.008 360.804ZM172.459 358.802V353.363C172.459 352.946 172.374 352.585 172.205 352.279C172.042 351.966 171.795 351.725 171.463 351.556C171.131 351.387 170.721 351.302 170.232 351.302C169.777 351.302 169.376 351.38 169.031 351.537C168.693 351.693 168.426 351.898 168.23 352.152C168.042 352.406 167.947 352.679 167.947 352.972H166.141C166.141 352.595 166.238 352.22 166.434 351.849C166.629 351.478 166.909 351.143 167.273 350.843C167.645 350.537 168.087 350.296 168.602 350.121C169.122 349.938 169.702 349.847 170.34 349.847C171.108 349.847 171.785 349.977 172.371 350.238C172.964 350.498 173.426 350.892 173.758 351.419C174.096 351.94 174.266 352.595 174.266 353.382V358.304C174.266 358.656 174.295 359.03 174.354 359.427C174.419 359.824 174.513 360.166 174.637 360.453V360.609H172.752C172.661 360.401 172.589 360.124 172.537 359.779C172.485 359.427 172.459 359.102 172.459 358.802ZM172.771 354.203L172.791 355.472H170.965C170.451 355.472 169.992 355.514 169.588 355.599C169.184 355.677 168.846 355.798 168.572 355.96C168.299 356.123 168.09 356.328 167.947 356.576C167.804 356.817 167.732 357.1 167.732 357.425C167.732 357.757 167.807 358.06 167.957 358.333C168.107 358.607 168.331 358.825 168.631 358.988C168.937 359.144 169.311 359.222 169.754 359.222C170.307 359.222 170.796 359.105 171.219 358.871C171.642 358.636 171.977 358.35 172.225 358.011C172.479 357.673 172.615 357.344 172.635 357.025L173.406 357.894C173.361 358.167 173.237 358.47 173.035 358.802C172.833 359.134 172.563 359.453 172.225 359.759C171.893 360.059 171.495 360.309 171.033 360.511C170.577 360.707 170.063 360.804 169.49 360.804C168.774 360.804 168.146 360.664 167.605 360.384C167.072 360.104 166.655 359.73 166.355 359.261C166.062 358.786 165.916 358.255 165.916 357.669C165.916 357.103 166.027 356.605 166.248 356.175C166.469 355.739 166.788 355.378 167.205 355.091C167.622 354.798 168.123 354.577 168.709 354.427C169.295 354.278 169.949 354.203 170.672 354.203H172.771ZM183.26 357.806C183.26 357.546 183.201 357.305 183.084 357.083C182.973 356.856 182.742 356.651 182.391 356.468C182.046 356.279 181.525 356.117 180.828 355.98C180.242 355.856 179.712 355.71 179.236 355.541C178.768 355.371 178.367 355.166 178.035 354.925C177.71 354.684 177.459 354.401 177.283 354.076C177.107 353.75 177.02 353.369 177.02 352.933C177.02 352.516 177.111 352.123 177.293 351.751C177.482 351.38 177.745 351.052 178.084 350.765C178.429 350.479 178.842 350.254 179.324 350.091C179.806 349.929 180.343 349.847 180.936 349.847C181.782 349.847 182.505 349.997 183.104 350.296C183.702 350.596 184.161 350.996 184.48 351.498C184.799 351.992 184.959 352.542 184.959 353.148H183.152C183.152 352.855 183.064 352.572 182.889 352.298C182.719 352.018 182.469 351.787 182.137 351.605C181.811 351.423 181.411 351.332 180.936 351.332C180.434 351.332 180.027 351.41 179.715 351.566C179.409 351.716 179.184 351.908 179.041 352.142C178.904 352.376 178.836 352.624 178.836 352.884C178.836 353.08 178.868 353.255 178.934 353.412C179.005 353.561 179.129 353.701 179.305 353.832C179.48 353.955 179.728 354.072 180.047 354.183C180.366 354.294 180.773 354.404 181.268 354.515C182.133 354.71 182.846 354.945 183.406 355.218C183.966 355.492 184.383 355.827 184.656 356.224C184.93 356.621 185.066 357.103 185.066 357.669C185.066 358.132 184.969 358.555 184.773 358.939C184.585 359.323 184.308 359.655 183.943 359.935C183.585 360.208 183.156 360.423 182.654 360.58C182.16 360.729 181.603 360.804 180.984 360.804C180.053 360.804 179.266 360.638 178.621 360.306C177.977 359.974 177.488 359.544 177.156 359.017C176.824 358.49 176.658 357.933 176.658 357.347H178.475C178.501 357.842 178.644 358.236 178.904 358.529C179.165 358.815 179.484 359.02 179.861 359.144C180.239 359.261 180.613 359.32 180.984 359.32C181.479 359.32 181.893 359.255 182.225 359.125C182.563 358.994 182.82 358.815 182.996 358.587C183.172 358.36 183.26 358.099 183.26 357.806ZM191.824 360.804C191.089 360.804 190.421 360.681 189.822 360.433C189.23 360.179 188.719 359.824 188.289 359.369C187.866 358.913 187.54 358.373 187.312 357.748C187.085 357.123 186.971 356.439 186.971 355.697V355.287C186.971 354.427 187.098 353.662 187.352 352.992C187.605 352.315 187.951 351.742 188.387 351.273C188.823 350.804 189.318 350.449 189.871 350.208C190.424 349.968 190.997 349.847 191.59 349.847C192.345 349.847 192.996 349.977 193.543 350.238C194.096 350.498 194.549 350.863 194.9 351.332C195.252 351.794 195.512 352.341 195.682 352.972C195.851 353.597 195.936 354.281 195.936 355.023V355.833H188.045V354.359H194.129V354.222C194.103 353.753 194.005 353.298 193.836 352.855C193.673 352.412 193.413 352.048 193.055 351.761C192.697 351.475 192.208 351.332 191.59 351.332C191.18 351.332 190.802 351.419 190.457 351.595C190.112 351.764 189.816 352.018 189.568 352.357C189.321 352.695 189.129 353.109 188.992 353.597C188.855 354.085 188.787 354.649 188.787 355.287V355.697C188.787 356.198 188.855 356.67 188.992 357.113C189.135 357.549 189.34 357.933 189.607 358.265C189.881 358.597 190.21 358.858 190.594 359.046C190.984 359.235 191.427 359.33 191.922 359.33C192.56 359.33 193.1 359.199 193.543 358.939C193.986 358.679 194.373 358.33 194.705 357.894L195.799 358.763C195.571 359.108 195.281 359.437 194.93 359.75C194.578 360.062 194.145 360.316 193.631 360.511C193.123 360.707 192.521 360.804 191.824 360.804ZM207.234 359.32C207.664 359.32 208.061 359.232 208.426 359.056C208.79 358.88 209.09 358.639 209.324 358.333C209.559 358.021 209.692 357.666 209.725 357.269H211.443C211.411 357.894 211.199 358.477 210.809 359.017C210.424 359.551 209.92 359.984 209.295 360.316C208.67 360.641 207.983 360.804 207.234 360.804C206.44 360.804 205.747 360.664 205.154 360.384C204.568 360.104 204.08 359.72 203.689 359.232C203.305 358.744 203.016 358.184 202.82 357.552C202.632 356.914 202.537 356.24 202.537 355.531V355.121C202.537 354.411 202.632 353.74 202.82 353.109C203.016 352.471 203.305 351.908 203.689 351.419C204.08 350.931 204.568 350.547 205.154 350.267C205.747 349.987 206.44 349.847 207.234 349.847C208.061 349.847 208.784 350.016 209.402 350.355C210.021 350.687 210.506 351.143 210.857 351.722C211.215 352.295 211.411 352.946 211.443 353.675H209.725C209.692 353.239 209.568 352.845 209.354 352.494C209.145 352.142 208.859 351.862 208.494 351.654C208.136 351.439 207.716 351.332 207.234 351.332C206.681 351.332 206.215 351.442 205.838 351.664C205.467 351.878 205.171 352.171 204.949 352.542C204.734 352.907 204.578 353.314 204.48 353.763C204.389 354.206 204.344 354.658 204.344 355.121V355.531C204.344 355.993 204.389 356.449 204.48 356.898C204.572 357.347 204.725 357.754 204.939 358.119C205.161 358.483 205.457 358.776 205.828 358.998C206.206 359.212 206.674 359.32 207.234 359.32ZM215.281 345.609V360.609H213.475V345.609H215.281ZM214.852 354.925L214.1 354.896C214.106 354.173 214.214 353.506 214.422 352.894C214.63 352.276 214.923 351.738 215.301 351.283C215.678 350.827 216.128 350.475 216.648 350.228C217.176 349.974 217.758 349.847 218.396 349.847C218.917 349.847 219.386 349.919 219.803 350.062C220.219 350.199 220.574 350.42 220.867 350.726C221.167 351.032 221.395 351.429 221.551 351.917C221.707 352.399 221.785 352.988 221.785 353.685V360.609H219.969V353.666C219.969 353.112 219.887 352.669 219.725 352.337C219.562 351.999 219.324 351.755 219.012 351.605C218.699 351.449 218.315 351.371 217.859 351.371C217.41 351.371 217 351.465 216.629 351.654C216.264 351.843 215.949 352.103 215.682 352.435C215.421 352.767 215.216 353.148 215.066 353.578C214.923 354.001 214.852 354.45 214.852 354.925ZM230.721 358.802V353.363C230.721 352.946 230.636 352.585 230.467 352.279C230.304 351.966 230.057 351.725 229.725 351.556C229.393 351.387 228.982 351.302 228.494 351.302C228.038 351.302 227.638 351.38 227.293 351.537C226.954 351.693 226.688 351.898 226.492 352.152C226.303 352.406 226.209 352.679 226.209 352.972H224.402C224.402 352.595 224.5 352.22 224.695 351.849C224.891 351.478 225.171 351.143 225.535 350.843C225.906 350.537 226.349 350.296 226.863 350.121C227.384 349.938 227.964 349.847 228.602 349.847C229.37 349.847 230.047 349.977 230.633 350.238C231.225 350.498 231.688 350.892 232.02 351.419C232.358 351.94 232.527 352.595 232.527 353.382V358.304C232.527 358.656 232.557 359.03 232.615 359.427C232.68 359.824 232.775 360.166 232.898 360.453V360.609H231.014C230.923 360.401 230.851 360.124 230.799 359.779C230.747 359.427 230.721 359.102 230.721 358.802ZM231.033 354.203L231.053 355.472H229.227C228.712 355.472 228.253 355.514 227.85 355.599C227.446 355.677 227.107 355.798 226.834 355.96C226.561 356.123 226.352 356.328 226.209 356.576C226.066 356.817 225.994 357.1 225.994 357.425C225.994 357.757 226.069 358.06 226.219 358.333C226.368 358.607 226.593 358.825 226.893 358.988C227.199 359.144 227.573 359.222 228.016 359.222C228.569 359.222 229.057 359.105 229.48 358.871C229.904 358.636 230.239 358.35 230.486 358.011C230.74 357.673 230.877 357.344 230.896 357.025L231.668 357.894C231.622 358.167 231.499 358.47 231.297 358.802C231.095 359.134 230.825 359.453 230.486 359.759C230.154 360.059 229.757 360.309 229.295 360.511C228.839 360.707 228.325 360.804 227.752 360.804C227.036 360.804 226.408 360.664 225.867 360.384C225.333 360.104 224.917 359.73 224.617 359.261C224.324 358.786 224.178 358.255 224.178 357.669C224.178 357.103 224.288 356.605 224.51 356.175C224.731 355.739 225.05 355.378 225.467 355.091C225.883 354.798 226.385 354.577 226.971 354.427C227.557 354.278 228.211 354.203 228.934 354.203H231.033ZM237.176 352.298V360.609H235.369V350.042H237.078L237.176 352.298ZM236.746 354.925L235.994 354.896C236.001 354.173 236.108 353.506 236.316 352.894C236.525 352.276 236.818 351.738 237.195 351.283C237.573 350.827 238.022 350.475 238.543 350.228C239.07 349.974 239.653 349.847 240.291 349.847C240.812 349.847 241.281 349.919 241.697 350.062C242.114 350.199 242.469 350.42 242.762 350.726C243.061 351.032 243.289 351.429 243.445 351.917C243.602 352.399 243.68 352.988 243.68 353.685V360.609H241.863V353.666C241.863 353.112 241.782 352.669 241.619 352.337C241.456 351.999 241.219 351.755 240.906 351.605C240.594 351.449 240.21 351.371 239.754 351.371C239.305 351.371 238.895 351.465 238.523 351.654C238.159 351.843 237.843 352.103 237.576 352.435C237.316 352.767 237.111 353.148 236.961 353.578C236.818 354.001 236.746 354.45 236.746 354.925ZM253.27 350.042H254.91V360.384C254.91 361.315 254.721 362.11 254.344 362.767C253.966 363.425 253.439 363.923 252.762 364.261C252.091 364.606 251.316 364.779 250.438 364.779C250.073 364.779 249.643 364.72 249.148 364.603C248.66 364.492 248.178 364.3 247.703 364.027C247.234 363.76 246.84 363.399 246.521 362.943L247.469 361.869C247.911 362.403 248.374 362.774 248.855 362.982C249.344 363.19 249.826 363.294 250.301 363.294C250.874 363.294 251.368 363.187 251.785 362.972C252.202 362.757 252.524 362.438 252.752 362.015C252.986 361.598 253.104 361.084 253.104 360.472V352.367L253.27 350.042ZM245.994 355.443V355.238C245.994 354.431 246.089 353.698 246.277 353.041C246.473 352.376 246.749 351.807 247.107 351.332C247.472 350.856 247.911 350.492 248.426 350.238C248.94 349.977 249.52 349.847 250.164 349.847C250.828 349.847 251.408 349.964 251.902 350.199C252.404 350.427 252.827 350.762 253.172 351.205C253.523 351.641 253.8 352.168 254.002 352.787C254.204 353.405 254.344 354.105 254.422 354.886V355.785C254.35 356.559 254.21 357.256 254.002 357.875C253.8 358.493 253.523 359.02 253.172 359.457C252.827 359.893 252.404 360.228 251.902 360.462C251.401 360.69 250.815 360.804 250.145 360.804C249.513 360.804 248.94 360.671 248.426 360.404C247.918 360.137 247.482 359.763 247.117 359.281C246.753 358.799 246.473 358.233 246.277 357.582C246.089 356.924 245.994 356.211 245.994 355.443ZM247.801 355.238V355.443C247.801 355.97 247.853 356.465 247.957 356.927C248.068 357.389 248.234 357.796 248.455 358.148C248.683 358.5 248.973 358.776 249.324 358.978C249.676 359.173 250.096 359.271 250.584 359.271C251.183 359.271 251.678 359.144 252.068 358.89C252.459 358.636 252.768 358.301 252.996 357.884C253.23 357.468 253.413 357.015 253.543 356.527V354.173C253.471 353.815 253.361 353.47 253.211 353.138C253.068 352.8 252.879 352.5 252.645 352.24C252.417 351.973 252.133 351.761 251.795 351.605C251.456 351.449 251.059 351.371 250.604 351.371C250.109 351.371 249.682 351.475 249.324 351.683C248.973 351.885 248.683 352.165 248.455 352.523C248.234 352.875 248.068 353.285 247.957 353.753C247.853 354.216 247.801 354.71 247.801 355.238ZM262.039 360.804C261.303 360.804 260.636 360.681 260.037 360.433C259.445 360.179 258.934 359.824 258.504 359.369C258.081 358.913 257.755 358.373 257.527 357.748C257.299 357.123 257.186 356.439 257.186 355.697V355.287C257.186 354.427 257.312 353.662 257.566 352.992C257.82 352.315 258.165 351.742 258.602 351.273C259.038 350.804 259.533 350.449 260.086 350.208C260.639 349.968 261.212 349.847 261.805 349.847C262.56 349.847 263.211 349.977 263.758 350.238C264.311 350.498 264.764 350.863 265.115 351.332C265.467 351.794 265.727 352.341 265.896 352.972C266.066 353.597 266.15 354.281 266.15 355.023V355.833H258.26V354.359H264.344V354.222C264.318 353.753 264.22 353.298 264.051 352.855C263.888 352.412 263.628 352.048 263.27 351.761C262.911 351.475 262.423 351.332 261.805 351.332C261.395 351.332 261.017 351.419 260.672 351.595C260.327 351.764 260.031 352.018 259.783 352.357C259.536 352.695 259.344 353.109 259.207 353.597C259.07 354.085 259.002 354.649 259.002 355.287V355.697C259.002 356.198 259.07 356.67 259.207 357.113C259.35 357.549 259.555 357.933 259.822 358.265C260.096 358.597 260.424 358.858 260.809 359.046C261.199 359.235 261.642 359.33 262.137 359.33C262.775 359.33 263.315 359.199 263.758 358.939C264.201 358.679 264.588 358.33 264.92 357.894L266.014 358.763C265.786 359.108 265.496 359.437 265.145 359.75C264.793 360.062 264.36 360.316 263.846 360.511C263.338 360.707 262.736 360.804 262.039 360.804ZM276.189 359.515L279.129 350.042H281.062L276.824 362.24C276.727 362.5 276.596 362.78 276.434 363.08C276.277 363.386 276.076 363.675 275.828 363.949C275.581 364.222 275.281 364.444 274.93 364.613C274.585 364.789 274.171 364.876 273.689 364.876C273.546 364.876 273.364 364.857 273.143 364.818C272.921 364.779 272.765 364.746 272.674 364.72L272.664 363.255C272.716 363.262 272.798 363.268 272.908 363.275C273.025 363.288 273.107 363.294 273.152 363.294C273.562 363.294 273.911 363.239 274.197 363.128C274.484 363.024 274.725 362.845 274.92 362.591C275.122 362.344 275.294 362.002 275.438 361.566L276.189 359.515ZM274.031 350.042L276.775 358.246L277.244 360.15L275.945 360.814L272.059 350.042H274.031ZM282.059 355.443V355.218C282.059 354.457 282.169 353.75 282.391 353.099C282.612 352.442 282.931 351.872 283.348 351.39C283.764 350.902 284.269 350.524 284.861 350.257C285.454 349.984 286.118 349.847 286.854 349.847C287.596 349.847 288.263 349.984 288.855 350.257C289.454 350.524 289.962 350.902 290.379 351.39C290.802 351.872 291.124 352.442 291.346 353.099C291.567 353.75 291.678 354.457 291.678 355.218V355.443C291.678 356.205 291.567 356.911 291.346 357.562C291.124 358.213 290.802 358.783 290.379 359.271C289.962 359.753 289.458 360.13 288.865 360.404C288.279 360.671 287.615 360.804 286.873 360.804C286.131 360.804 285.464 360.671 284.871 360.404C284.279 360.13 283.771 359.753 283.348 359.271C282.931 358.783 282.612 358.213 282.391 357.562C282.169 356.911 282.059 356.205 282.059 355.443ZM283.865 355.218V355.443C283.865 355.97 283.927 356.468 284.051 356.937C284.174 357.399 284.36 357.809 284.607 358.167C284.861 358.526 285.177 358.809 285.555 359.017C285.932 359.219 286.372 359.32 286.873 359.32C287.368 359.32 287.801 359.219 288.172 359.017C288.549 358.809 288.862 358.526 289.109 358.167C289.357 357.809 289.542 357.399 289.666 356.937C289.796 356.468 289.861 355.97 289.861 355.443V355.218C289.861 354.697 289.796 354.206 289.666 353.744C289.542 353.275 289.354 352.861 289.1 352.503C288.852 352.139 288.54 351.852 288.162 351.644C287.791 351.436 287.355 351.332 286.854 351.332C286.359 351.332 285.923 351.436 285.545 351.644C285.174 351.852 284.861 352.139 284.607 352.503C284.36 352.861 284.174 353.275 284.051 353.744C283.927 354.206 283.865 354.697 283.865 355.218ZM300.408 358.167V350.042H302.225V360.609H300.496L300.408 358.167ZM300.75 355.941L301.502 355.921C301.502 356.625 301.427 357.276 301.277 357.875C301.134 358.467 300.9 358.981 300.574 359.417C300.249 359.854 299.822 360.195 299.295 360.443C298.768 360.684 298.126 360.804 297.371 360.804C296.857 360.804 296.385 360.729 295.955 360.58C295.532 360.43 295.167 360.199 294.861 359.886C294.555 359.574 294.318 359.167 294.148 358.666C293.986 358.164 293.904 357.562 293.904 356.859V350.042H295.711V356.878C295.711 357.354 295.763 357.748 295.867 358.06C295.978 358.366 296.124 358.61 296.307 358.792C296.495 358.968 296.704 359.092 296.932 359.164C297.166 359.235 297.407 359.271 297.654 359.271C298.423 359.271 299.031 359.125 299.48 358.832C299.93 358.532 300.252 358.132 300.447 357.63C300.649 357.123 300.75 356.559 300.75 355.941ZM306.785 351.703V360.609H304.979V350.042H306.736L306.785 351.703ZM310.086 349.984L310.076 351.664C309.926 351.631 309.783 351.611 309.646 351.605C309.516 351.592 309.367 351.585 309.197 351.585C308.781 351.585 308.413 351.651 308.094 351.781C307.775 351.911 307.505 352.093 307.283 352.328C307.062 352.562 306.886 352.842 306.756 353.167C306.632 353.486 306.551 353.838 306.512 354.222L306.004 354.515C306.004 353.877 306.066 353.278 306.189 352.718C306.32 352.158 306.518 351.664 306.785 351.234C307.052 350.798 307.391 350.459 307.801 350.218C308.217 349.971 308.712 349.847 309.285 349.847C309.415 349.847 309.565 349.863 309.734 349.896C309.904 349.922 310.021 349.951 310.086 349.984ZM322.869 357.806C322.869 357.546 322.811 357.305 322.693 357.083C322.583 356.856 322.352 356.651 322 356.468C321.655 356.279 321.134 356.117 320.438 355.98C319.852 355.856 319.321 355.71 318.846 355.541C318.377 355.371 317.977 355.166 317.645 354.925C317.319 354.684 317.068 354.401 316.893 354.076C316.717 353.75 316.629 353.369 316.629 352.933C316.629 352.516 316.72 352.123 316.902 351.751C317.091 351.38 317.355 351.052 317.693 350.765C318.038 350.479 318.452 350.254 318.934 350.091C319.415 349.929 319.952 349.847 320.545 349.847C321.391 349.847 322.114 349.997 322.713 350.296C323.312 350.596 323.771 350.996 324.09 351.498C324.409 351.992 324.568 352.542 324.568 353.148H322.762C322.762 352.855 322.674 352.572 322.498 352.298C322.329 352.018 322.078 351.787 321.746 351.605C321.421 351.423 321.02 351.332 320.545 351.332C320.044 351.332 319.637 351.41 319.324 351.566C319.018 351.716 318.794 351.908 318.65 352.142C318.514 352.376 318.445 352.624 318.445 352.884C318.445 353.08 318.478 353.255 318.543 353.412C318.615 353.561 318.738 353.701 318.914 353.832C319.09 353.955 319.337 354.072 319.656 354.183C319.975 354.294 320.382 354.404 320.877 354.515C321.743 354.71 322.456 354.945 323.016 355.218C323.576 355.492 323.992 355.827 324.266 356.224C324.539 356.621 324.676 357.103 324.676 357.669C324.676 358.132 324.578 358.555 324.383 358.939C324.194 359.323 323.917 359.655 323.553 359.935C323.195 360.208 322.765 360.423 322.264 360.58C321.769 360.729 321.212 360.804 320.594 360.804C319.663 360.804 318.875 360.638 318.23 360.306C317.586 359.974 317.098 359.544 316.766 359.017C316.434 358.49 316.268 357.933 316.268 357.347H318.084C318.11 357.842 318.253 358.236 318.514 358.529C318.774 358.815 319.093 359.02 319.471 359.144C319.848 359.261 320.223 359.32 320.594 359.32C321.089 359.32 321.502 359.255 321.834 359.125C322.173 358.994 322.43 358.815 322.605 358.587C322.781 358.36 322.869 358.099 322.869 357.806ZM331.434 360.804C330.698 360.804 330.031 360.681 329.432 360.433C328.839 360.179 328.328 359.824 327.898 359.369C327.475 358.913 327.15 358.373 326.922 357.748C326.694 357.123 326.58 356.439 326.58 355.697V355.287C326.58 354.427 326.707 353.662 326.961 352.992C327.215 352.315 327.56 351.742 327.996 351.273C328.432 350.804 328.927 350.449 329.48 350.208C330.034 349.968 330.607 349.847 331.199 349.847C331.954 349.847 332.605 349.977 333.152 350.238C333.706 350.498 334.158 350.863 334.51 351.332C334.861 351.794 335.122 352.341 335.291 352.972C335.46 353.597 335.545 354.281 335.545 355.023V355.833H327.654V354.359H333.738V354.222C333.712 353.753 333.615 353.298 333.445 352.855C333.283 352.412 333.022 352.048 332.664 351.761C332.306 351.475 331.818 351.332 331.199 351.332C330.789 351.332 330.411 351.419 330.066 351.595C329.721 351.764 329.425 352.018 329.178 352.357C328.93 352.695 328.738 353.109 328.602 353.597C328.465 354.085 328.396 354.649 328.396 355.287V355.697C328.396 356.198 328.465 356.67 328.602 357.113C328.745 357.549 328.95 357.933 329.217 358.265C329.49 358.597 329.819 358.858 330.203 359.046C330.594 359.235 331.036 359.33 331.531 359.33C332.169 359.33 332.71 359.199 333.152 358.939C333.595 358.679 333.982 358.33 334.314 357.894L335.408 358.763C335.18 359.108 334.891 359.437 334.539 359.75C334.188 360.062 333.755 360.316 333.24 360.511C332.732 360.707 332.13 360.804 331.434 360.804ZM343.885 358.802V353.363C343.885 352.946 343.8 352.585 343.631 352.279C343.468 351.966 343.221 351.725 342.889 351.556C342.557 351.387 342.146 351.302 341.658 351.302C341.202 351.302 340.802 351.38 340.457 351.537C340.118 351.693 339.852 351.898 339.656 352.152C339.467 352.406 339.373 352.679 339.373 352.972H337.566C337.566 352.595 337.664 352.22 337.859 351.849C338.055 351.478 338.335 351.143 338.699 350.843C339.07 350.537 339.513 350.296 340.027 350.121C340.548 349.938 341.128 349.847 341.766 349.847C342.534 349.847 343.211 349.977 343.797 350.238C344.389 350.498 344.852 350.892 345.184 351.419C345.522 351.94 345.691 352.595 345.691 353.382V358.304C345.691 358.656 345.721 359.03 345.779 359.427C345.844 359.824 345.939 360.166 346.062 360.453V360.609H344.178C344.087 360.401 344.015 360.124 343.963 359.779C343.911 359.427 343.885 359.102 343.885 358.802ZM344.197 354.203L344.217 355.472H342.391C341.876 355.472 341.417 355.514 341.014 355.599C340.61 355.677 340.271 355.798 339.998 355.96C339.725 356.123 339.516 356.328 339.373 356.576C339.23 356.817 339.158 357.1 339.158 357.425C339.158 357.757 339.233 358.06 339.383 358.333C339.533 358.607 339.757 358.825 340.057 358.988C340.363 359.144 340.737 359.222 341.18 359.222C341.733 359.222 342.221 359.105 342.645 358.871C343.068 358.636 343.403 358.35 343.65 358.011C343.904 357.673 344.041 357.344 344.061 357.025L344.832 357.894C344.786 358.167 344.663 358.47 344.461 358.802C344.259 359.134 343.989 359.453 343.65 359.759C343.318 360.059 342.921 360.309 342.459 360.511C342.003 360.707 341.489 360.804 340.916 360.804C340.2 360.804 339.572 360.664 339.031 360.384C338.497 360.104 338.081 359.73 337.781 359.261C337.488 358.786 337.342 358.255 337.342 357.669C337.342 357.103 337.452 356.605 337.674 356.175C337.895 355.739 338.214 355.378 338.631 355.091C339.048 354.798 339.549 354.577 340.135 354.427C340.721 354.278 341.375 354.203 342.098 354.203H344.197ZM350.34 351.703V360.609H348.533V350.042H350.291L350.34 351.703ZM353.641 349.984L353.631 351.664C353.481 351.631 353.338 351.611 353.201 351.605C353.071 351.592 352.921 351.585 352.752 351.585C352.335 351.585 351.967 351.651 351.648 351.781C351.329 351.911 351.059 352.093 350.838 352.328C350.617 352.562 350.441 352.842 350.311 353.167C350.187 353.486 350.105 353.838 350.066 354.222L349.559 354.515C349.559 353.877 349.62 353.278 349.744 352.718C349.874 352.158 350.073 351.664 350.34 351.234C350.607 350.798 350.945 350.459 351.355 350.218C351.772 349.971 352.267 349.847 352.84 349.847C352.97 349.847 353.12 349.863 353.289 349.896C353.458 349.922 353.576 349.951 353.641 349.984ZM359.344 359.32C359.773 359.32 360.171 359.232 360.535 359.056C360.9 358.88 361.199 358.639 361.434 358.333C361.668 358.021 361.801 357.666 361.834 357.269H363.553C363.52 357.894 363.309 358.477 362.918 359.017C362.534 359.551 362.029 359.984 361.404 360.316C360.779 360.641 360.092 360.804 359.344 360.804C358.549 360.804 357.856 360.664 357.264 360.384C356.678 360.104 356.189 359.72 355.799 359.232C355.415 358.744 355.125 358.184 354.93 357.552C354.741 356.914 354.646 356.24 354.646 355.531V355.121C354.646 354.411 354.741 353.74 354.93 353.109C355.125 352.471 355.415 351.908 355.799 351.419C356.189 350.931 356.678 350.547 357.264 350.267C357.856 349.987 358.549 349.847 359.344 349.847C360.171 349.847 360.893 350.016 361.512 350.355C362.13 350.687 362.615 351.143 362.967 351.722C363.325 352.295 363.52 352.946 363.553 353.675H361.834C361.801 353.239 361.678 352.845 361.463 352.494C361.255 352.142 360.968 351.862 360.604 351.654C360.245 351.439 359.826 351.332 359.344 351.332C358.79 351.332 358.325 351.442 357.947 351.664C357.576 351.878 357.28 352.171 357.059 352.542C356.844 352.907 356.688 353.314 356.59 353.763C356.499 354.206 356.453 354.658 356.453 355.121V355.531C356.453 355.993 356.499 356.449 356.59 356.898C356.681 357.347 356.834 357.754 357.049 358.119C357.27 358.483 357.566 358.776 357.938 358.998C358.315 359.212 358.784 359.32 359.344 359.32ZM367.391 345.609V360.609H365.584V345.609H367.391ZM366.961 354.925L366.209 354.896C366.215 354.173 366.323 353.506 366.531 352.894C366.74 352.276 367.033 351.738 367.41 351.283C367.788 350.827 368.237 350.475 368.758 350.228C369.285 349.974 369.868 349.847 370.506 349.847C371.027 349.847 371.495 349.919 371.912 350.062C372.329 350.199 372.684 350.42 372.977 350.726C373.276 351.032 373.504 351.429 373.66 351.917C373.816 352.399 373.895 352.988 373.895 353.685V360.609H372.078V353.666C372.078 353.112 371.997 352.669 371.834 352.337C371.671 351.999 371.434 351.755 371.121 351.605C370.809 351.449 370.424 351.371 369.969 351.371C369.52 351.371 369.109 351.465 368.738 351.654C368.374 351.843 368.058 352.103 367.791 352.435C367.531 352.767 367.326 353.148 367.176 353.578C367.033 354.001 366.961 354.45 366.961 354.925ZM385.789 359.32C386.219 359.32 386.616 359.232 386.98 359.056C387.345 358.88 387.645 358.639 387.879 358.333C388.113 358.021 388.247 357.666 388.279 357.269H389.998C389.965 357.894 389.754 358.477 389.363 359.017C388.979 359.551 388.475 359.984 387.85 360.316C387.225 360.641 386.538 360.804 385.789 360.804C384.995 360.804 384.301 360.664 383.709 360.384C383.123 360.104 382.635 359.72 382.244 359.232C381.86 358.744 381.57 358.184 381.375 357.552C381.186 356.914 381.092 356.24 381.092 355.531V355.121C381.092 354.411 381.186 353.74 381.375 353.109C381.57 352.471 381.86 351.908 382.244 351.419C382.635 350.931 383.123 350.547 383.709 350.267C384.301 349.987 384.995 349.847 385.789 349.847C386.616 349.847 387.339 350.016 387.957 350.355C388.576 350.687 389.061 351.143 389.412 351.722C389.77 352.295 389.965 352.946 389.998 353.675H388.279C388.247 353.239 388.123 352.845 387.908 352.494C387.7 352.142 387.413 351.862 387.049 351.654C386.691 351.439 386.271 351.332 385.789 351.332C385.236 351.332 384.77 351.442 384.393 351.664C384.021 351.878 383.725 352.171 383.504 352.542C383.289 352.907 383.133 353.314 383.035 353.763C382.944 354.206 382.898 354.658 382.898 355.121V355.531C382.898 355.993 382.944 356.449 383.035 356.898C383.126 357.347 383.279 357.754 383.494 358.119C383.715 358.483 384.012 358.776 384.383 358.998C384.76 359.212 385.229 359.32 385.789 359.32ZM393.836 351.703V360.609H392.029V350.042H393.787L393.836 351.703ZM397.137 349.984L397.127 351.664C396.977 351.631 396.834 351.611 396.697 351.605C396.567 351.592 396.417 351.585 396.248 351.585C395.831 351.585 395.464 351.651 395.145 351.781C394.826 351.911 394.555 352.093 394.334 352.328C394.113 352.562 393.937 352.842 393.807 353.167C393.683 353.486 393.602 353.838 393.562 354.222L393.055 354.515C393.055 353.877 393.117 353.278 393.24 352.718C393.37 352.158 393.569 351.664 393.836 351.234C394.103 350.798 394.441 350.459 394.852 350.218C395.268 349.971 395.763 349.847 396.336 349.847C396.466 349.847 396.616 349.863 396.785 349.896C396.954 349.922 397.072 349.951 397.137 349.984ZM400.77 350.042V360.609H398.953V350.042H400.77ZM398.816 347.24C398.816 346.947 398.904 346.699 399.08 346.498C399.262 346.296 399.529 346.195 399.881 346.195C400.226 346.195 400.49 346.296 400.672 346.498C400.861 346.699 400.955 346.947 400.955 347.24C400.955 347.52 400.861 347.761 400.672 347.962C400.49 348.158 400.226 348.255 399.881 348.255C399.529 348.255 399.262 348.158 399.08 347.962C398.904 347.761 398.816 347.52 398.816 347.24ZM408.094 350.042V351.429H402.381V350.042H408.094ZM404.314 347.474H406.121V357.992C406.121 358.35 406.176 358.62 406.287 358.802C406.398 358.985 406.541 359.105 406.717 359.164C406.893 359.222 407.081 359.251 407.283 359.251C407.433 359.251 407.589 359.238 407.752 359.212C407.921 359.18 408.048 359.154 408.133 359.134L408.143 360.609C407.999 360.654 407.811 360.697 407.576 360.736C407.348 360.781 407.072 360.804 406.746 360.804C406.303 360.804 405.896 360.716 405.525 360.541C405.154 360.365 404.858 360.072 404.637 359.662C404.422 359.245 404.314 358.685 404.314 357.982V347.474ZM414.598 360.804C413.862 360.804 413.195 360.681 412.596 360.433C412.003 360.179 411.492 359.824 411.062 359.369C410.639 358.913 410.314 358.373 410.086 357.748C409.858 357.123 409.744 356.439 409.744 355.697V355.287C409.744 354.427 409.871 353.662 410.125 352.992C410.379 352.315 410.724 351.742 411.16 351.273C411.596 350.804 412.091 350.449 412.645 350.208C413.198 349.968 413.771 349.847 414.363 349.847C415.118 349.847 415.77 349.977 416.316 350.238C416.87 350.498 417.322 350.863 417.674 351.332C418.025 351.794 418.286 352.341 418.455 352.972C418.624 353.597 418.709 354.281 418.709 355.023V355.833H410.818V354.359H416.902V354.222C416.876 353.753 416.779 353.298 416.609 352.855C416.447 352.412 416.186 352.048 415.828 351.761C415.47 351.475 414.982 351.332 414.363 351.332C413.953 351.332 413.576 351.419 413.23 351.595C412.885 351.764 412.589 352.018 412.342 352.357C412.094 352.695 411.902 353.109 411.766 353.597C411.629 354.085 411.561 354.649 411.561 355.287V355.697C411.561 356.198 411.629 356.67 411.766 357.113C411.909 357.549 412.114 357.933 412.381 358.265C412.654 358.597 412.983 358.858 413.367 359.046C413.758 359.235 414.201 359.33 414.695 359.33C415.333 359.33 415.874 359.199 416.316 358.939C416.759 358.679 417.146 358.33 417.479 357.894L418.572 358.763C418.344 359.108 418.055 359.437 417.703 359.75C417.352 360.062 416.919 360.316 416.404 360.511C415.896 360.707 415.294 360.804 414.598 360.804ZM422.625 351.703V360.609H420.818V350.042H422.576L422.625 351.703ZM425.926 349.984L425.916 351.664C425.766 351.631 425.623 351.611 425.486 351.605C425.356 351.592 425.206 351.585 425.037 351.585C424.62 351.585 424.253 351.651 423.934 351.781C423.615 351.911 423.344 352.093 423.123 352.328C422.902 352.562 422.726 352.842 422.596 353.167C422.472 353.486 422.391 353.838 422.352 354.222L421.844 354.515C421.844 353.877 421.906 353.278 422.029 352.718C422.16 352.158 422.358 351.664 422.625 351.234C422.892 350.798 423.23 350.459 423.641 350.218C424.057 349.971 424.552 349.847 425.125 349.847C425.255 349.847 425.405 349.863 425.574 349.896C425.743 349.922 425.861 349.951 425.926 349.984ZM429.559 350.042V360.609H427.742V350.042H429.559ZM427.605 347.24C427.605 346.947 427.693 346.699 427.869 346.498C428.051 346.296 428.318 346.195 428.67 346.195C429.015 346.195 429.279 346.296 429.461 346.498C429.65 346.699 429.744 346.947 429.744 347.24C429.744 347.52 429.65 347.761 429.461 347.962C429.279 348.158 429.015 348.255 428.67 348.255C428.318 348.255 428.051 348.158 427.869 347.962C427.693 347.761 427.605 347.52 427.605 347.24ZM438.689 358.802V353.363C438.689 352.946 438.605 352.585 438.436 352.279C438.273 351.966 438.025 351.725 437.693 351.556C437.361 351.387 436.951 351.302 436.463 351.302C436.007 351.302 435.607 351.38 435.262 351.537C434.923 351.693 434.656 351.898 434.461 352.152C434.272 352.406 434.178 352.679 434.178 352.972H432.371C432.371 352.595 432.469 352.22 432.664 351.849C432.859 351.478 433.139 351.143 433.504 350.843C433.875 350.537 434.318 350.296 434.832 350.121C435.353 349.938 435.932 349.847 436.57 349.847C437.339 349.847 438.016 349.977 438.602 350.238C439.194 350.498 439.656 350.892 439.988 351.419C440.327 351.94 440.496 352.595 440.496 353.382V358.304C440.496 358.656 440.525 359.03 440.584 359.427C440.649 359.824 440.743 360.166 440.867 360.453V360.609H438.982C438.891 360.401 438.82 360.124 438.768 359.779C438.715 359.427 438.689 359.102 438.689 358.802ZM439.002 354.203L439.021 355.472H437.195C436.681 355.472 436.222 355.514 435.818 355.599C435.415 355.677 435.076 355.798 434.803 355.96C434.529 356.123 434.321 356.328 434.178 356.576C434.035 356.817 433.963 357.1 433.963 357.425C433.963 357.757 434.038 358.06 434.188 358.333C434.337 358.607 434.562 358.825 434.861 358.988C435.167 359.144 435.542 359.222 435.984 359.222C436.538 359.222 437.026 359.105 437.449 358.871C437.872 358.636 438.208 358.35 438.455 358.011C438.709 357.673 438.846 357.344 438.865 357.025L439.637 357.894C439.591 358.167 439.467 358.47 439.266 358.802C439.064 359.134 438.794 359.453 438.455 359.759C438.123 360.059 437.726 360.309 437.264 360.511C436.808 360.707 436.294 360.804 435.721 360.804C435.005 360.804 434.376 360.664 433.836 360.384C433.302 360.104 432.885 359.73 432.586 359.261C432.293 358.786 432.146 358.255 432.146 357.669C432.146 357.103 432.257 356.605 432.479 356.175C432.7 355.739 433.019 355.378 433.436 355.091C433.852 354.798 434.354 354.577 434.939 354.427C435.525 354.278 436.18 354.203 436.902 354.203H439.002ZM443.367 359.652C443.367 359.346 443.462 359.089 443.65 358.88C443.846 358.666 444.126 358.558 444.49 358.558C444.855 358.558 445.132 358.666 445.32 358.88C445.516 359.089 445.613 359.346 445.613 359.652C445.613 359.951 445.516 360.205 445.32 360.414C445.132 360.622 444.855 360.726 444.49 360.726C444.126 360.726 443.846 360.622 443.65 360.414C443.462 360.205 443.367 359.951 443.367 359.652Z" fill="#2B2A29"/>
</svg>
