<svg width="40" height="14" viewBox="0 0 40 14" fill="none" xmlns="http://www.w3.org/2000/svg">
<g id="logos:visa" clip-path="url(#clip0_689_22430)">
<path id="Vector" d="M20.2953 4.70562C20.2731 6.46001 21.8588 7.43898 23.0534 8.02108C24.2807 8.61827 24.6929 9.00126 24.688 9.53538C24.6789 10.3527 23.7091 10.7135 22.8016 10.7275C21.2182 10.752 20.2976 10.3 19.5658 9.95813L18.9954 12.627C19.7297 12.9654 21.0894 13.2605 22.4993 13.2734C25.809 13.2734 27.9742 11.6397 27.986 9.10668C27.9989 5.89193 23.5394 5.71399 23.5698 4.27708C23.5803 3.84138 23.9961 3.37642 24.9071 3.25821C25.358 3.19849 26.6028 3.15278 28.0141 3.80268L28.5681 1.22046C27.8091 0.944105 26.8336 0.679483 25.6191 0.679483C22.504 0.679483 20.313 2.33546 20.2953 4.70562ZM33.8907 0.901905C33.2863 0.901905 32.777 1.25443 32.5497 1.7954L27.822 13.0838H31.1293L31.7874 11.2649H35.8288L36.2105 13.0838H39.1255L36.5818 0.901905H33.8907ZM34.3533 4.19268L35.3078 8.76711H32.6938L34.3533 4.19268ZM16.2855 0.902058L13.6786 13.0836H16.8301L19.4358 0.901752H16.2855M11.6233 0.901752L8.34306 9.19337L7.01615 2.14335C6.86045 1.35635 6.24559 0.901905 5.56279 0.901905H0.200594L0.125488 1.25565C1.22632 1.49452 2.47707 1.8798 3.23482 2.29204C3.69856 2.54387 3.83079 2.764 3.98314 3.36241L6.49635 13.0838H9.82674L14.9327 0.901905L11.6233 0.901752Z" fill="url(#paint0_linear_689_22430)"/>
</g>
<defs>
<linearGradient id="paint0_linear_689_22430" x1="1793.11" y1="38.5369" x2="1829.57" y2="-1254.88" gradientUnits="userSpaceOnUse">
<stop stop-color="#222357"/>
<stop offset="1" stop-color="#254AA5"/>
</linearGradient>
<clipPath id="clip0_689_22430">
<rect width="39" height="12.6445" fill="white" transform="translate(0.125488 0.679688)"/>
</clipPath>
</defs>
</svg>
